<svg id="Capa_2" data-name="Capa 2" xmlns="http://www.w3.org/2000/svg" viewBox="0 0 255.13 191.63"><defs><style>.cls-1{fill:#ffffff44;}</style></defs><path class="cls-1" d="M168,203.87a3,3,0,0,0-.25.46A3.14,3.14,0,0,0,168,203.87Z" transform="translate(-120.47 -106.38)"/><path class="cls-1" d="M184,214.43l-.3.15A.27.27,0,0,0,184,214.43Z" transform="translate(-120.47 -106.38)"/><path class="cls-1" d="M158.15,198.08l.08-.1-.7-.4Z" transform="translate(-120.47 -106.38)"/><path class="cls-1" d="M219.52,233.85l-.24-.08C219.38,233.82,219.43,233.9,219.52,233.85Z" transform="translate(-120.47 -106.38)"/><path class="cls-1" d="M198.59,222.08a.62.62,0,0,1,.44-.21C198.9,221.78,198.77,221.77,198.59,222.08Z" transform="translate(-120.47 -106.38)"/><path class="cls-1" d="M157.13,185.34v.83A.86.86,0,0,0,157.13,185.34Z" transform="translate(-120.47 -106.38)"/><path class="cls-1" d="M145.36,183.63c0,.05,0,.1,0,.17A.19.19,0,0,0,145.36,183.63Z" transform="translate(-120.47 -106.38)"/><path class="cls-1" d="M148.27,188.21a2.23,2.23,0,0,0,.43-.17A.29.29,0,0,0,148.27,188.21Z" transform="translate(-120.47 -106.38)"/><path class="cls-1" d="M148.92,187.92l-.22.12C148.79,188.05,148.87,188.05,148.92,187.92Z" transform="translate(-120.47 -106.38)"/><path class="cls-1" d="M347.84,297.61c.25.23.82-.07,1.34-.28Z" transform="translate(-120.47 -106.38)"/><path class="cls-1" d="M252.85,248.69l-.19.26A.41.41,0,0,0,252.85,248.69Z" transform="translate(-120.47 -106.38)"/><path class="cls-1" d="M352.09,292.51l.09.27C352.19,292.62,352.15,292.55,352.09,292.51Z" transform="translate(-120.47 -106.38)"/><path class="cls-1" d="M163.52,185.88c.6-.56.87.53,1.15-.14C164.3,185.71,164.07,185,163.52,185.88Z" transform="translate(-120.47 -106.38)"/><path class="cls-1" d="M271.09,225.86l.21,0A.32.32,0,0,0,271.09,225.86Z" transform="translate(-120.47 -106.38)"/><path class="cls-1" d="M352.09,292.51l-.11-.3a2.72,2.72,0,0,0-.16.35A.32.32,0,0,1,352.09,292.51Z" transform="translate(-120.47 -106.38)"/><path class="cls-1" d="M287.33,264h0l-.12.09Z" transform="translate(-120.47 -106.38)"/><path class="cls-1" d="M288.58,265.9l-.48.05C288.27,266.11,288.42,266,288.58,265.9Z" transform="translate(-120.47 -106.38)"/><path class="cls-1" d="M349.18,297.33l.77-.17A1.52,1.52,0,0,0,349.18,297.33Z" transform="translate(-120.47 -106.38)"/><path class="cls-1" d="M306.89,274.2a.66.66,0,0,0-.2,0A.16.16,0,0,0,306.89,274.2Z" transform="translate(-120.47 -106.38)"/><path class="cls-1" d="M197.35,221.07a1.07,1.07,0,0,0-.1-.22C197.17,221,197.13,221.12,197.35,221.07Z" transform="translate(-120.47 -106.38)"/><path class="cls-1" d="M219,208.76h0v0Z" transform="translate(-120.47 -106.38)"/><path class="cls-1" d="M217.9,209.29c.16.25.7-.1,1.1-.53C218.77,208.66,218.49,208.71,217.9,209.29Z" transform="translate(-120.47 -106.38)"/><path class="cls-1" d="M220.43,209.79l-.05-.12C220.39,209.73,220.4,209.77,220.43,209.79Z" transform="translate(-120.47 -106.38)"/><path class="cls-1" d="M206.2,202.05l0,.07,0-.06Z" transform="translate(-120.47 -106.38)"/><path class="cls-1" d="M209.19,203.2a.78.78,0,0,0,.07.39A.76.76,0,0,0,209.19,203.2Z" transform="translate(-120.47 -106.38)"/><path class="cls-1" d="M228.57,211s0,0,0,0h0Z" transform="translate(-120.47 -106.38)"/><path class="cls-1" d="M258.39,217.84c-2.95-.79-7.14-1-9.72-2.54-1.21,1.16-2.1.83-3.11.77l.71-1.92-1,.29c-.05-.7.72-.11.5-1.05l-.78,1.05c.23-.7-1.69-1.25.12-2.07l-2.84-1.24c-.6-.32-1,1.41-1.54.65.1-.61.42-.27.65-1-1.49-2.29-4,2.6-5.55.91l.27-.18c-.55.36-1.15,0-1.27.29-.57,2,.79-.88.9.49-.74,1.58-1.11.55-1.59,1.77-.21-.77-.87,0-1.3-.06-.25-1.29-1.53-1-1.5-2.46-.55.36-1.59,1.76-2.33,1.52,0-1.47.63-1.14.14-1.91l-.51.88c-.51-.39-.31-.61-.1-1-.59-.31-1.05,1.05-1.56.12l.81-.71c-.72.11-.88-.15-1.63-.57.25-.52.55-.35.71-.1.16-1.55-1,.28-1.15,0-.11.43.36.85-.3,1.65-.32-.34-1.37.89-1.18-.32l.81-.71c-1.13.37-.94,1-1.72.21.09,0,.16-.29.26-.48-1.1.93-1.41-.48-2.24-.94l.27-.18c-.49.16-1,.91-1.2.76.27.75,0,1-.32,1.87,0-1.81-1.77,1.33-2.46,0,.25-.52.78-1.05.84-.36,1-1.41,1.66-2.71,2.63-3.16-.56.18-1.14.19-.75-.42l-.76,1.4a3.31,3.31,0,0,1-.6-.32c-.51.87-.15,1.72-1,2.08-.85.19.3-1.64-.08-1-1.14.19-1,1.4-1.69.55.14-.08.41-.26.43-.09-.36-.85-1.62-.39-1-2.22.26-.36.5-.87.67-.62l-.13.26c1.22-1-.71.1.18-1.39-.36,1-1.12.38-1.44,0l-.34,1.13c-2.67,2.65,1-2.1-.47-2.24-1.12.38.18.44-.64,1-.47-.42-.26-1.46-1.26-1.35a4.53,4.53,0,0,1,.23-2.51c-.7.28-1.25-1.17-2-.12.4,1.37,1.37-.9,1.67,1.08l-.78,1c-.64-.35-1.76-.13-2-.76a1.62,1.62,0,0,1-.26.82c-1.15,0-1.94,1.08-2.72.32.34-1.13.81-.71,1.25-.63-.23-1.12-.6-.34-1.39-1.09.36-1,.61.33,1.11-.55l-1.16-.15.08-.19c-.82,1.51-.73-.48-1.56-.28-1.49-.66-2.63,1.35-4,2.24a1.83,1.83,0,0,1,.33-1.3c.06.86.23.28.54-.07-.58-.06-.44-2,.11-2.53-1,.1-.07.95-.77,1.23l-1-.58c-.22.86.09,1.2-.74,1.57-.58,0-.74-.25-1.35-.58.26-.35.33-1.3.78-1-.17-.43-.63-.68-1.15,0,.37,1-1.42.2-1.45,1.67l-.37-1c.15.08.4-.44.56-.19.33-1.3-.71.11-1,.12-.14-.34-.72-.72-.57-1.21-.36.24-.78-.26-.61-.92-.43.1-.37.78-.63,1.13l-1.06-.57a12.87,12.87,0,0,1,1.22-2.8c-.68.45-1,1.93-1.6,1.59.92-1.14-.4-1.37.79-2.69a1.41,1.41,0,0,0-1.7-1.43c-.79.89.36.85-.13,1.9-1.76-.3-3.12,2.58-4.06,1.57l.17.43a2.65,2.65,0,0,0-1.65.9c.76-1.23.7-3.9-.62-4.14-.39.62.12,1.55-.52,2.52l-.88-.15c0-.13.17-.31.35-.44-.92.16-.59-2.28-1.46-.83l.11-2.24-.07.95c-.38.6-1.26.45-1.54.64-1.12.37-1.17-.32-1.26-1.36-.09.61-.27,2-1,1.92.93-2.13-1-1.37-.5-2.47-.28-.08-.45-.95-.86-.08l.62-1.31c-.86,1.83-1.77,1.34-2.63,1.36,1.25-2.45-.88-.15-.21-2.59-.88,1.66-1.57.12-2.33,1.53-.59-.16.15-1.73.24-2.34l-.53.53c.07-.93-.93-1.5-1.31-2.32l-1.23,1.26.09-.78c-.26.34-.84.36-.78,1l-.28-.22c-.73,1.64-.63.26-1.56.69a1.05,1.05,0,0,1,.41-.86c-.31-.15.19-.94.26-1.57,0,.52-2.4,2.47-1.88,3.58-.23.7-.93,1-1.11.55l.45-1.56-1,1.4c-.57,0-.37-1-.68-1.36.43.08,2.11-2.47,1.07-2.88.62,0,1.24-.67,1.65-.86-.19-.15-.23-.34.37-.82-1,.11-.66.79-1.53.63.61-1.3.57-1.83.08-2.58l.1,1.2a1.26,1.26,0,0,1-.26.31c.14.23.1.46-.07,1-.16-.08-1.63,1.25-1.42.38-.09,2.42-2.08,1-2.11,2.47-.25.34-.84.18-.61-.51,1.09-.71.15-1.73.65-2.61-.41.28.1,1.22-.45,1.57-.43-.08-.37-1-.41-1.54l.27-.18-.35-.86c-.39.62.11,1.39-.61,1.49,0-.35-.74-.25-.49-.77.66-.79,1-2.09,1.56-2.11-.44-.08-1.77-.47-1.79,1l-.46-.25c.06.69.46,2.06-.57,1.83l.12-.26-1.09.72v-.81c-.13.34-.37.6-.61.47.11-.42,0-.68.19-1.21-.74-.24-1,.46-1.23.81-.44-.08-.47-.43.06-1.13-.47-.41-1.5-.65-1.57-1.51-1,.28,0,.34-.78,1.06.37-2.6-2-1.94-3.35-2.17-.55,2.16-.42.09-1.44,1.84.54-.53-.45-2.06.84-2.18l-.73-.06c0-1.3,1.41-.38,1.41-2.19-.74-.25-2.16,1.77-2.68.66.9-1.31-.85.19,0-1.29.39-.45.56-.19.85-.2l0-.34c-1.39-1.09-1.18,1.5-2.43,2.13-1-.23-.26-1.46,0-2.16,0-.34-.6-.33-1-.06,1-.63.69,1.36,0,2.15.28-1.81-1.36-.74-1.9-.21.62,2.32.91.49,1.39,2.9.4-.44,1-1.92,1.51-1-.8.52-.32.83-.29,1.13.22-.91.69-.12,1.07-.37-.08.78-1.3,1.75-.67,2.43l1-1.93c.18.43-.75,1.4.1,1.21-.8.88-.59,1.65-1.6,1.59.31,2.15,2-.22,3.12-.59-.14.09-.26.35-.4.45.4-.45.7-.28,1-.29.34.68-.81.71-.91,1.32l.9.32,0,.15c.34-.17.64-.26.5.27-.53.53-.92,1.15-1.31,1.59l1.5-1c-.38.61.27,1.46-.59,1.66l1.47.3-.46,1.39c.42-.09.55-.35.23-.68.33.5,3.06-1.46,1.68,1.07,1.53-.64,1.72,0,3.3-.16-1.52.81.45,2.06-.84,2.18.36.85,1.11-.55,1.69-.56a2.37,2.37,0,0,1-1.26,2.27l.84-.36-.13.26.83-.54c.22.95-.47,1.39,0,1.82l.63-1.14.07.86a.71.71,0,0,1,1-.63l-.12.26h.58c-.79.51.33.44-.25,1.2.38.24.4.22,1.24.33l.21-.87c1.28-.28-.47,1.23.28,1.63l.35-.95c.46,2.06,2.31-.05,2.71,1.32-.58,0-.92,1.14-.8.88.87,0,1.94.73,3.17-.07-.31,1.47-.42,1.9.08,2.84.59.16.73.07,1.25-.64.31.76,1.66.42,1.27,1.42.46-.73.41.36,1-.17l-.11.43.36-.95c.06,2.5,2.12-.48,2.31,1.76l-.28.17.56-.18c-.11.43-.38.61-.63,1.14l1.81,1-.06-.86c.43.07,1.09-.72,1.3.05-1.36,1.07.6.33.26,1.46l-.56.19c.59.16.59.16.95-.8.85,0-.28,2,.82,1.28l-.46-.25c.1-.61.77-1.23,1.07-1.07,0,.18.06.69-.23.71.72-.11,1.36.73,1.77.47a1.22,1.22,0,0,1-.48,1.22c1.56-.3.47.42,2,.13l-.25.52.69-.45L180,211l.08-.78c.44.08.85-.19,1.18.32l-.52.7c1.3.05.72,1.88,2.26,1.24,0,.18-.26.35-.4.44,1.52-.81.14,1.73,1.79.65-.18.24-.21.61-.35.82l.68-.31-.5,1,1-1.41L185,215l.4-.44c-.4,2.25.95,1,.95,2.82l.47-1.39c2.86-2.05,3.14,3.21,5.7,2.8l-.49,1,1.37-.89c.08,1-.66.79-.76,1.4,1.14-.2,1.05-1.41,2.21-1.26.22.94-.52.7-.93,1,1.19-.1,2.87-.07,3.3.82a1.28,1.28,0,0,0,.2-.38c.85-.19,1.49.65,2.23.89-.22.48-.43.49-.65.51.22.17.43.66.86.26l-.66.8c.47.42,1.88,0,1.54,1.17.11-.44.48-1.22.93-1-.44,1.74,1.58-.12,2,1.08-.26.34-.85.19-.7.27.19.6.86,0,1.41-.37l-.38.61,2.15-.14c-.44,1.73,1.77.48,1.14,1.61.61.33-.22-.94.66-.79-.08.78.86,0,.37,1l-.14.09.59.16-.79.88c.57,0,1.37-.9,1.74-1.68.2.77,1,.58.85,1.61l-.28.18c1.46.14.88,3.78,2.65,2.44,0,.18-.11.44-.26.36l.76.41-.53.7,1.83-.64-.25.52a11.24,11.24,0,0,0,3.42,1.22l-.28.18c1.57-.3.95,1,2.09.81-.09.12-.15.17-.19.18l.8.32-.39.44c1.08-.88,1,2.22,1.09,1.1a5.47,5.47,0,0,0,1.77-1.33c.9.32-.08.77.26,1.46.61.32,1.11-.55,1.76.3l-.25.52c.44.08.85-.19,1.44,0l-.27.18c1.38-.72.45,2.05,2.16,0,.2.59,1.06.57.57,1.62a18.92,18.92,0,0,1,3.74-.09c-.57,1.83.29,0,.54,1.29l.35-1c1.64.56,2.46,3.66,4.37,4l-.36,1,.79-.88a33.38,33.38,0,0,0,5.46,3.33c.7-.28,1.93-1.08,2.57-.41l-.14.1a6.36,6.36,0,0,1,4.44,1.44c-.26.36-.23.7-.5.88.79-.88.89.32,1.19.49l-.07-.87c.81-.7,1,.41,1,1.19l1.1-.72a1.17,1.17,0,0,1-.05.44l.34-.44-.18,1.39a3.53,3.53,0,0,0,2.07-1.18c-.11.44.37,1-.21,1l2.28,1.42-.19-.6c.35-1,1.34-1.24,1.53-.64-.82.54-.61,1.31-.69,2.09.54-.36.06-1,.46-1.39.69-.45,1.7-.39,1.74.12l-.41.27c.71-.1.28,1.64.86,1.8.83-.54.9.32,1.49-1.33.86,0-.19,1.21,0,1.47.67-.63,1.47.3,1.25,1.18,1.41-2.19,1.57,1.68,2.58-.23l.11,1.37c.24-.52.87-1.66,1.45-1.67.2.77-.3,1.65-.4,2.25l1.15-1.84c1.7,3.24,5.76,3.32,7.85,6.29,1.45.13,3.44-.09,4.78.82l-.28.18,1.21,1.17-.65-1.36c.42-.09.83-.36,1.12-.2,1.24,1.52,2.88,3.44,5.24,3.32,2.26-1.69-.1,2.36,1.83,1.27-.2.16-.38.46-.57.64a13.81,13.81,0,0,0,4.34-.95c-1.2,2.15.83.34.16,1.45l.54-.85c0,.68.57,1.2.16,1.79l1.09-.85-.4.94c.68.42,2.59.45,2,2.48,2.44-.49,5,1.37,6.85,2.9a1.68,1.68,0,0,1,1.87-.07l-.11,1.34c.66,0,1.95-1.05,2-.12a.75.75,0,0,1-.22.24c.62.08.73.91,1.77.23.5.39.66,1.26-.1,2.11,1.13-1.68.95.95.95.95s1.5,1.32,4,3.37,5.9,4.85,9.9,7.69c8,5.71,17.76,11,24.46,9.06.82-.63,1.85-.68,2.3-1.82.72.07-.09,1.66.59.92-.28-1,1.74-1.93,1.81-3.42l.57.12c.51-.51-1.05.22-.19-.74l-1.22,1.42a2,2,0,0,1,.12-1.53c-.75.35-2.45,2.24-2.57.78l.28.07c-.67-.4.32-1.26.37-1.6l.13.12,0-1.15c0,.8,1.59.06,1.18-.1-.44-1-.08.5-.77.28-.41-.18.28-.91.63-1.37l-.66-.4c.53-.68.38.34.66-.57l-1.33.17c1.15-1.88-1.49.22-.62-1.71.87,0,.38-.64.89-1.14l-1.46-.92c.05-.34.76-.28.49-.34.09-.68-.75.11-.88,0,.23-.58-1.05-.74-.16-1.89-.36-1.47-1.48,1.2-1.87-.11.4-.8.82.34,1-.68l-1.11-.41c.34-.28,1-1,1.26-.62-1.78-2.74-.36-7.47-3.31-8.16.3-1.08.64-.4,1.28-.8-2.46-.06-.94-3.54-2.4-4.45l-.54.68c-.34-3.59-3.62-4-5.21-6.54l-.09.68c-.79.46-1.35.17-1.94.21.19-.39,1.35-1.3.48-1.49,0,.35,0,.81-.28,1.1-.62-3.23-5.11-5.75-8-8.93-5-2.52-9.57-7.15-14.68-9.21.77.32-.54,2.05-.87,1.33.15-4-2.91-.82-3.35-3.81-3.33-.35-4.52-4.38-8.31-3.06l.38-1c-.2-.6-.6,0-1.05-.1l.13-.26c-.81-.78-2.41-.36-2.76-1.06l-.5,1c-.61-.16.07-.94-.79-.6l.25-.52-1.12.69c.88-1.82-1.54-.85-1.63-1.89-.88,0-2.61.21-3.56-.64.21-1.05-1.15-1.63-1.8-2.48a23.11,23.11,0,0,1-6.26-2.45l-.48,1.23-.58-.16c.12-.26.1-.43.24-.53.16-1.55-1.46-.13-1.53-1.17-.2,1.21.31.34.61.51.21.77-.73,1.74-1.08.88l.12-.26-.69.45c.36-1,.17-1.56.52-2.51-1.91-.57-3.85.52-5.54-.74.65-1-1.46-.31-.3-2-1.42.2-.45,1.55-1.52,2.62-.3-.17-.85.19-.61-.51.33-.37.22-1.22.55-1.27l-.82-.19c0-.17.27-.35.4-.43-2,.39-2.21-2.37-4-1.9-.39.61.46.42.08,1-2,.74-.72-1.71-2.42-1.33l.66-.79c-.69.45-1.2,1.15-1.58.12.35-1.13,1-.62,1.51-1-.45-.25-1.76-.48-1.82.64-.72.11-.51-.93-.69-1.36-.12.26.22.95-.32,1.3-.51-.94-1.71-1.42-2.61-1.92.12-.26.23-.69.37-.79C258.45,220.34,259.56,218,258.39,217.84Z" transform="translate(-120.47 -106.38)"/><path class="cls-1" d="M205.9,201.72l.3.33a1.44,1.44,0,0,1,.53-.69Z" transform="translate(-120.47 -106.38)"/><path class="cls-1" d="M223.6,210.15a1.07,1.07,0,0,0,.26-.23C223.75,209.93,223.67,210,223.6,210.15Z" transform="translate(-120.47 -106.38)"/><path class="cls-1" d="M228.79,210.16c-.42.09-.26.5-.22.84A2.37,2.37,0,0,0,228.79,210.16Z" transform="translate(-120.47 -106.38)"/><path class="cls-1" d="M194.48,200.16a.89.89,0,0,0,.3-.43A.85.85,0,0,0,194.48,200.16Z" transform="translate(-120.47 -106.38)"/><path class="cls-1" d="M166.63,187.24a2,2,0,0,1,0,.21A.24.24,0,0,0,166.63,187.24Z" transform="translate(-120.47 -106.38)"/><path class="cls-1" d="M167.47,189.59a.56.56,0,0,0,.38,0C167.74,189.45,167.6,189.5,167.47,189.59Z" transform="translate(-120.47 -106.38)"/><path class="cls-1" d="M201.48,202.71a.55.55,0,0,0,.44-.21C201.75,202.45,201.6,202.57,201.48,202.71Z" transform="translate(-120.47 -106.38)"/><path class="cls-1" d="M168.28,189.47l.34.29.1-.21Z" transform="translate(-120.47 -106.38)"/><path class="cls-1" d="M166.19,186.89c.14.1.35.19.44.35C166.56,186.86,166.41,186.79,166.19,186.89Z" transform="translate(-120.47 -106.38)"/><path class="cls-1" d="M183.55,197.06h0C184.1,196.73,183.83,196.84,183.55,197.06Z" transform="translate(-120.47 -106.38)"/><path class="cls-1" d="M170.79,188.39l0,.06.24-.24Z" transform="translate(-120.47 -106.38)"/><path class="cls-1" d="M164.67,185.74a.33.33,0,0,0,.28-.11,2.22,2.22,0,0,0-.17-.22A1.79,1.79,0,0,1,164.67,185.74Z" transform="translate(-120.47 -106.38)"/><path class="cls-1" d="M178.36,192.87a3.55,3.55,0,0,0-.53.8C178,193.71,178.12,193.57,178.36,192.87Z" transform="translate(-120.47 -106.38)"/><path class="cls-1" d="M158.89,199.36a4,4,0,0,0,0,.52A1.92,1.92,0,0,0,158.89,199.36Z" transform="translate(-120.47 -106.38)"/><path class="cls-1" d="M180.7,198.22l-.19.3A.3.3,0,0,0,180.7,198.22Z" transform="translate(-120.47 -106.38)"/><path class="cls-1" d="M146,200a.57.57,0,0,0,0-.13l-.88,0Z" transform="translate(-120.47 -106.38)"/><path class="cls-1" d="M226.17,187.93l-.27.12C226,188,226.13,188,226.17,187.93Z" transform="translate(-120.47 -106.38)"/><path class="cls-1" d="M199.24,194.48a.61.61,0,0,1,.25-.45C199.31,194,199.18,194.13,199.24,194.48Z" transform="translate(-120.47 -106.38)"/><path class="cls-1" d="M137.6,189.89l.5.69C138,190.26,137.85,189.94,137.6,189.89Z" transform="translate(-120.47 -106.38)"/><path class="cls-1" d="M125.17,196.11l.09.15A.17.17,0,0,0,125.17,196.11Z" transform="translate(-120.47 -106.38)"/><path class="cls-1" d="M131,197.57a2.08,2.08,0,0,0,.27-.41C131.12,197.22,130.93,197.27,131,197.57Z" transform="translate(-120.47 -106.38)"/><path class="cls-1" d="M131.39,196.93l-.13.23C131.35,197.11,131.42,197.06,131.39,196.93Z" transform="translate(-120.47 -106.38)"/><path class="cls-1" d="M374.61,118.92c.36-.11.43-.77.56-1.33Z" transform="translate(-120.47 -106.38)"/><path class="cls-1" d="M264.59,171.14l.07.32A.43.43,0,0,0,264.59,171.14Z" transform="translate(-120.47 -106.38)"/><path class="cls-1" d="M372.57,112.6l.3,0C372.73,112.56,372.64,112.56,372.57,112.6Z" transform="translate(-120.47 -106.38)"/><path class="cls-1" d="M144.16,186.79c.26-.8,1.15,0,1-.74C144.83,186.22,144.19,185.75,144.16,186.79Z" transform="translate(-120.47 -106.38)"/><path class="cls-1" d="M259.83,142.05l.21-.14A.45.45,0,0,0,259.83,142.05Z" transform="translate(-120.47 -106.38)"/><path class="cls-1" d="M372.57,112.6l-.35-.06c.08.13.15.22.22.32A.34.34,0,0,1,372.57,112.6Z" transform="translate(-120.47 -106.38)"/><path class="cls-1" d="M302.44,153.58h0l0,.16Z" transform="translate(-120.47 -106.38)"/><path class="cls-1" d="M305,153.82l-.34.4C304.87,154.2,304.94,154,305,153.82Z" transform="translate(-120.47 -106.38)"/><path class="cls-1" d="M375.17,117.59l.32-.77A1.61,1.61,0,0,0,375.17,117.59Z" transform="translate(-120.47 -106.38)"/><path class="cls-1" d="M326.69,143.56a.91.91,0,0,0-.17.17A.24.24,0,0,0,326.69,143.56Z" transform="translate(-120.47 -106.38)"/><path class="cls-1" d="M197.43,194.57a2.44,2.44,0,0,0-.24-.1C197.21,194.65,197.26,194.76,197.43,194.57Z" transform="translate(-120.47 -106.38)"/><path class="cls-1" d="M207.32,170.52h0v0Z" transform="translate(-120.47 -106.38)"/><path class="cls-1" d="M206.81,171.69c.31.07.5-.57.51-1.17C207.06,170.61,206.88,170.85,206.81,171.69Z" transform="translate(-120.47 -106.38)"/><path class="cls-1" d="M209.21,170.26l-.13-.06A.28.28,0,0,0,209.21,170.26Z" transform="translate(-120.47 -106.38)"/><path class="cls-1" d="M192.12,174.26l0,.08v-.07Z" transform="translate(-120.47 -106.38)"/><path class="cls-1" d="M195.4,173.15a.9.9,0,0,0,.32.25A.67.67,0,0,0,195.4,173.15Z" transform="translate(-120.47 -106.38)"/><path class="cls-1" d="M216.56,165.3s0,0,0,0a0,0,0,0,0,0,0Z" transform="translate(-120.47 -106.38)"/><path class="cls-1" d="M244.05,147.2c-2.77,1.84-6,5-9.08,6,0,1.69-.91,2.17-1.7,2.91l-.94-1.82-.51.95c-.57-.43.44-.62-.44-1.08l.23,1.29c-.36-.64-2.19.46-1.49-1.47l-3,1.31c-.69.23.29,1.73-.65,1.59-.39-.49.1-.49-.25-1.14-2.8-.44-1,4.74-3.49,4.75l.07-.32c-.15.65-.86.86-.75,1.13,1.05,1.8-.05-1.18,1.05-.32.61,1.62-.44,1.19.1,2.39-.74-.37-.66.66-1.05.94-1.14-.71-1.92.42-3-.63-.16.65,0,2.4-.71,2.77-1.05-1-.33-1.26-1.28-1.43l.24,1c-.68.1-.68-.2-.83-.66-.68.22-.06,1.51-1.14,1.22l.13-1.09c-.49.59-.81.52-1.7.77-.19-.55.17-.65.49-.58-1-1.22-.58.9-.89.84.22.39.89.35.95,1.39-.5,0-.45,1.62-1.17.62l.13-1.08c-.62,1.07,0,1.36-1.21,1.38,0-.1-.08-.32-.13-.53-.22,1.46-1.48.66-2.48.91l.09-.31c-.28.46-.19,1.38-.43,1.39.75.35.7.68,1.07,1.57-1.29-1.3-.48,2.22-2,1.72-.17-.55-.11-1.32.42-.86-.15-1.75-.58-3.13-.12-4.14-.32.53-.77.94-.9.23l.39,1.54a3.61,3.61,0,0,1-.72.2c.21,1,1.1,1.35.67,2.2s-.91-1.4-.79-.69c-.8.94.14,1.75-1,1.58.06-.15.16-.48.29-.36-.9-.38-1.61.84-2.42-.91,0-.43-.2-1,.11-.92l.08.28c.32-1.56-.51.57-.82-1.14.38,1-.66,1.06-1.15,1l.51,1.06c-.36,3.8-.65-2.22-1.94-1.32-.67,1,.44.2.14,1.16-.68,0-1.23-.91-2-.15a4.31,4.31,0,0,1-1.53-2c-.38.67-1.82,0-1.75,1.28,1.26.75.51-1.61,2.11-.33l.08,1.31c-.78.18-1.55,1.11-2.22.82a1.38,1.38,0,0,1,.34.79c-.94.78-.89,2.1-2.06,2.05-.48-1.08.2-1.08.62-1.31-1-.69-.73.15-1.9.1-.35-1,.73-.15.56-1.15l-1.07.66-.06-.2c.31,1.69-.94.13-1.51.82-1.7.47-1.33,2.75-1.92,4.34a1.73,1.73,0,0,1-.58-1.22c.63.61.39.06.42-.41-.53.33-1.72-1.26-1.58-2-.78.73.57.77.15,1.44l-1.28.25c.38.8.87.86.4,1.68-.49.38-.8.29-1.54.42,0-.44-.57-1.22,0-1.31-.43-.23-1-.13-1,.75,1,.56-1.1,1.07-.17,2.22l-1-.56c.18,0,.06-.59.37-.5-.56-1.22-.55.54-.8.73-.34-.17-1.1-.09-1.28-.58-.16.42-.85.29-1.13-.34-.31.35.18.85.18,1.29l-1.3.2a11.8,11.8,0,0,1-.72-3c-.31.78.35,2.14-.39,2.26.08-1.48-1.21-.84-1-2.63a1.6,1.6,0,0,0-2.38-.07c-.14,1.19.85.46,1.08,1.6-1.73.82-1.12,3.95-2.6,3.72l.42.23a2.79,2.79,0,0,0-.92,1.74c-.08-1.45-1.8-3.53-3.12-2.95,0,.73,1.07,1.18,1.09,2.34l-.88.41c-.1-.1,0-.36,0-.56-.73.67-1.94-1.5-1.83.19L166.09,183l.51.81c0,.71-.85,1.12-1,1.43-.79,1-1.27.43-2-.36.28.55,1,1.78.26,2.15-.45-2.29-1.75-.54-2-1.73-.3.09-1-.52-.82.43l-.23-1.43c.32,2-.8,2.13-1.59,2.63-.31-2.73-.89.38-1.72-2,.18,1.86-1.37,1-1.24,2.57-.64.21-.88-1.51-1.14-2.07l-.19.74c-.47-.79-1.72-.72-2.54-1.2l-.41,1.73-.38-.7c0,.43-.56.76-.11,1.31l-.39,0c.26,1.78-.43.57-1.05,1.45a1,1,0,0,1-.12-1c-.37,0-.35-.9-.64-1.46.33.41-.83,3.4.28,4,.19.71-.32,1.34-.73,1.07l-.47-1.56-.18,1.75c-.54.32-.94-.67-1.43-.78.46-.17.6-3.23-.63-3,.62-.3.8-1.24,1.08-1.62-.26,0-.41-.16-.12-.9-.87.64-.17,1-1.09,1.37-.16-1.43-.49-1.85-1.4-2.22l.78,1a1,1,0,0,1-.06.4c.26.12.36.33.49.88-.19,0-.84,1.93-1.13,1.09,1.3,2.08-1.43,2-.61,3.22-.05.43-.71.62-.89-.09.65-1.2-.85-1.53-.87-2.55-.24.46.8,1,.47,1.57-.47.17-1-.66-1.3-1.07l.16-.3-.85-.52c0,.73.92,1.09.28,1.57-.23-.27-.86.21-.93-.36.17-1-.28-2.3.28-2.64-.48.18-2,.61-1.18,1.84l-.6.05c.48.54,1.68,1.45.54,1.84l0-.29-.64,1.22-.48-.68c.07.36,0,.72-.31.75-.15-.42-.47-.54-.55-1.11-.88.22-.67.94-.71,1.37-.48.2-.72-.07-.65-1-.72-.06-1.88.36-2.51-.28-.79.82.25.25-.09,1.32-1.33-2.31-3.3-.27-4.72.46,1,2-.36.36-.09,2.37.14-.77-1.9-1.25-.74-2.22l-.75.46c-.91-1,1.11-1.27-.21-2.62-.94.36-.82,2.82-2.15,2.42-.13-1.61-.68.76-1-1,0-.61.42-.55.7-.78l-.3-.22c-2.23.27,0,1.93-.7,3.32-1.15.63-1.4-.8-1.73-1.46-.31-.22-.85.27-1,.78.42-1.21,1.76.37,1.76,1.42-1.18-1.47-1.86.59-1.89,1.36,2.4,1.06,1.22-.43,3.51.89,0-.6-.57-2.11.61-1.82-.33.95.34.83.58,1-.47-.81.54-.58.71-1,.48.63.1,2.2,1.14,2.25l-.47-2.12c.47.2.32,1.56,1,.83-.09,1.21.63,1.64-.3,2.29,1.77,1.39,1.59-1.53,2.39-2.55-.06.16,0,.44-.06.6.06-.6.45-.68.71-.88.78.32-.27,1.08.06,1.62.34-.12.68-.21,1-.32a.9.9,0,0,1,.07.14c.2-.35.41-.61.63-.11-.14.75-.09,1.48-.15,2.08l.72-1.72c0,.72,1.16,1,.52,1.67l1.51-.64.44,1.4c.32-.33.28-.61-.21-.7.59.22,1.91-3,2.17-.1,1-1.42,1.57-1,3-2-.94,1.52,1.63,1.46.49,2.28.83.51.72-1.08,1.26-1.41a2.21,2.21,0,0,1,.13,2.6l.57-.76,0,.29.46-.91c.75.67.35,1.42,1,1.52l-.06-1.29.56.68c-.26-.56.09-.88.55-1.05l0,.29.54-.33c-.46.86.57.2.44,1.15.51,0,.51,0,1.38-.39l-.29-.85c1.06-.93.24,1.29,1.2,1.22l-.21-1c1.62,1.48,2.18-1.3,3.36-.38-.54.33-.21,1.47-.25,1.18.82-.51,2.3-.47,3-1.82.57,1.4.72,1.82,1.77,2.32.67-.19.74-.36.82-1.23.75.44,1.84-.61,2.06.44,0-.87.62.06.86-.71l.15.42-.24-1c1.58,2,1.73-1.59,3.27.12l-.15.3.42-.48c.16.42,0,.73.09,1.3l2.34-.26-.6-.66c.47-.2.6-1.23,1.27-.72-.62,1.67.78-.09,1.16,1l-.42.49c.66-.23.66-.23.4-1.22.8-.52,1,1.78,1.58.54l-.59.07c-.29-.54,0-1.44.34-1.5.13.14.49.52.22.71.61-.52,1.75-.23,2-.69a1.09,1.09,0,0,1,.33,1.27c1.28-1.18.71,0,2-1.13l.1.57.35-.78,1,1-.42-.67c.46-.21.67-.68,1.3-.48l0,.88c1.25-.77,1.9,1,2.92-.42.12.13,0,.44-.09.59.89-1.58,1.26,1.29,2.09-.61,0,.3.21.62.22.87l.41-.68.24,1.13,0-1.76L182,198l.08-.59c1.12,2,1.55.18,2.76,1.6l-.5-1.39c1.26-3.42,5.05.45,7.13-1.56l.27,1.13.64-1.6c.78.73-.06,1.05.26,1.57.91-.91,0-1.77,1.15-2.43.85.57,0,.88-.18,1.36,1-.88,2.56-2,3.57-1.6,0-.15,0-.36-.1-.41.63-.73,1.8-.54,2.63-.86a.67.67,0,0,1-.23.83c.32,0,.85.2,1-.4l0,1.05c.72,0,1.72-1.25,2.21-.18-.21-.4-.43-1.24.15-1.37.84,1.59,1.31-1.19,2.5-.57,0,.43-.61.73-.42.69.6.3.75-.62,1-1.26l.1.71,1.81-1.6c.86,1.57,1.89-.92,2.16.36.77-.2-.88-.53,0-1,.49.61.75-.63,1.07.47l-.05.17.63-.31L211.5,192a2.74,2.74,0,0,0,.29-2.46c.75.41,1.35-.33,1.93.56l-.11.33c1.36-1,3.55,2.05,4.09-.19.15.12.23.39,0,.44l1-.26.06.88,1.1-1.79.18.55a15,15,0,0,0,3.84-1.69l-.09.33c1.11-1.37,1.58,0,2.39-1a.52.52,0,0,1,0,.28l.93-.39v.6c.24-1.43,2.59.73,1.77-.08a5.1,5.1,0,0,0,.48-2.25c1-.46.52.59,1.34.8.76-.25.51-1.23,1.7-1.15l.2.54c.43-.29.56-.79,1.18-1.13l-.09.33c.59-1.56,2,1,1.83-1.64.63.24,1.32-.45,1.73.63a23.57,23.57,0,0,1,3-3c1,1.65.23-.23,1.45.42l-.47-.91c1.77-.92,4.89.43,6.72-.86l.48.9-.07-1.21a41.06,41.06,0,0,0,7-2.28c.32-.75.62-2.25,1.65-2.34l0,.17a8.23,8.23,0,0,1,4.55-2.7c.09.44.39.63.33,1-.11-1.21.93-.53,1.29-.67l-.74-.48c0-1.1,1.11-.59,1.67,0l.25-1.34a1,1,0,0,1,.32.31l-.11-.54,1,1a3.63,3.63,0,0,0,.6-2.42c.27.36,1.11.34.69.82l2.83-.95-.62-.23c-.51-.88,0-1.86.62-1.64-.17,1,.6,1.32,1.16,1.88.12-.67-.71-.66-.77-1.25.15-.84.95-1.62,1.4-1.33l-.09.5c.44-.64,1.51.81,2.08.43.17-1,.91-.52,0-2,.63-.71.83.91,1.16.94,0-.93,1.33-1,1.86-.25-.71-2.52,2.5-.2,1.71-2.21l1.18.78c-.24-.53-.68-1.76-.26-2.22.76.32,1.08,1.29,1.49,1.75l-.61-2.09c3.81.7,6.84-2.44,10.7-2.13,1.17-1,2.49-2.74,4.23-3.18l-.07.33,1.84-.19-1.57-.37c.25-.39.35-.89.71-1,2.13,0,4.91,0,6.67-2,.44-2.89,1.81,1.61,2.46-.63,0,.26.07.6.06.87a15.77,15.77,0,0,0,2.68-4.08c.79,2.32.94-.46,1.31.78l-.26-1c.56.42,1.42.3,1.59,1l.17-1.42.45.92c.9-.29,2.44-1.85,3.7-.12,1.56-2.32,5.15-3.31,8-4.06.06-.93.83-1.33,1.42-1.66l1.13.85c.49-.61.58-2.3,1.47-1.82a.57.57,0,0,1,.05.32c.55-.5,1.41-.15,1.59-1.44a1.43,1.43,0,0,1,1.88,1.22c-.7-1.9,1.61-.35,1.61-.35a171.15,171.15,0,0,0,19.68-6.9c10.13-4.31,20.78-10.27,23.16-17.17-.07-1,.51-2-.25-3,.5-.61,1.45.91,1.2-.07-1.11-.27-.7-2.51-2-3.32l.45-.44c-.16-.71-.44,1-.79-.21l.55,1.8a1.93,1.93,0,0,1-1.33-.87c-.14.84.54,3.3-.86,2.68l.23-.22c-.77.39-.94-.92-1.22-1.13l.18-.06-1-.6c.75.38,1-1.37.63-1.09-1.15-.09.42.32-.22.82-.41.27-.65-.7-.85-1.25l-.78.4c-.29-.82.55-.18-.11-.88l-.66,1.27c-1-2-.71,1.43-1.94-.3.53-.78-.35-.66-.5-1.37l-1.73.85c-.29-.22.21-.82,0-.61-.56-.42-.35.72-.53.78-.39-.49-1.32.57-1.82-.8-1.58-.41.18,1.92-1.26,1.61-.48-.76.82-.56,0-1.2l-1.05.77c-.06-.44-.31-1.41.2-1.42-3.6.21-7.07-3.4-9.51-1.12-.81-.81,0-.77.05-1.53-1.56,2.14-3.82-.93-5.56-.09l.3.82c-3.5-1.48-5.88,1.24-9.11,1.35l.57.42c-.07.93-.66,1.27-1,1.82-.24-.38-.37-1.85-1.05-1.18.29.21.75.37.81.8-3.26-1.09-8.13,1.51-12.5,2.12-5.09,2.81-11.54,3.62-16.63,6.31.78-.4,1.25,1.72.46,1.51-3.06-2.66-2.65,1.76-5.31.19-2.63,2.37-6.64.65-8.42,4.45l-.46-.92c-.62-.24-.46.46-.87.75l-.1-.27c-1.22.11-2.1,1.63-2.91,1.45l.42,1.08c-.59.36-.68-.68-1.07.21l-.21-.54-.32,1.34c-.75-1.88-1.86.64-2.73,0-.68.7-1.88,2.19-3.29,2.39-.66-.84-2.18-.13-3.38-.16a32.31,32.31,0,0,1-6.86,3.5L271,137l-.58.37c-.12-.26-.27-.36-.24-.53-1.12-1.11-1.22,1.1-2.12.51.83.92.51,0,.88-.19.78.32.85,1.7-.12,1.44l-.11-.27-.17.85c-.5-.9-1.13-1.12-1.62-2-1.93,1.21-2.52,3.46-4.8,4-.29-1.13-1.35,1-1.81-1-.91,1.28.91,1.34,1,2.88-.36.14-.48.81-.86.18-.05-.51-.82-1-.62-1.25l-.76.55c-.14-.1-.08-.44-.05-.6-1.17,1.86-3.55.31-4.53,2.09.21.69.68-.12.89.58-.86,2.05-1.9-.49-2.85,1.12l-.14-1c-.15.83,0,1.69-1.07,1.34-.65-1,.21-1.16.33-1.83-.54.21-1.69,1.12-.83,1.87-.44.65-1.12-.18-1.59-.3.11.26.91.42.79,1.08-1.12-.19-2.39.47-3.44.86-.12-.26-.38-.62-.36-.79C246.08,148.75,245,146.37,244.05,147.2Z" transform="translate(-120.47 -106.38)"/><path class="cls-1" d="M191.65,174.22l.47,0a1.42,1.42,0,0,1,0-.87Z" transform="translate(-120.47 -106.38)"/><path class="cls-1" d="M212,168.27a1.61,1.61,0,0,0,0-.35A.33.33,0,0,0,212,168.27Z" transform="translate(-120.47 -106.38)"/><path class="cls-1" d="M216.12,164.55c-.25.37.17.54.44.75A1.82,1.82,0,0,0,216.12,164.55Z" transform="translate(-120.47 -106.38)"/><path class="cls-1" d="M180.84,180.4a.78.78,0,0,0,0-.52A.87.87,0,0,0,180.84,180.4Z" transform="translate(-120.47 -106.38)"/><path class="cls-1" d="M147.9,186.24s.09.08.16.16A.35.35,0,0,0,147.9,186.24Z" transform="translate(-120.47 -106.38)"/><path class="cls-1" d="M150,187.76a.59.59,0,0,0,.35-.23C150.19,187.5,150.09,187.61,150,187.76Z" transform="translate(-120.47 -106.38)"/><path class="cls-1" d="M188.56,177.87a.58.58,0,0,0,.24-.45A.47.47,0,0,0,188.56,177.87Z" transform="translate(-120.47 -106.38)"/><path class="cls-1" d="M150.7,187.22l.48,0,0-.22Z" transform="translate(-120.47 -106.38)"/><path class="cls-1" d="M147.29,186.19a1.78,1.78,0,0,1,.61.05C147.62,186,147.43,186,147.29,186.19Z" transform="translate(-120.47 -106.38)"/><path class="cls-1" d="M169.19,184.68s0,0,0,0C169.48,184.08,169.3,184.33,169.19,184.68Z" transform="translate(-120.47 -106.38)"/><path class="cls-1" d="M152.4,184.92l.07,0,.08-.34Z" transform="translate(-120.47 -106.38)"/><path class="cls-1" d="M145.2,186.05a.38.38,0,0,0,.2-.25l-.29-.09A2.18,2.18,0,0,1,145.2,186.05Z" transform="translate(-120.47 -106.38)"/><path class="cls-1" d="M161.94,184.34a3.74,3.74,0,0,0,0,1C162.09,185.26,162.15,185,161.94,184.34Z" transform="translate(-120.47 -106.38)"/><path class="cls-1" d="M345.47,131.53l-.52,0A2.4,2.4,0,0,0,345.47,131.53Z" transform="translate(-120.47 -106.38)"/><path class="cls-1" d="M342.55,146.07l-.26-.16A.27.27,0,0,0,342.55,146.07Z" transform="translate(-120.47 -106.38)"/><path class="cls-1" d="M346.62,122.83l.12,0,.07-.61Z" transform="translate(-120.47 -106.38)"/><path class="cls-1" d="M339.63,177l0-.19C339.6,176.86,339.55,176.92,339.63,177Z" transform="translate(-120.47 -106.38)"/><path class="cls-1" d="M341.66,158.65a.53.53,0,0,1,.37.24C342.07,158.77,342,158.67,341.66,158.65Z" transform="translate(-120.47 -106.38)"/><path class="cls-1" d="M357.76,117.88l-.76.27A1,1,0,0,0,357.76,117.88Z" transform="translate(-120.47 -106.38)"/><path class="cls-1" d="M354.38,109.2l-.17,0A.31.31,0,0,0,354.38,109.2Z" transform="translate(-120.47 -106.38)"/><path class="cls-1" d="M351.43,112.73a1.76,1.76,0,0,0,.35.24C351.75,112.87,351.75,112.73,351.43,112.73Z" transform="translate(-120.47 -106.38)"/><path class="cls-1" d="M352,113.08l-.19-.11C351.8,113,351.84,113.09,352,113.08Z" transform="translate(-120.47 -106.38)"/><path class="cls-1" d="M345.52,288.73c0,.26.55.46,1,.69Z" transform="translate(-120.47 -106.38)"/><path class="cls-1" d="M339.86,204.84l-.31,0A.56.56,0,0,0,339.86,204.84Z" transform="translate(-120.47 -106.38)"/><path class="cls-1" d="M352.15,289l-.16.18C352.12,289.08,352.16,289,352.15,289Z" transform="translate(-120.47 -106.38)"/><path class="cls-1" d="M359.94,122.47c.76.23-.12.78.61.75C360.42,123,361,122.56,359.94,122.47Z" transform="translate(-120.47 -106.38)"/><path class="cls-1" d="M368.17,210.12l0,.17A.22.22,0,0,0,368.17,210.12Z" transform="translate(-120.47 -106.38)"/><path class="cls-1" d="M352.15,289l.18-.21-.38.06C352.06,288.87,352.13,288.92,352.15,289Z" transform="translate(-120.47 -106.38)"/><path class="cls-1" d="M340.15,233.87h0l-.14-.05Z" transform="translate(-120.47 -106.38)"/><path class="cls-1" d="M339,235.43l-.25-.32C338.64,235.29,338.77,235.37,339,235.43Z" transform="translate(-120.47 -106.38)"/><path class="cls-1" d="M346.55,289.42l.59.39A1.28,1.28,0,0,0,346.55,289.42Z" transform="translate(-120.47 -106.38)"/><path class="cls-1" d="M340.35,252a.65.65,0,0,0-.1-.15C340.24,251.92,340.28,252,340.35,252Z" transform="translate(-120.47 -106.38)"/><path class="cls-1" d="M342.07,157.47a1,1,0,0,0,.15-.14C342.05,157.32,341.93,157.33,342.07,157.47Z" transform="translate(-120.47 -106.38)"/><path class="cls-1" d="M362.25,168.4Z" transform="translate(-120.47 -106.38)"/><path class="cls-1" d="M361.31,167.81c-.16.2.38.46.94.59C362.25,168.21,362.08,168,361.31,167.81Z" transform="translate(-120.47 -106.38)"/><path class="cls-1" d="M361.9,169.73l.09-.08C361.94,169.68,361.91,169.7,361.9,169.73Z" transform="translate(-120.47 -106.38)"/><path class="cls-1" d="M363.05,157.33h0Z" transform="translate(-120.47 -106.38)"/><path class="cls-1" d="M363.24,159.78a.84.84,0,0,0-.33.17A.73.73,0,0,0,363.24,159.78Z" transform="translate(-120.47 -106.38)"/><path class="cls-1" d="M364.17,175.76h0a0,0,0,0,0,0,0Z" transform="translate(-120.47 -106.38)"/><path class="cls-1" d="M370.26,198.7c-.49-2.31-2.08-5.27-1.7-7.58-1.55-.46-1.62-1.19-2-1.91l2-.13-.67-.6c.61-.26.39.46,1.16,0l-1.28-.2c.73-.07.45-1.58,1.94-.59l0-2.38c0-.52-1.71-.26-1.22-.85.59-.14.41.19,1.14.13,1.48-1.78-4-1.91-3.12-3.56l.28.13c-.55-.26-.5-.79-.79-.79-2.05.26,1.12.27-.08.79-1.73,0-.95-.59-2.26-.53.61-.39-.38-.59-.49-.92,1.07-.59.28-1.38,1.63-1.84-.56-.26-2.27-.53-2.35-1.12,1.34-.46,1.3.07,1.79-.53l-1-.06c.14-.48.43-.41.9-.41,0-.51-1.39-.39-.76-1l1,.33c-.4-.46-.23-.66-.16-1.32.58,0,.54.27.38.46,1.48-.39-.66-.59-.5-.79-.44.07-.63.53-1.62.33.17-.33-1.38-.65-.2-.92l1,.33c-.8-.66-1.27-.33-.9-1.12a2.55,2.55,0,0,0,.54,0c-1.3-.46-.15-1.14-.08-1.87l.28.13c-.35-.28-1.25-.42-1.19-.58-.56.43-.86.32-1.83.39,1.65-.6-1.94-.79-1-1.71.57,0,1.28.19.67.46,1.71.26,3.16.26,4,.78-.4-.33-.65-.72.07-.66l-1.59-.06c0-.21.05-.37,0-.53-1-.06-1.63.46-2.3,0-.52-.52,1.62-.33.9-.39-.64-.72-1.7-.26-1.2-1,.13.07.41.2.26.27.63-.53-.31-1.25,1.59-1.45.43.06,1,.06.85.26h-.29c1.39.52-.39-.46,1.33-.33-1,.07-.81-.66-.63-1l-1.17.14c-3.51-1,2.32,0,1.84-1.06-.8-.66-.32.26-1.15-.13.19-.46,1.23-.66.7-1.32a5.57,5.57,0,0,1,2.38-.66c-.54-.39.56-1.25-.72-1.45-1.08.73,1.38.65-.3,1.51l-1.28-.19c.06-.56-.6-1.26-.15-1.67a1.88,1.88,0,0,1-.85.09c-.5-.79-1.79-1-1.42-1.77,1.17-.14,1,.33,1.09.66.92-.53.06-.53.42-1.32,1-.07,0,.52,1,.59l-.34-.86H363c-1.72-.08.13-.67-.4-1.18,0-1.25-2.32-1.38-3.7-2a2.3,2.3,0,0,1,1.32-.2c-.75.33-.16.26.29.35-.19-.42,1.65-1,2.35-.76-.51-.65-.9.27-1.44-.12l.09-.92c-.87.13-1.05.46-1.73,0-.25-.39-.09-.59,0-1.12.43.07,1.32-.2,1.28.19.32-.26.35-.65-.5-.78-.78.59-.78-.92-2.12-.45l.77-.6c0,.13.57.13.41.33,1.32-.2-.39-.46-.52-.66.25-.21.35-.73.86-.79-.37-.17-.09-.63.58-.73-.27-.26-.87,0-1.3-.06l.09-.92a16.34,16.34,0,0,1,3.05-.08c-.69-.32-2.17-.06-2.11-.58,1.42.26,1.07-.73,2.78-.34a1,1,0,0,0,.58-1.65c-1.13-.26-.62.53-1.78.53-.45-1.31-3.64-1.3-3.11-2.28l-.32.26a2.62,2.62,0,0,0-1.51-.85c1.43.12,3.84-.81,3.5-1.79-.72-.07-1.36.6-2.5.47l-.23-.66a.89.89,0,0,1,.54.1c-.53-.58,1.83-1.17.15-1.28l2.08-.67-.89.26c-.71-.06-.94-.72-1.22-.84-.81-.66-.2-.93.7-1.33-.59.14-1.93.48-2.16,0,2.32-.07.83-1.15,2-1.17,0-.21.68-.62-.28-.62H360c-2,0-1.95-.78-2.32-1.37,2.74.05-.23-.66,2.26-1-1.87-.06-.77-1-2.36-1.11-.1-.46,1.63-.47,2.23-.6l-.7-.2c.86-.26,1-1.13,1.55-1.67l-1.65-.43.74-.2c-.42-.07-.68-.46-1.28-.19l.09-.26c-1.8,0-.51-.35-1.29-.85a1.38,1.38,0,0,1,1,0c0-.26.93-.18,1.53-.34-.46.2-3.25-.83-4-.1-.73.07-1.28-.32-1-.59l1.61-.21-1.71-.25c-.25-.39.77-.59.95-.92.11.32,3.12.63,3.06-.22.22.44,1.13.63,1.47.85.06-.18.21-.27.91,0-.53-.65-1-.19-1.23-.84,1.45,0,1.91-.21,2.38-.81l-1,.47a1.84,1.84,0,0,1-.39-.07c-.16.17-.38.22-.93.28,0-.14-1.82-.71-.94-.85-2.23.74-1.78-1.11-3.12-.64-.43-.06-.53-.52.2-.59,1.11.52,1.63-.47,2.64-.42-.42-.19-1.06.47-1.61.21-.11-.32.77-.59,1.22-.79l.28.13.63-.54c-.72-.06-1.21.54-1.6.08.3-.13-.09-.59.49-.6,1,.2,2.31,0,2.57.38-.11-.33-.31-1.38-1.65-.91l0-.4c-.61.27-1.68,1-1.91.22h.29l-1.11-.52.74-.27c-.36,0-.7-.05-.68-.26a4.79,4.79,0,0,1,1.18-.27c-.1-.59-.83-.52-1.25-.58-.11-.33.19-.47,1-.34.18-.46,0-1.25.72-1.59-.67-.58-.3.14-1.29-.18,2.51-.61.91-2.05.56-3-2.19.34-.25-.26-2.27-.38.7.19,1.68-1,2.33-.15l-.25-.52c1.2-.41.94.84,2.58.24-.09-.6-2.52-.9-1.73-1.63,1.57.18-.53-.52,1.19-.41.57.13.41.33.54.52l.3-.13c.41-1.32-1.86-.32-3-1-.23-.79,1.21-.67,1.94-.74.3-.14.05-.53-.37-.72,1,.45-.95.93-1.94.74,1.77-.41.11-1.19-.6-1.38-1.85,1.2-.07.79-2.05,1.93.56.12,2.16,0,1.52.71-.8-.38-.89,0-1.14.18.91-.16.39.43.78.61-.74.2-2.13-.31-2.48.35l2.16,0c-.32.26-1.59-.06-1,.47-1.14-.26-1.75.14-2.12-.57-1.82.93,1,1.3,1.85,2-.14-.06-.43-.06-.58-.13.58.13.55.39.68.59-.47.46-1-.32-1.57-.18l.07.72-.15,0c.3.18.5.36,0,.44-.7-.19-1.43-.25-2-.38l1.52.71c-.71-.06-1.21.67-1.74.15l.33,1.11-1.46.15c.27.26.56.26.73-.07-.33.39,2.6,1.62-.28,1.51,1.23.84.76,1.18,1.53,2.22-1.37-.78-1.68,1-2.33.15-.62.53,1,.59,1.22,1a3,3,0,0,1-2.59-.11l.68.45h-.29l.83.39c-.77.47-1.46.14-1.65.61l1.3,0-.75.33c.59-.13.86.13,1,.46h-.29l.26.39c-.8-.37-.27.38-1.2.23-.05.34,0,.35.22,1l.88-.14c.79.79-1.31.08-1.37.74l1-.08c-1.68,1,1,1.57-.06,2.31-.25-.4-1.43-.26-1.14-.26.39.59.15,1.58,1.39,2.16-1.46.27-1.9.34-2.54,1,.1.46.24.53,1.1.65-.56.47.31,1.28-.76,1.34.85.08-.16.41.57.63l-.44.07,1-.07c-2.25.87,1.32,1.31-.64,2.17l-.27-.13.4.33a8.85,8.85,0,0,1-1.3-.06l-.14,1.58.75-.34c.12.33,1.11.52.49.92-1.53-.58,0,.53-1.21.66l-.41-.32c.1.46.1.46,1.13.39.37.59-1.93.47-.82,1l0-.4c.59-.13,1.44.12,1.42.39-.16.06-.61.26-.74.07.4.46-.1,1.18.31,1.38a1.55,1.55,0,0,1-1.31.07c.92,1-.18.46.73,1.44h-.58l.7.33-1.21.53.74-.2c.12.33.53.52.2.92l-.85-.13c.49.92-1.41,1.12-.18,2-.16.07-.43-.06-.57-.13,1.37.78-1.51.67.15,1.45-.29,0-.64.06-.89,0l.57.36H342l1.71.25-1.18.27.56.13c-2.21.47-.53,1-2.17,1.59l1.46-.14c3.06,1.3-1.61,3.22-.17,4.86H341l1.38.65c-.9.4-1-.19-1.58-.06.65.72,1.71.26,2.06,1.11-.77.46-.85-.13-1.27-.32.59.79,1.26,2,.62,2.55a1.59,1.59,0,0,0,.43,0c.53.52,0,1.24.12,1.83-.53,0-.62-.14-.74-.28-.06.21-.42.51.13.68l-1-.2c-.18.46.75,1.32-.42,1.45.44-.07,1.31-.07,1.27.33-1.77.26.77,1-.17,1.7-.42-.06-.52-.52-.54-.39-.46.33.38.59.93.85l-.71-.06,1,1.44c-1.76.27.29,1.38-1,1.31,0,.53.77-.46,1,.2-.74.2.37.59-.78.59l-.14-.06.1.46-1.13-.26a3.39,3.39,0,0,0,2.25.65c-.62.39-.09.92-1.12,1.12l-.27-.14c.47,1.05-3.08,1.85-1.13,2.63-.16.07-.44.07-.43-.06l-.06.65-.85-.13,1.34,1h-.58a6.54,6.54,0,0,0,.31,2.76l-.28-.13c.92,1-.53,1,.12,1.7-.15,0-.21,0-.24-.07l0,.67-.57-.14c1.26.46-1.59,1.45-.54,1.12a6.23,6.23,0,0,0,1.94.79c.08.72-.74.19-1.22.65,0,.53,1,.59.45,1.32h-.58c.12.33.53.52.63,1l-.28-.13c1.23.72-1.68,1,.86,1.51-.46.33-.08.92-1.24.92a12.51,12.51,0,0,1,1.62,2.56c-1.89.19.13.19-.94.79l1-.07c.17,1.31-2.31,2.89-1.87,4.33l-1,.06,1.13.27a19.55,19.55,0,0,0-.78,4.85c.54.4,1.78,1,1.43,1.65l-.15-.07a3.84,3.84,0,0,1,.51,3.55c-.43-.07-.73.06-1-.07,1.14.26.08.72.05,1l.76-.32c1,.33.06.85-.69,1l1.11.53a1.42,1.42,0,0,1-.42.11l.54.09-1.34.32a3.46,3.46,0,0,0,1.93,1.06c-.45.06-.79.59-1,.19l-.35,2,.47-.33c1-.06,1.67.53,1.21.86-.83-.4-1.44,0-2.19.19.56.26.9-.26,1.46-.13.69.33,1.05,1.06.6,1.25l-.41-.2c.38.46-1.38.72-1.29,1.18.83.4.08.72,1.83.6.37.59-1.19.25-1.35.45.84.27.32,1.12-.57,1.24,2.58.28-.89,1.64,1.27,1.72l-1.21.52c.58,0,1.88.07,2.12.47a6.64,6.64,0,0,1-2.22.44l2.16.21c-2.26,2.22-.67,5.05-2.52,7.47.47,1.05,1.49,2.37,1.21,3.62l-.28-.13-.56,1.24,1-.92c.26.27.68.47.65.73-.87,1.37-1.92,3.2-.8,4.84,2.49,1-2.18.76-.36,1.76-.23-.09-.58-.11-.83-.19a11,11,0,0,0,2.75,2.78c-2.45-.08.07.73-1.22.65l1,.08c-.61.26-.81.84-1.53.77l1.25.47-1,.06c-.07.65.8,2-1.27,2.42,1.57,1.58,1.15,4.14.79,6.17a1.41,1.41,0,0,1,1,1.32l-1.21.52c.38.46,1.93.93,1.15,1.38a.83.83,0,0,1-.31,0c.26.47-.38.94.75,1.36-.06.53-.69,1-1.83.91,2,0-.27,1.11-.27,1.11a80.78,80.78,0,0,0-.88,14.26c.25,7.54,1.87,15.87,7.4,19.08,1,.21,1.65.81,2.83.57.39.46-1.38.7-.38.78.66-.65,2.59.17,3.83-.47l.24.39c.72.08-.81-.53.48-.45l-1.87-.09a2.13,2.13,0,0,1,1.3-.64c-.73-.29-3.26-.46-2.17-1.2l.12.2c-.08-.6,1.2-.38,1.5-.51v.13l.93-.51c-.62.39.9,1,.79.67.51-.72-.45.19-.69-.34-.1-.33.9-.25,1.48-.24l-.08-.59c.87,0,0,.39.85.14l-.93-.74c2.19-.17-1.06-.8,1-1.17.52.53.74-.06,1.45,0l-.14-1.32c.3-.12.68.34.56.14.61-.25-.53-.4-.52-.53.6-.12,0-1,1.42-1,1-.91-1.85-.35-1-1.2.88-.12.21.66,1.12.28l-.34-.86c.43.07,1.44.15,1.25.48,1.14-2.36,5.77-3.68,4.56-5.8,1.05-.32.71.2,1.4.41-1.42-1.53,2.28-2.21,2.13-3.53h-.86c2.66-1.88,1-4.07,2.12-6.17l-.61.26c-.84-.27-.93-.73-1.33-1.07.44-.06,1.86.22,1.49-.38a1.84,1.84,0,0,1-1.05.32c2.23-1.82,1.62-5.58,2.66-8.53-.73-4,.9-8.29.3-12.18.08.59-2.07.37-1.58-.08,3.61-1.29-.65-2.12,1.81-3.41-1.21-2.25,1.9-4.34-.92-6.4l1-.06c.47-.32-.25-.4-.36-.73h.29c.37-.79-.68-1.72-.2-2.18h-1.16c-.1-.46.89-.25.22-.72H369l-1.1-.53c2,0,.13-1.32,1-1.71-.37-.59-1.27-1.72-.88-2.64,1-.19,1-1.31,1.52-2a13.8,13.8,0,0,1-.34-5.14l-1.31.06-.09-.46c.28,0,.43-.06.58,0,1.48-.39-.48-1.05.43-1.44-1.18.25-.18.32-.2.59-.62.39-1.89.05-1.26-.47h.29l-.69-.33c1-.06,1.49-.39,2.5-.45-.27-1.52-2.05-2.51-1.6-4.09,1.14.14-.31-1.12,1.68-.85-.77-.93-1.61.19-3-.21,0-.26-.52-.53.21-.59.48.11,1.21-.24,1.39,0l-.17-.63a.89.89,0,0,1,.57.14c-1.18-1.26,1.24-2.3.06-3.43-.72-.07-.19.46-.91.4-1.48-1.13,1.27-1.06.21-2.11l1,.2c-.69-.33-1.55-.47-.76-1.06,1.17-.12,1,.47,1.51.73a1,1,0,0,0-1.33-1.05c-.4-.47.64-.66.95-.92-.29,0-.77.45-1.31.19a3.89,3.89,0,0,0,.68-2.44,4.05,4.05,0,0,1,.86,0C368,199.55,370.61,199.56,370.26,198.7Z" transform="translate(-120.47 -106.38)"/><path class="cls-1" d="M363.22,157l-.17.32a1.86,1.86,0,0,1,.84.14Z" transform="translate(-120.47 -106.38)"/><path class="cls-1" d="M362.89,172.05a2.49,2.49,0,0,0,.32.1A.44.44,0,0,0,362.89,172.05Z" transform="translate(-120.47 -106.38)"/><path class="cls-1" d="M365,175.64c-.26-.25-.56,0-.86.12A2.63,2.63,0,0,0,365,175.64Z" transform="translate(-120.47 -106.38)"/><path class="cls-1" d="M359.89,148.6a1,1,0,0,0,.51.06A1.08,1.08,0,0,0,359.89,148.6Z" transform="translate(-120.47 -106.38)"/><path class="cls-1" d="M360,125.07l-.17.1A.26.26,0,0,0,360,125.07Z" transform="translate(-120.47 -106.38)"/><path class="cls-1" d="M358.23,126.43c0,.07,0,.15.17.26C358.46,126.57,358.37,126.49,358.23,126.43Z" transform="translate(-120.47 -106.38)"/><path class="cls-1" d="M360.48,154.28c0,.09.13.17.38.24C360.83,154.38,360.66,154.32,360.48,154.28Z" transform="translate(-120.47 -106.38)"/><path class="cls-1" d="M358.67,127l-.11.34h.22Z" transform="translate(-120.47 -106.38)"/><path class="cls-1" d="M360.14,124.65a.9.9,0,0,1-.13.42C360.32,124.9,360.32,124.77,360.14,124.65Z" transform="translate(-120.47 -106.38)"/><path class="cls-1" d="M358.15,140s0,0,0,0C358.68,140.29,358.47,140.14,358.15,140Z" transform="translate(-120.47 -106.38)"/><polygon class="cls-1" points="240.23 21.94 240.19 21.99 240.51 22.07 240.23 21.94"/><path class="cls-1" d="M360.55,123.22a.31.31,0,0,0,.22.16,1,1,0,0,0,.12-.19Z" transform="translate(-120.47 -106.38)"/><path class="cls-1" d="M359.79,135a5.14,5.14,0,0,0-1-.1C358.86,135.05,359.06,135.11,359.79,135Z" transform="translate(-120.47 -106.38)"/></svg>