<svg id="Capa_1" data-name="Capa 1" xmlns="http://www.w3.org/2000/svg" viewBox="0 0 1080 1080"><defs><style>.clsM-1{fill:#fc0b0b}</style></defs><path class="clsM-1" d="M1080,1080H0V0H1080ZM61.8,1045.91c5.4-1.23,10.45-2.44,15.52-3.54,3.8-.82,4.5-2.89,2.8-6.19-1.55-3-.69-5.58,2.6-6,6.16-.87,12.42-1.11,19.94-1.72l-6.83,5.91.79,1,8.57-4.49a43.19,43.19,0,0,0,5,2.84,23.06,23.06,0,0,0,4.43.9l.31-5.13c3.15-1.45,6.82-3.46,10.7-4.85,7.4-2.64,13.27.62,15.1,8a29.37,29.37,0,0,0,1.09,2.88l8-9.83c6.26,3,12.1,1.26,17.94-1.12a36.89,36.89,0,0,1,9-2.89c2.84-.36,5.82.44,9.9.85l-8.35,3.71.55,1.37,5.84-.55c-1.12,2.42-2.13,4.59-3.13,6.76l1.11,1.07c3.4-1.13,6.81-2.23,10.19-3.41,8.31-2.92,16.58-5.93,24.92-8.76,1.51-.51,4.19-1.06,4.74-.35,3.95,5.06,9.62,2.48,14.35,3.87.47-2.84,5.8-6.51,7.37-5,2.36,2.19,4.25,4.88,6.89,8,1.56-1,4.38-1.82,5.08-3.5,3.07-7.39,8.89-8.46,15.75-8a19.18,19.18,0,0,0,4.47-.4c6.92-1.18,13.31-2,18.81,4.59,3.22,3.85,5.63,2.73,8.14-1.86,3.05-5.57,6.73-7.09,12.9-5,3,1,5.78,2.53,8.74,3.63,4,1.51,8.1,3,12.24,4.14a5.42,5.42,0,0,0,4.24-.53c3.05-2.35,5.77-5.11,8.65-7.75,6.7,5.61,13.57,4.11,20.62,3.43,3.93-.38,8.87.29,11.87,2.5s5.34,3.06,8.42,1.7a51.54,51.54,0,0,0,6.21-3.76l4.2,7.39.16-1.39c5-.14,11.06-2.14,14.65,0,5.11,3.07,9.92.49,14.31,2,6.33,2.18,9-1.68,12.16-5.39.14-.16.49-.14-.16,0l5.35,9.44,3.73-1.46c.14,1.56.24,2.8.36,4.12,5.15-2,5.86-4.41,3.2-10.12,2.8-3.38,5.52-6.06,9.55-1.12.63.77,3.74.69,4.62-.14,1.55-1.48,2.12-3.93,3.37-5.8,1-1.46,2.34-3.69,3.57-3.72,1.67,0,4.24,1.3,4.92,2.75,1.82,3.94,4,5.67,8.08,3.1l2.48,5.37,5.48-8,33.75,9.24c-.2-1.59-.09-2.2-.34-2.54-1.7-2.27-3.15-4.51-.23-6.91s5.69-2.32,8.55.1c1.52,1.29,3.18,2.41,4.81,3.56.15.1.53-.13,1-.24-.17-1-.35-2.11-.59-3.61l12.59,2c-.22,1.61-.37,2.77-.53,3.91h10l-3.72-3,11.69-5.81c3.73-1.85,7.51-2.91,11.36-.35,2.85,1.9,2.37,3.66-.19,5.46-1.5,1-2.82,2.34-4.23,3.53,5.61,6.16,20.22,1.9,26.45-4.4,8.21,5.78,17.06,4.07,25.82,1.47,8.46-2.5,16-3.06,20.6,6.54,1.33,2.81,3,1.89,4.55,0,4.18-5,4.19-5,8.05.5a22.46,22.46,0,0,0,1.53,1.83c6.72-3.26,6.76-3.3,11.35,2.91,2.12,2.87,4.95,4.87,8,2.64,4.54-3.28,8.73-2.27,13.19-.53,5,2,9.93,2.62,15-.38.57,1.35,1,2.51,1.16,2.77,3.88.87,7.08,1.48,10.22,2.33s6.14,1.93,9.82,3.11c-.52,1.7-1.21,4-1.91,6.23l1.21-.27c.49,2.07,1,4.15,1.63,6.83,3.22,2.06,6.41.29,9.11-2.41,3.88-3.89,7.39-8.15,11.23-12.07,7.23-7.4,14.39-8.16,23.1-2.67.42.27.8.74,1.25.8,1.33.19,3.09.75,3.9.14s.42-2.47.6-4c8.87-1.45,8.87-1.45,11.17,4,9.21-1.19,18.68-3.1,28.21-3.4,6.68-.21,12-2.66,17.55-5.64a21.35,21.35,0,0,1,7-2.55c7.57-1,15.21-2.36,22.8-2.23,7.29.12,14.74-3.22,22.13,2.46,3.28,2.52,9.7.93,14.69,1.25,3.09.2,6.6-.4,9.2.86,8.39,4.08,16.75,1.83,25,.55,5-.77,9.48-2,12.11,4.07,7.58-6.44,16-8,25.18-7.34,3.87.3,7.77,0,11.36,0,.66-2.1,1.17-3.75,2.13-6.86,2.6,5.43,4.56,9.56,6.76,14.17,2.06-5,3.78-9.27,6-14.76l3.28,6.14,3-5,6.73,10.06,7.25-8.29,1.28.5,1.26,13.66a36.57,36.57,0,0,0,2.58-11.53,71,71,0,0,0-2.93-27.93c-3.08-9.52-3.13-19.34,3.42-28.17,1-1.32.19-4,0-6.09-.55-7.75-2.52-15.68-1.46-23.19,1.9-13.46,5.56-26.67,8.55-40,2.9-12.92,4.82-25.76,1.07-39-4.35-15.35-8.63-30.77-12-46.36-3.13-14.51-4.58-29.26-.89-44.07a27.48,27.48,0,0,0,.67-11.27c-1.53-8.32-4.17-16.44-5.79-24.75-1.67-8.59-5-17.59,2.9-24.62l-3.71-6.08c2.06-1.61,3.48-2.72,5.36-4.17l-12-17.36c9.93-.76,9.67-8.81,9.71-15.45.1-14.27,0-28.62-1.52-42.79-2.32-22.17-5.85-44.21-8.83-66.31-1.66-12.28,0-23.47,10.06-32.22,2.71-2.35,4.71-5.61,6.66-8.69,1.34-2.13,2-4.66,3.16-7.39l-8.12-.53c-.94-6.89,8.17-3.16,8.33-8.93l-8.26,2c-.38-5-2.2-10.08-.72-13.83,2.16-5.45-1.24-8-3.24-11.62,3.41-.38,6.2-1.38,5.48-5.95-7.47-1-10.6-6.13-11-12.82-.26-4.35,1-8.77,1.11-13.16.07-4.89-1.15-9.86-.57-14.65.48-4,2.69-7.82,4.24-11.68,2.65-6.63,3.28-13.18-.14-19.79-.47-.91-.2-2.3,0-3.43.89-5.46,2.75-10.93,2.6-16.36-.18-7-1.31-13.91,1.19-20.71.1-.26-.11-.62-.2-1.09l-3.19-.78c0-6,.07-11.48,0-16.93-.07-4-.41-7.92-.53-11.88-.14-4.4-.17-8.81-.26-13.22a8.54,8.54,0,0,1-.12-1.43c.5-3.59,1-7.18,1.56-10.77l-1.56-.37,2.9-2.61c-.37-6.53-.58-11.93-1-17.31a115,115,0,0,0-1.55-12.26c-.84-4.31-2.69-8.47-3.13-12.79-1.6-15.56-2.18-31.25-4.28-46.74-2.7-19.87-.47-39.08,4.5-58.3,4.49-17.35,11.38-34.12,12.34-52.35.73-13.67.33-27.19-2.11-39.81-21-.53-41.46-1-61.9-1.52a6.14,6.14,0,0,0-2.94.33c-9.93,5.28-20.73,6.5-31.46,4.8-13.1-2.07-26-5.42-38.94-8.51-14.29-3.41-28.45-6.64-43.36-3.51-17.08,3.58-34.24,7-51.51,9.46-13.68,1.94-27.67,2.38-41-2.32a38,38,0,0,0-19.14-1.43c-5.58.9-11.1,2.33-16.71,3-9.65,1-19.9,5-27.54-4.41l-7,3.36c.08-.53.16-1.06.25-1.58-1.45-1-3.42-3.27-4.26-2.9-4.61,2-10.35,2-13.33,7.24-.6,1.06-2.31,1.48-4.56,2.82.34-9.68-6.3-10-12.37-11.26-22.76-4.67-45.41-1.66-68.13.53-18.21,1.76-36.51,2.66-54.76,4a19.65,19.65,0,0,1-15.42-5.53,132.24,132.24,0,0,0-12-9.8c-2.66-1.92-5.88-3.06-9.45-4.84a19.31,19.31,0,0,1-.28,3.72c-.57,1.64-1.33,3.21-2,4.81-1.15-1.37-2.39-2.67-3.42-4.12s-2-3.27-3-4.91l-1.18.63,2.19,8.24c-4.91.5-9.48,2.06-13.43,1.09-5.21-1.29-8.39.45-10.8,3.1l-6.22-6.31c-4.16,12.46-17.07,18.06-23.74,12.21-4.07.88-7.83,2.55-11.43,2.26a80.19,80.19,0,0,1-17-3.54c-8.07-2.5-15.69-2.79-21.23,1.16-6.84-.82-12.13-2.06-17.39-1.93-8.34.2-16.66,1.31-25.46,2.07,0,.22-.11,1.72-.12,1.84l-24.22,2.81a19.47,19.47,0,0,1-2.29.07c-5.5,0-11-.13-16.5-.13-.78,0-1.59.53-2.36.48-4-.26-7.95-.63-11.93-1L283,58.05l-2.85-3c-5.82.68-10.71,1.63-15.62,1.75-6.8.16-13.72-1-19.68,3.66-.66.53-1.91.37-2.89.44-11.13.78-22.25,1.75-33.39,2.27-26.09,1.21-52.16,3-78-3.36A103.42,103.42,0,0,0,82.1,59Q68,62.24,53.68,64.49c-8,1.27-16,1.91-24,2.83l-.29,1.51,4.69,1c1.06,5.2,2.13,10.65,3.28,16.08.74,3.53,2.64,4.91,6.08,3s5.78-.12,6.16,3c.79,6.45.87,13,1.32,20.83-2.48-3.17-4.06-5.17-5.63-7.17,2.37,10.92,2.28,10.88.17,15.21-.64,1.31-.61,3-.89,4.44l5,.27c1.52,3.6,3.37,7.34,4.7,11.26,2.87,8.44-.47,14.28-9,16.3-.41.1-.74.56-1.67,1.29l9.53,8.36c-3.37,6-1.76,11.9.34,17.81,1.11,3.14,2.55,6.27,3,9.51s-.25,6.74-.45,10.12l-1.2-.14-2.45-7.29-1.48.48v6c-2.24-1-4.43-2-8-3.55,1.21,4.3,1.83,6.86,2.65,9.36,2.9,8.84,6,17.61,8.74,26.52,1.12,3.7,3.1,7.81-1.46,11.07-.79.57-.76,2.46-.88,3.76-.29,3.07-.45,6.16-.64,8.9,5.66-1,2.15,5.67,5.56,6.09-2.09,2.44-3.52,5.69-5.73,6.36-5.59,1.71-2.11,4.36-.92,6.19s3.17,2.9,5,4a7.42,7.42,0,0,1,4,7.36,65.53,65.53,0,0,0,.64,12.44c.88,6.14,1.69,11.69-4.28,16.41-3.58,2.83-2.33,5.88,2,7.58,6.52,2.6,8,5.6,6.28,12.51-1.09,4.34-2.55,8.65-3.12,13.07-.31,2.45,0,5.92,1.56,7.49,2.74,2.8,6.59,4.52,10,6.69l-1.7.73c.34,5.87.4,11.77,1.11,17.59.58,4.77,2.49,9.41,2.79,14.17.26,4.14.25,9.08-1.77,12.35-2.16,3.51-3.15,6.54-2,10.13a98,98,0,0,0,4,9.59L67,431l1.69.4c0,5.53,1.84,12.06-.47,16.33-2.87,5.3-2.18,10.5-3.58,15.56-1.73,6.24-1.06,11.13,3.94,14.6l-10.13,4.7,1.6,4.46-4.68-.71c1.37,5.78,4.07,7,9.78,4.71,4.16,5.05,4.36,6.06,1.67,8.81-4.3,4.39-3.53,7.76,2.45,10.21,2.38,1,5.25,1.95,4.33,5A9,9,0,0,1,69,520c-3.34,1.54-4.8,3.36-3.41,7a3.56,3.56,0,0,1-.06,1.38l-5.19,1.43L67,536a25.6,25.6,0,0,1-1,4.15c-3.23,8.19-6.6,16.32-9.82,24.52a26.1,26.1,0,0,0-1.09,4.26c3.64.75,7,.42,8.54,2,3.19,3.26,1.32,6.7-1.62,9.52-1.27,1.23-2.41,2.59-4.34,4.69l5-.46c-1.09,4.35-2.1,8.35-3.15,12.51l-4.4-.93c-.19,3.17-.35,6-.52,8.8l1.8,1,1.84-3c1.5,3.63,3.15,7.77,4.9,11.86,1.57,3.67,2.43,7.29,0,10.93-1.91,2.81-4,2.62-5.76-.3a35.23,35.23,0,0,0-3.7-4.39c-5.19,8.59-3.49,18.51,4.07,26.26-4.9,7.25-4,14.93-1.59,22.88a96.72,96.72,0,0,1,2.72,13.59,5,5,0,0,1-1.09,3.63,49.08,49.08,0,0,1-5.69,4.89c-2.29,1.81-1.7,3.25.36,4.71,5.28,3.76,5.26,3.77.63,8.25-.7.68-1.32,1.45-1.94,2.13C55.31,714,55.34,714.65,50,720c-2.92,2.9-4.74,6.45-2.31,9.76,3.87,5.29,2.75,10.43,1,15.68-2.07,6.4-3.42,12.74-1.86,19.15a9.53,9.53,0,0,0-3,4.11c-1,2.45-1.48,5.08-2.56,7.46-1.62,3.57-3.57,7-5.11,9.93l-12.57-1c-3.45,4.39-1.54,8.36,1.11,11.93,3.26,4.41,7.08,8.41,10.42,12.76,5.26,6.85,5.24,13.66.22,20.51a8.09,8.09,0,0,0-1.66,2.46,12.75,12.75,0,0,0,.1,3.49l4.3-.42c-1.67,3.35,3.33,8.64-3.12,11.15-.17.06-.23.6-.22.92.23,6.47.19,13,.82,19.39.35,3.58,2.7,7.06,2.61,10.55-.14,4.91,2.33,8.36,4.23,12.37,2.88,6.09,5.84,12.36,7.28,18.88,1.94,8.74,2.45,17.79,3.62,26.7.46,3.53,1.79,7-1.75,10-1,.87-.93,3.47-.74,5.22.35,3.25,1.15,6.45,1.76,9.67l-1.6.16c0,4.46,1,8.87-.2,12.5-3.25,9.53-.57,18.53,1.26,27.59,1,5,2.13,9.41-3.47,12.53,10.19,11.27,9.08,24.47,7.49,38.36l7-2.19Z"/></svg>