<svg id="Capa_1" data-name="Capa 1" xmlns="http://www.w3.org/2000/svg" viewBox="0 0 257.06 203.63"><defs><style>.cls-1{fill:#ffffff44;}</style></defs><path class="cls-1" d="M349.8,177.35a4.16,4.16,0,0,0,.23-.47A2.84,2.84,0,0,0,349.8,177.35Z" transform="translate(-148.64 -92.66)"/><path class="cls-1" d="M331.13,167.67l.31-.17A.28.28,0,0,0,331.13,167.67Z" transform="translate(-148.64 -92.66)"/><path class="cls-1" d="M360.87,183.2a.39.39,0,0,0-.08.1l.77.44Z" transform="translate(-148.64 -92.66)"/><path class="cls-1" d="M290,152.68l.27,0C290.12,152.69,290.06,152.62,290,152.68Z" transform="translate(-148.64 -92.66)"/><path class="cls-1" d="M314.21,161.61a.63.63,0,0,1-.43.27C313.93,162,314.07,162,314.21,161.61Z" transform="translate(-148.64 -92.66)"/><path class="cls-1" d="M362.19,196.1v-.83A.84.84,0,0,0,362.19,196.1Z" transform="translate(-148.64 -92.66)"/><path class="cls-1" d="M374.29,198.72a1.38,1.38,0,0,0,.06-.16A.22.22,0,0,0,374.29,198.72Z" transform="translate(-148.64 -92.66)"/><path class="cls-1" d="M371.5,193.77a2.42,2.42,0,0,0-.46.15C371.18,194,371.35,194,371.5,193.77Z" transform="translate(-148.64 -92.66)"/><path class="cls-1" d="M370.81,194l.23-.1A.17.17,0,0,0,370.81,194Z" transform="translate(-148.64 -92.66)"/><path class="cls-1" d="M155.26,93c0-.15-.62,0-1.12.06A10.37,10.37,0,0,0,155.26,93Z" transform="translate(-148.64 -92.66)"/><path class="cls-1" d="M253.48,141.47l.17-.27A.42.42,0,0,0,253.48,141.47Z" transform="translate(-148.64 -92.66)"/><path class="cls-1" d="M149.26,95.79l0-.25C149.23,95.66,149.22,95.74,149.26,95.79Z" transform="translate(-148.64 -92.66)"/><path class="cls-1" d="M355.59,195.44c-.6.55-.9-.55-1.17.12C354.8,195.6,355.05,196.32,355.59,195.44Z" transform="translate(-148.64 -92.66)"/><path class="cls-1" d="M236.2,165.23l-.25,0A.43.43,0,0,0,236.2,165.23Z" transform="translate(-148.64 -92.66)"/><path class="cls-1" d="M149.26,95.79l0,.3.3-.24C149.39,95.85,149.3,95.84,149.26,95.79Z" transform="translate(-148.64 -92.66)"/><path class="cls-1" d="M217.22,126.37h0l.13-.09Z" transform="translate(-148.64 -92.66)"/><path class="cls-1" d="M215.87,124.38l.51,0C216.2,124.18,216,124.24,215.87,124.38Z" transform="translate(-148.64 -92.66)"/><path class="cls-1" d="M154.14,93h-.64A1.31,1.31,0,0,0,154.14,93Z" transform="translate(-148.64 -92.66)"/><path class="cls-1" d="M195.47,115a.6.6,0,0,0,.23,0A.24.24,0,0,0,195.47,115Z" transform="translate(-148.64 -92.66)"/><path class="cls-1" d="M315.7,162.47a1.59,1.59,0,0,0,.15.21C315.91,162.52,315.93,162.39,315.7,162.47Z" transform="translate(-148.64 -92.66)"/><path class="cls-1" d="M295,177.6h0v0A0,0,0,0,1,295,177.6Z" transform="translate(-148.64 -92.66)"/><path class="cls-1" d="M296.09,176.91c-.22-.23-.72.2-1.06.69C295.29,177.66,295.58,177.57,296.09,176.91Z" transform="translate(-148.64 -92.66)"/><path class="cls-1" d="M293.33,176.76l.08.12A.18.18,0,0,0,293.33,176.76Z" transform="translate(-148.64 -92.66)"/><path class="cls-1" d="M309.64,182.56l0-.08,0,.06Z" transform="translate(-148.64 -92.66)"/><path class="cls-1" d="M306.32,181.81a.86.86,0,0,0-.14-.39A.72.72,0,0,0,306.32,181.81Z" transform="translate(-148.64 -92.66)"/><path class="cls-1" d="M284.51,176.65a.06.06,0,0,1,0,0h0Z" transform="translate(-148.64 -92.66)"/><path class="cls-1" d="M251.13,172.86c3.36.64,8,.43,11,1.81,1.12-1.29,2.14-1,3.25-1.09l-.46,2,1-.39c.17.69-.76.18-.36,1.1l.67-1.13c-.14.72,2,1.08.22,2.09l3.28.94c.71.26.88-1.53,1.55-.82,0,.62-.4.31-.53,1,2,2.12,3.82-3.07,5.81-1.56l-.26.21c.52-.42,1.22-.16,1.31-.44.25-2.07-.69,1-1.06-.39.51-1.66,1.09-.67,1.39-1.95.36.75.92-.13,1.4-.11.49,1.25,1.8.8,2,2.27.52-.43,1.37-2,2.2-1.82.24,1.46-.46,1.22.2,1.92l.38-.95c.61.33.44.57.3,1,.68.23.92-1.18,1.63-.32l-.73.81c.74-.2,1,0,1.83.35-.16.56-.51.43-.73.2.11,1.57,1-.41,1.21-.19,0-.44-.53-.79,0-1.67.4.29,1.29-1.08,1.31.15l-.73.81c1.12-.51.81-1.08,1.77-.43-.08.06-.11.31-.19.5,1-1.07,1.58.29,2.55.64l-.25.21c.48-.22.93-1,1.12-.91-.42-.71-.19-.95,0-1.9.33,1.8,1.63-1.57,2.6-.3-.17.55-.63,1.15-.82.47-.84,1.54-1.25,2.93-2.2,3.51.57-.26,1.17-.35.88.31l.54-1.49a4,4,0,0,1,.69.23c.37-.93-.15-1.73.66-2.2.86-.31,0,1.68.27,1,1.17-.35.85-1.54,1.68-.78-.13.1-.38.32-.43.15.53.8,1.77.17,1.5,2.07-.21.39-.38.94-.6.71l.08-.28c-1.1,1.15.73-.19.06,1.41.21-1,1.12-.53,1.51-.23l.16-1.17c2.34-3-.66,2.22.89,2.16,1.12-.53-.26-.41.51-1.06.57.36.53,1.43,1.56,1.18a4.37,4.37,0,0,1,.2,2.53c.68-.37,1.5,1,2.14-.14-.65-1.32-1.28,1.07-1.94-.86l.63-1.15c.74.26,1.87-.1,2.28.48a1.35,1.35,0,0,1,.13-.84c1.2-.18,1.84-1.33,2.79-.68-.16,1.17-.73.81-1.2.79.44,1.08.69.26,1.64.9-.21,1-.69-.25-1.07.69h1.24c0,.06,0,.12,0,.2.61-1.61.84.38,1.68.09,1.66.47,2.52-1.68,3.81-2.74a1.74,1.74,0,0,1-.13,1.34c-.21-.85-.3-.25-.56.14.61,0,.79,1.95.29,2.53,1-.23-.08-1,.61-1.32l1.2.45c.09-.89-.3-1.19.52-1.66.6-.08.81.15,1.49.41-.21.39-.14,1.35-.64,1.14.24.42.76.61,1.19-.15-.55-1,1.45-.36,1.26-1.83l.54,1c-.17-.06-.35.49-.56.25-.14,1.34.73-.18,1-.23.2.33.86.64.78,1.15.34-.28.85.17.77.85.43-.15.27-.82.5-1.2l1.18.46a11.77,11.77,0,0,1-.87,2.92c.65-.52.77-2,1.45-1.77-.8,1.24.6,1.33-.45,2.78a1.52,1.52,0,0,0,1.94,1.26c.71-1-.48-.82-.11-1.92,1.85.14,2.9-2.88,4-1.95l-.24-.41A2.75,2.75,0,0,0,332,183c-.65,1.3-.24,4,1.15,4.08.33-.65-.31-1.55.25-2.56l.93.08c0,.13-.14.32-.31.46.94-.22.87,2.26,1.61.73l.13,2.26,0-.95c.33-.64,1.27-.56,1.53-.76,1.14-.45,1.27.24,1.46,1.27,0-.62.08-2,.85-2-.75,2.2,1.19,1.31.78,2.44.29.06.55.93.89,0l-.52,1.35c.73-1.89,1.71-1.43,2.61-1.49-1.09,2.52.93.11.43,2.59.77-1.7,1.62-.2,2.3-1.64.63.14,0,1.74-.08,2.36l.52-.56c0,.93,1.07,1.45,1.5,2.28l1.19-1.29,0,.78c.25-.35.84-.37.75-1.07l.29.22c.68-1.66.64-.28,1.59-.72a1,1,0,0,1-.38.87c.32.15-.16.95-.2,1.58-.07-.52,2.38-2.52,1.78-3.63.21-.7.94-1,1.14-.56l-.4,1.58,1-1.43c.61,0,.44,1,.78,1.37-.46-.08-2.11,2.5-1,2.89-.65,0-1.27.69-1.69.89.2.15.25.33-.35.83,1-.13.65-.8,1.56-.66-.6,1.32-.53,1.82,0,2.59l-.13-1.21a1.27,1.27,0,0,1,.25-.31c-.14-.23-.11-.46.05-1,.16.07,1.65-1.26,1.45-.38,0-2.45,2.12-1,2.12-2.46.26-.34.88-.16.65.53-1.12.7-.12,1.74-.64,2.62.43-.27-.11-1.23.45-1.58.45.09.4,1.05.45,1.56l-.28.18.37.87c.39-.61-.12-1.39.61-1.48,0,.35.77.26.52.78-.68.79-1,2.08-1.6,2.09.45.08,1.82.5,1.84-1l.47.26c0-.69-.48-2.07.6-1.82l-.13.26,1.14-.69v.81c.14-.34.39-.59.64-.46-.12.42.05.69-.21,1.21.75.29,1-.41,1.28-.74.45.1.47.45-.08,1.13.47.45,1.53.75,1.57,1.62,1-.22,0-.34.84-1-.46,2.6,2,2.06,3.38,2.39.69-2.14.44-.05,1.58-1.72-.57.48.34,2.13-1,2.12l.74.14c-.13,1.31-1.46.24-1.58,2.07.73.31,2.32-1.57,2.77-.41-1,1.23.88-.1-.14,1.3-.44.4-.58.12-.88.11v.34c1.31,1.23,1.31-1.38,2.64-1.88,1,.34.15,1.48-.15,2.15,0,.35.58.39,1,.17-1,.52-.58-1.43.16-2.15-.45,1.78,1.33.88,1.94.42-.44-2.38-.89-.59-1.2-3.06-.45.4-1.19,1.82-1.64.82.86-.43.39-.8.37-1.1-.28.89-.71.05-1.13.26.14-.78,1.47-1.62.85-2.38l-1.16,1.83c-.15-.45.87-1.33,0-1.23.88-.8.7-1.61,1.76-1.43-.21-2.21-2.11,0-3.29.25.15-.08.29-.33.44-.41-.44.4-.74.21-1.05.21-.34-.71.88-.66,1-1.26l-.94-.39a.37.37,0,0,1,.05-.15c-.37.15-.69.21-.53-.31.58-.49,1-1.08,1.45-1.5l-1.64.88c.42-.59-.25-1.49.67-1.62L369.2,191l.51-1.37c-.46.06-.59.32-.26.68-.35-.54-3.26,1.25-1.78-1.22-1.63.53-1.83-.11-3.52,0,1.62-.75-.52-2.09.87-2.16-.41-.87-1.19.51-1.81.5a2.22,2.22,0,0,1,1.31-2.25l-.9.33.13-.26-.87.52c-.27-1,.46-1.4-.06-1.84l-.64,1.13-.11-.88c-.08.62-.54.7-1,.6l.12-.26h-.62c.83-.5-.37-.47.23-1.22a2.58,2.58,0,0,0-1.35-.38l-.19.87c-1.37.28.45-1.23-.39-1.64l-.33,1c-.61-2.08-2.49,0-3-1.34.62,0,.92-1.16.8-.89-.94,0-2.14-.75-3.41.07.22-1.49.31-1.94-.31-2.89-.66-.15-.8-.05-1.31.68-.4-.76-1.83-.37-1.5-1.39-.43.75-.48-.36-1.06.2l.08-.44-.3,1c-.31-2.53-2.24.55-2.66-1.71l.28-.19-.59.21c.07-.44.35-.64.56-1.18-.69-.32-1.38-.62-2.08-.91l.18.86c-.49,0-1.1.78-1.42,0,1.34-1.16-.69-.29-.45-1.45l.58-.23c-.66-.12-.65-.12-.93.87-.92.06.05-2-1-1.24l.52.22c0,.62-.68,1.28-1,1.14,0-.18-.15-.69.16-.72-.76.15-1.56-.67-2-.37a1.16,1.16,0,0,1,.36-1.27c-1.65.4-.56-.4-2.21,0l.2-.54-.68.51-.31-1.38,0,.79c-.48,0-.89.26-1.32-.22l.47-.75c-1.42.06-1.06-1.83-2.63-1.06,0-.17.23-.37.37-.47-1.52.94-.41-1.73-2-.51.15-.25.13-.63.24-.85l-.67.37.37-1.1-.91,1.51,0-1.23-.36.47c.07-2.29-1.18-.91-1.47-2.73l-.28,1.45c-2.74,2.36-3.9-2.92-6.59-2.2l.35-1.1-1.32,1c-.26-1,.57-.87.57-1.49-1.19.33-.88,1.53-2.14,1.52-.4-.92.43-.76.82-1.08-1.26.24-3.06.41-3.67-.43-.06.14-.16.33-.14.4-.88.3-1.71-.46-2.54-.61.15-.51.38-.54.61-.59-.28-.14-.58-.6-1-.15l.56-.88c-.57-.36-2,.2-1.84-1,0,.45-.3,1.28-.82,1.09.15-1.79-1.66.32-2.28-.82.21-.38.87-.3.69-.37-.31-.57-.91.13-1.43.56l.3-.66-2.26.42c.15-1.79-2-.24-1.5-1.45-.7-.25.41.91-.55.87-.05-.78-.91.14-.58-1l.13-.11-.65-.07.68-1c-.61.09-1.29,1.08-1.54,1.91-.35-.75-1.22-.44-1.19-1.5l.26-.21c-1.57,0-1.62-3.65-3.24-2.07,0-.18,0-.45.21-.39l-.87-.31.43-.77-1.8.89.16-.55a12.93,12.93,0,0,0-3.81-.75l.26-.21c-1.58.5-1.17-.89-2.32-.53.07-.14.12-.19.16-.21l-.89-.21.34-.5c-1,1-1.48-2.06-1.34-.94-.51.43-1.33.91-1.62,1.56-1-.19,0-.78-.52-1.41-.69-.25-1.08.69-1.89-.07l.17-.56c-.47,0-.85.31-1.49.22l.26-.21c-1.32.89-.8-2-2.26.23-.29-.56-1.19-.43-.84-1.54a18.78,18.78,0,0,1-3.88.55c.32-1.89-.3,0-.75-1.22l-.22,1c-1.78-.37-3.07-3.37-5.1-3.52l.24-1-.7,1a36,36,0,0,0-6-2.77c-.69.35-1.86,1.27-2.59.64l.13-.11a6.82,6.82,0,0,1-4.71-1.08c.24-.38.18-.72.44-.92-.73,1-.94-.25-1.27-.4l.15.87c-.76.76-1.1-.35-1.09-1.14l-1.06.79a.94.94,0,0,1,0-.44l-.3.46.06-1.4a3.58,3.58,0,0,0-2,1.31c.08-.44-.47-1,.12-1.06-.81-.43-1.64-.84-2.45-1.28l.24.59c-.29,1-1.28,1.3-1.53.71.81-.57.54-1.34.57-2.13-.54.39,0,1-.38,1.42-.67.48-1.72.46-1.8-.06l.4-.28c-.72.13-.39-1.63-1-1.77-.81.57-.94-.28-1.44,1.4-.9.05.12-1.22-.07-1.47-.65.65-1.53-.26-1.34-1.15-1.34,2.24-1.71-1.65-2.64.3l-.18-1.38c-.23.53-.83,1.69-1.42,1.71-.25-.77.24-1.66.31-2.27L237.49,137a9.06,9.06,0,0,0-4-3.23,10.69,10.69,0,0,1-4.26-3.08c-1.49-.15-3.55,0-5-.91l.28-.18-1.27-1.22.69,1.4c-.43.08-.86.34-1.17.16-1.29-1.59-3.06-3.56-5.55-3.55-2.38,1.6.07-2.4-2-1.38.21-.15.4-.45.6-.62a14.56,14.56,0,0,0-4.63.76c1.24-2.12-.9-.4-.21-1.49l-.56.84c0-.7-.63-1.25-.21-1.84l-1.15.81.4-.94c-.75-.46-2.82-.57-2.29-2.62-2.63.36-5.49-1.64-7.69-3.31a2,2,0,0,1-2.06,0V115.2c-.73,0-2.07,1-2.21.06a.73.73,0,0,1,.21-.24c-.68-.09-.9-1-2-.28a1.42,1.42,0,0,1-.11-2.19c-1.06,1.73-1.15-1-1.15-1s-7.23-5.54-15.77-11c-2.14-1.34-4.37-2.67-6.61-3.92-1.1-.61-2.28-1.21-3.34-1.72s-2-.92-2.89-1.25c-3.51-1.36-5.43-1.15-8.36-.74-.93.37-1.73.23-2.72.9-.5-.22,1.06-1,.11-.73a2.94,2.94,0,0,1-1.5.81,3.8,3.8,0,0,0-1.87,1l-.41-.32c-.69.18,1,.25-.23.66l1.75-.65a2.34,2.34,0,0,1-.88,1.17c.81,0,3.09-1.13,2.52.05l-.21-.11c.39.47-.79,1-1,1.27l-.07-.13c-.15.33-.3.67-.44,1,.27-.73-1.43-.52-1.11-.25.07,1,.25-.44.81,0,.3.28-.57.76-1.06,1.08.17.2.35.39.53.59-.7.51-.28-.45-.8.35.45.09.89.16,1.35.22-.78.77-.4.83,0,.87s.86.09.28,1c-.89-.2-.5.56-1.09,1,.48.43,1,.86,1.45,1.26-.07.35-.83.15-.54.26-.14.7.8,0,.93.16-.27.56,1.09.92.12,2,.41,1.6,1.59-1.07,2,.32-.42.8-.88-.43-1,.62l1.21.52c-.35.27-1.07,1-1.33.54,2,3,.94,7.85,4.13,8.61-.24,1.11-.66.4-1.3.8,2.63.09,1.29,3.69,3,4.64l.51-.7c.74,3.69,4.29,4.15,6.25,6.67l0-.7c.8-.49,1.41-.21,2-.28-.17.42-1.29,1.38-.35,1.54,0-.35-.13-.82.18-1.12,1,3.3,6,5.68,9.1,8.77a50,50,0,0,1,7.64,4.56,41.8,41.8,0,0,0,7.64,4.45c-.8-.34.52-2.06.86-1.32-.1,4.06,3,.89,3.52,3.91,1.74.22,2.91,1.37,4.16,2.32a4.78,4.78,0,0,0,4.58,1.08l-.39.95c.21.62.63,0,1.11.15l-.13.26c.86.85,2.56.48,3,1.19l.52-1c.66.2,0,1,.85.65l-.26.52,1.19-.66c-.91,1.81,1.67.94,1.79,2,.94.05,2.82-.1,3.87.81-.19,1.05,1.31,1.69,2.06,2.59a31.35,31.35,0,0,1,7,2.68l.45-1.24.65.18c-.11.26-.09.44-.23.53-.08,1.59,1.61.16,1.77,1.21.12-1.23-.37-.35-.72-.51-.28-.79.68-1.77,1.13-.9l-.12.27.73-.46c-.33,1-.07,1.58-.39,2.55,2.16.58,4.19-.49,6.15.76-.62,1,1.64.29.52,2,1.55-.22.35-1.58,1.43-2.68.34.17.91-.21.72.5-.34.39-.13,1.24-.48,1.31l.91.17c0,.17-.26.36-.4.45,2.14-.43,2.67,2.38,4.65,1.83.36-.64-.56-.41-.21-1.05,2.07-.82,1,1.71,2.81,1.25l-.63.83c.7-.48,1.18-1.21,1.71-.18-.24,1.16-1,.67-1.53,1.05.52.23,2,.42,1.92-.72.77-.14.67.93.92,1.35.11-.26-.35-1,.2-1.33.68.92,2.06,1.34,3.12,1.8-.1.27-.16.71-.3.81C250.72,170.34,249.82,172.78,251.13,172.86Z" transform="translate(-148.64 -92.66)"/><path class="cls-1" d="M310,182.85l-.38-.29a1.35,1.35,0,0,1-.43.75Z" transform="translate(-148.64 -92.66)"/><path class="cls-1" d="M289.91,176.82a2.28,2.28,0,0,0-.23.27C289.8,177.07,289.86,177,289.91,176.82Z" transform="translate(-148.64 -92.66)"/><path class="cls-1" d="M284.42,177.51c.42-.15.18-.53.09-.86A1.85,1.85,0,0,0,284.42,177.51Z" transform="translate(-148.64 -92.66)"/><path class="cls-1" d="M322.17,183a.85.85,0,0,0-.25.46A.92.92,0,0,0,322.17,183Z" transform="translate(-148.64 -92.66)"/><path class="cls-1" d="M352.35,194.1a1.91,1.91,0,0,1-.06-.21A.24.24,0,0,0,352.35,194.1Z" transform="translate(-148.64 -92.66)"/><path class="cls-1" d="M351.38,191.75a.58.58,0,0,0-.4,0C351.1,191.89,351.24,191.85,351.38,191.75Z" transform="translate(-148.64 -92.66)"/><path class="cls-1" d="M314.46,181.31c-.13,0-.26.05-.43.26C314.22,181.6,314.35,181.46,314.46,181.31Z" transform="translate(-148.64 -92.66)"/><path class="cls-1" d="M350.54,191.88l-.37-.28-.09.21Z" transform="translate(-148.64 -92.66)"/><path class="cls-1" d="M352.81,194.44a1.57,1.57,0,0,1-.46-.34C352.43,194.48,352.59,194.55,352.81,194.44Z" transform="translate(-148.64 -92.66)"/><path class="cls-1" d="M334,185.05H334C333.46,185.43,333.74,185.3,334,185.05Z" transform="translate(-148.64 -92.66)"/><path class="cls-1" d="M348,193l0-.06-.24.25Z" transform="translate(-148.64 -92.66)"/><path class="cls-1" d="M354.42,195.56a.33.33,0,0,0-.29.12l.18.21A2.53,2.53,0,0,1,354.42,195.56Z" transform="translate(-148.64 -92.66)"/><path class="cls-1" d="M339.85,188.88a4,4,0,0,0,.48-.84C340.18,188,340,188.16,339.85,188.88Z" transform="translate(-148.64 -92.66)"/><path class="cls-1" d="M368.88,176.62c0-.13-.07-.29-.14-.51A1.76,1.76,0,0,0,368.88,176.62Z" transform="translate(-148.64 -92.66)"/><path class="cls-1" d="M347.71,181.49l.14-.33A.3.3,0,0,0,347.71,181.49Z" transform="translate(-148.64 -92.66)"/><path class="cls-1" d="M381.84,173.67a.57.57,0,0,0,0,.13l.93-.17C382.45,173.63,382.15,173.66,381.84,173.67Z" transform="translate(-148.64 -92.66)"/><path class="cls-1" d="M303.82,199.54l.24-.17C303.94,199.44,303.84,199.44,303.82,199.54Z" transform="translate(-148.64 -92.66)"/><path class="cls-1" d="M329.83,188a.67.67,0,0,1-.18.5C329.83,188.47,329.94,188.37,329.83,188Z" transform="translate(-148.64 -92.66)"/><path class="cls-1" d="M390.93,183.09l-.47-.7C390.53,182.72,390.71,183,390.93,183.09Z" transform="translate(-148.64 -92.66)"/><path class="cls-1" d="M402.31,179.19c0-.06,0-.11,0-.18A.22.22,0,0,0,402.31,179.19Z" transform="translate(-148.64 -92.66)"/><path class="cls-1" d="M397.51,176.09a2.29,2.29,0,0,0-.34.35C397.32,176.41,397.51,176.4,397.51,176.09Z" transform="translate(-148.64 -92.66)"/><path class="cls-1" d="M397,176.64l.16-.2C397.08,176.47,397,176.5,397,176.64Z" transform="translate(-148.64 -92.66)"/><path class="cls-1" d="M169.34,285.79c-.17,0-.27.56-.42,1C169.07,286.49,169.22,286.13,169.34,285.79Z" transform="translate(-148.64 -92.66)"/><path class="cls-1" d="M269.37,223l-.12-.3A.43.43,0,0,0,269.37,223Z" transform="translate(-148.64 -92.66)"/><path class="cls-1" d="M169.57,292.41l-.23-.14C169.43,292.39,169.5,292.42,169.57,292.41Z" transform="translate(-148.64 -92.66)"/><path class="cls-1" d="M385.41,186.52c-.12.81-1,.15-.83.84C384.9,187.15,385.54,187.54,385.41,186.52Z" transform="translate(-148.64 -92.66)"/><path class="cls-1" d="M278.32,251.14l-.18.17C278.24,251.25,278.3,251.2,278.32,251.14Z" transform="translate(-148.64 -92.66)"/><path class="cls-1" d="M169.57,292.41l.27.16c0-.14-.08-.25-.11-.37C169.68,292.31,169.63,292.39,169.57,292.41Z" transform="translate(-148.64 -92.66)"/><path class="cls-1" d="M234.22,245.54h0v0Z" transform="translate(-148.64 -92.66)"/><path class="cls-1" d="M231.68,245.65l.29-.45C231.71,245.26,231.66,245.43,231.68,245.65Z" transform="translate(-148.64 -92.66)"/><path class="cls-1" d="M168.92,286.84l-.29.58A1.29,1.29,0,0,0,168.92,286.84Z" transform="translate(-148.64 -92.66)"/><path class="cls-1" d="M211.42,258.69a.7.7,0,0,0,.15-.19A.23.23,0,0,0,211.42,258.69Z" transform="translate(-148.64 -92.66)"/><path class="cls-1" d="M331.64,187.65a1.14,1.14,0,0,0,.25.06C331.84,187.55,331.78,187.44,331.64,187.65Z" transform="translate(-148.64 -92.66)"/><path class="cls-1" d="M325.69,213h0v0Z" transform="translate(-148.64 -92.66)"/><path class="cls-1" d="M326,211.79c-.32,0-.39.64-.29,1.23C325.92,212.89,326.06,212.62,326,211.79Z" transform="translate(-148.64 -92.66)"/><path class="cls-1" d="M323.9,213.61l.13,0A.18.18,0,0,0,323.9,213.61Z" transform="translate(-148.64 -92.66)"/><path class="cls-1" d="M340,206.92l0-.07,0,.07Z" transform="translate(-148.64 -92.66)"/><path class="cls-1" d="M336.89,208.52a.87.87,0,0,0-.35-.19A.68.68,0,0,0,336.89,208.52Z" transform="translate(-148.64 -92.66)"/><path class="cls-1" d="M317.69,219.84s0,0,0,0h0Z" transform="translate(-148.64 -92.66)"/><path class="cls-1" d="M293.62,243.24c2.53-2.36,5.2-6.15,8.15-7.72-.3-1.68.53-2.33,1.19-3.22l1.27,1.6.34-1c.64.3-.33.7.63,1l-.46-1.23c.48.55,2.11-.9,1.76,1.15l2.77-1.93c.64-.38-.62-1.65.35-1.7.47.4,0,.5.46,1.07,2.88-.14.11-4.88,2.53-5.4v.34c0-.67.68-1,.52-1.28-1.39-1.54.28,1.16-1,.54-.92-1.47.2-1.26-.57-2.33.8.21.52-.77.85-1.12,1.27.47,1.8-.81,3.05,0,0-.67-.53-2.33.14-2.85,1.24.82.58,1.17,1.54,1.16l-.43-.92c.65-.23.71.06.94.48.63-.35-.23-1.49.88-1.42l.09,1.1c.36-.68.68-.67,1.5-1.08.29.5,0,.66-.36.66,1.21,1,.39-1,.7-1-.29-.34-.94-.17-1.19-1.18.48-.08.12-1.68,1-.83l.07,1.09c.41-1.16-.21-1.34.93-1.57,0,.1.14.3.23.49-.07-1.46,1.3-.93,2.23-1.35l0,.32c.18-.49-.07-1.38.16-1.43-.8-.21-.81-.55-1.34-1.36,1.5,1.06.07-2.26,1.67-2,.26.51.34,1.27-.26.91.46,1.7,1.14,3,.88,4,.21-.57.57-1.06.83-.38l-.66-1.45a3.93,3.93,0,0,1,.66-.32c-.38-.93-1.32-1.13-1.05-2s1.14,1.22.9.54c.6-1.05-.45-1.7.69-1.73,0,.17-.07.5-.22.41.95.22,1.42-1.11,2.52.48.11.43.36.94.05.92l-.13-.26c0,1.6.4-.64,1,1-.54-.88.46-1.14.95-1.19l-.68-1c-.29-3.8,1,2.08,2.12,1,.48-1.13-.47-.13-.33-1.12.66-.11,1.35.7,1.95-.17a4.27,4.27,0,0,1,1.83,1.75c.27-.72,1.8-.23,1.52-1.52-1.36-.55-.25,1.66-2,.64l-.29-1.28c.74-.29,1.36-1.32,2.06-1.14a1.41,1.41,0,0,1-.46-.73c.8-.93.55-2.21,1.72-2.34.63,1,0,1.09-.42,1.38,1.05.54.7-.26,1.86-.39.49.9-.69.26-.38,1.22l1-.81c0,.06.05.12.08.19-.56-1.62.91-.26,1.37-1,1.61-.73.92-2.92,1.26-4.58a1.73,1.73,0,0,1,.76,1.11c-.72-.51-.4,0-.36.47.48-.41,1.9,1,1.87,1.75.67-.84-.68-.68-.37-1.4l1.25-.43c-.5-.74-1-.72-.64-1.61.43-.45.75-.41,1.47-.66.07.44.74,1.13.21,1.3.46.16,1,0,.86-.89-1.08-.41,1-1.23-.16-2.23l1.08.4c-.18.06,0,.6-.3.55.74,1.13.48-.61.69-.84.37.12,1.12-.07,1.38.38.09-.44.8-.42,1.17.16.26-.39-.31-.81-.37-1.25l1.27-.41a11.14,11.14,0,0,1,1.16,2.82c.2-.82-.67-2.07.05-2.3.15,1.48,1.35.63,1.42,2.44a1.64,1.64,0,0,0,2.41-.32c0-1.2-.92-.31-1.33-1.4,1.62-1.1.52-4.1,2.05-4.12l-.47-.16a2.72,2.72,0,0,0,.65-1.87c.31,1.42,2.38,3.2,3.61,2.38-.15-.72-1.27-1-1.47-2.12l.82-.56c.1.08.1.34.05.56.61-.8,2.19,1.13,1.8-.52l1.6,1.62-.66-.7c-.15-.7.68-1.26.76-1.59.63-1.1,1.2-.67,2,0-.38-.49-1.28-1.58-.63-2.07.85,2.16,1.85.2,2.27,1.32.29-.14,1.08.33.75-.58l.49,1.36c-.68-1.9.42-2.24,1.11-2.89.82,2.62.81-.55,2.08,1.64-.53-1.8,1.17-1.24.74-2.78.59-.31,1.15,1.33,1.51,1.83l0-.76c.63.7,1.83.38,2.71.71l.07-1.77.49.61c0-.43.41-.85-.13-1.31l.38,0c-.57-1.7.32-.63.76-1.59a1,1,0,0,1,.28.92c.35-.11.5.82.88,1.32-.4-.35.21-3.48-1-3.92-.3-.67.08-1.38.53-1.18l.72,1.47-.11-1.75c.47-.4,1,.51,1.5.54-.42.24,0,3.28,1.07,2.88-.53.39-.54,1.34-.74,1.76.25,0,.41.1.26.86.71-.75,0-1,.78-1.5.38,1.39.76,1.76,1.63,2l-.86-.86a1.3,1.3,0,0,1,0-.4c-.26-.09-.38-.29-.59-.81.16,0,.48-2,.87-1.21-1.51-1.9,1-2.12.12-3.26,0-.44.6-.68.85,0-.45,1.25,1,1.45,1.12,2.45.16-.47-.85-.88-.62-1.51.41-.21.95.57,1.3,1l-.11.31.82.46c-.06-.73-.94-1-.41-1.54.23.25.76-.25.87.32-.06,1,.45,2.27,0,2.62.39-.19,1.68-.66.85-1.86l.52-.07c-.44-.52-1.6-1.39-.59-1.82l.05.29.5-1.23.47.67c-.08-.35,0-.7.25-.73.15.41.44.53.52,1.11.76-.22.58-.93.61-1.36.42-.19.63.1.57,1,.62.11,1.63-.22,2.12.48.71-.73-.2-.29.15-1.31.49,1.22,1.14,1.41,1.84,1.23s1.45-.65,2.09-.85c-.42-2.18.33-.28.54-2.28-.26.69,1.23,1.73.13,2.33l.66-.21c.44,1.21-1.08.89-.4,2.56.68,0,1.23-2.5,2.07-1.62-.37,1.54.68-.47.36,1.23-.2.55-.42.36-.65.47l.12.31c1.47.57.55-1.8,1.48-2.81,1-.13.63,1.31.61,2,.11.32.59.14.89-.23-.68.87-.93-1.12-.56-2.06.22,1.83,1.42.34,1.83-.31-1.17-2.06-.95-.23-2.13-2.42-.26.55-.37,2.14-1.14,1.42.58-.75,0-.89-.11-1.15.1.93-.62.33-.89.7-.22-.76.63-2.1-.27-2.51l-.23,2.16c-.34-.33.19-1.58-.57-1.08.43-1.12-.1-1.75,1-2.08-1.23-1.85-2,.94-2.87,1.77.1-.14.1-.43.19-.57-.19.57-.55.56-.83.69-.65-.46.46-1,.28-1.58l-1,.1a.68.68,0,0,1,0-.15c-.25.31-.5.51-.63,0,.26-.71.34-1.43.52-2-.35.51-.69,1-1,1.57.07-.72-1-1.14-.27-1.73l-1.65.46-.32-1.44c-.38.31-.35.59.16.71-.65-.26-2.17,2.89-2.31,0-1.13,1.38-1.68,1-3.1,2,.94-1.58-1.75-1.35-.59-2.25-.9-.45-.72,1.13-1.25,1.5a2.11,2.11,0,0,1-.29-2.59l-.57.81-.05-.28-.43,1c-.85-.59-.5-1.39-1.23-1.4l.18,1.29-.66-.61c.33.52,0,.88-.47,1.1l-.06-.28-.53.4c.37-.92-.61-.11-.6-1.07-.53.08-.53.1-1.38.6l.41.8c-1,1.08-.43-1.25-1.42-1l.37,1c-1.9-1.18-2,1.66-3.37,1,.5-.42,0-1.49.06-1.21-.75.65-2.26.88-2.71,2.36-.83-1.27-1.05-1.66-2.2-1.95-.63.33-.67.5-.59,1.38-.83-.3-1.72.94-2.13,0,.16.85-.63.06-.72.86l-.23-.38.43.93c-1.95-1.69-1.4,1.92-3.24.52l.09-.33-.32.55c-.24-.38-.15-.71-.34-1.26l-2.23.68.7.54c-.41.28-.35,1.31-1.1.94.3-1.75-.74.23-1.31-.81l.31-.55c-.6.34-.6.34-.17,1.27-.69.65-1.28-1.58-1.63-.26l.56-.17c.38.48.3,1.41-.07,1.53-.15-.11-.57-.43-.34-.66-.5.62-1.67.52-1.8,1-.47-.15-.63-.87-.54-1.2-1.05,1.39-.7.07-1.75,1.45l-.2-.55-.22.84-1.14-.86.53.59c-.42.28-.55.77-1.21.68l-.1-.88c-1.11,1-2-.72-2.81.89-.14-.12,0-.44,0-.61-.62,1.71-1.44-1.06-2,.93,0-.3-.3-.58-.35-.82l-.3.73-.41-1.09.23,1.75-.78-1,0,.59c-1.42-1.81-1.56.06-3-1.15l.7,1.29c-.73,3.59-5.07.32-6.84,2.63l-.43-1.07-.41,1.66c-.88-.6-.09-1-.49-1.51-.77,1,.27,1.75-.79,2.59-.93-.43-.14-.87,0-1.38-.89,1-2.26,2.36-3.33,2.14.05.15.09.36.16.4-.53.81-1.72.8-2.51,1.26a.66.66,0,0,1,.11-.85c-.32.07-.89-.07-.9.54l-.13-1c-.72.11-1.53,1.52-2.19.54.28.36.63,1.16.06,1.38-1.08-1.43-1.14,1.38-2.43,1-.09-.43.51-.83.32-.76-.65-.19-.67.74-.8,1.43l-.21-.7-1.57,1.91c-1.12-1.4-1.77,1.24-2.24,0-.75.32,1,.36.16,1-.59-.52-.65.76-1.16-.27l0-.18-.59.43-.15-1.21a2.72,2.72,0,0,0,.11,2.5c-.82-.27-1.3.58-2-.19l.06-.34c-1.21,1.2-3.95-1.34-4.12,1-.16-.09-.3-.34-.11-.43l-.92.46-.23-.86-.78,2-.28-.51a14.79,14.79,0,0,0-3.54,2.45l0-.35c-.85,1.58-1.57.33-2.19,1.48a.4.4,0,0,1,0-.27l-.85.58-.12-.6c0,1.45-2.71-.19-1.74.44a5.35,5.35,0,0,0,0,2.32c-.89.66-.63-.47-1.48-.5-.7.39-.28,1.29-1.46,1.47l-.31-.5c-.36.37-.39.89-.93,1.36l0-.35c-.27,1.65-2.16-.61-1.47,2-.66-.11-1.21.7-1.83-.28a24.18,24.18,0,0,1-2.34,3.52c-1.28-1.42-.18.28-1.5-.12l.63.79c-1.53,1.25-4.85.51-6.37,2.1l-.65-.79.3,1.16a42.91,42.91,0,0,0-6.34,3.45c-.18.79-.2,2.31-1.18,2.57V218a7.85,7.85,0,0,1-4,3.37c-.16-.42-.48-.56-.48-.9.31,1.16-.82.66-1.15.85l.81.36c.15,1.09-1,.75-1.63.29l0,1.35a1,1,0,0,1-.36-.26l.2.52-1.13-.85a3.67,3.67,0,0,0-.2,2.46c-.32-.32-1.13-.18-.79-.71l-2.62,1.33.65.14c.63.8.27,1.83-.37,1.7,0-1-.78-1.22-1.41-1.69,0,.67.79.55.94,1.12,0,.85-.69,1.73-1.17,1.5l0-.51c-.35.69-1.6-.59-2.1-.15,0,1-.82.64.26,2-.51.78-.93-.8-1.26-.78.13.91-1.18,1.14-1.8.48,1,2.4-2.44.52-1.39,2.41l-1.27-.62c.31.5.91,1.65.56,2.17-.8-.22-1.25-1.13-1.71-1.54l.88,2c-3.88-.22-6.5,3.31-10.42,3.53-1,1.21-2.16,3.06-3.84,3.75l0-.34-1.82.44,1.62.16c-.2.41-.24.93-.57,1.1-2.13.27-4.93.68-6.42,2.86-.06,2.93-2-1.34-2.37,1,0-.26-.15-.59-.18-.85a15.61,15.61,0,0,0-2.13,4.41c-1.09-2.2-.88.59-1.41-.6l.39.93c-.62-.34-1.46-.1-1.72-.78l0,1.43-.57-.84c-.86.4-2.19,2.15-3.66.62-1.24,2.5-4.68,4-7.44,5.07.06.93-.66,1.42-1.2,1.82l-1.22-.7c-.41.66-.29,2.36-1.23,2a.71.71,0,0,1-.09-.31c-.48.56-1.37.32-1.39,1.62a1.43,1.43,0,0,1-2-1c.92,1.8-1.55.54-1.55.54A182.41,182.41,0,0,0,187.72,269c-2.41,1.36-4.85,2.82-7.17,4.38-1.17.77-2.3,1.57-3.39,2.38s-2.06,1.61-2.86,2.32a14.36,14.36,0,0,0-5,7.71c0,1-.51,1.68-.28,2.85-.42.38-.58-1.39-.67-.38a2.68,2.68,0,0,1,.17,1.69,3.65,3.65,0,0,0,.23,2.13l-.47.24c-.11.71.65-.81.54.48l.09-1.86a2.23,2.23,0,0,1,.78,1.26,14.78,14.78,0,0,0,.35-1.8c.13-.62.29-1,.77-.51l-.2.15c.62-.19.62,1.11.82,1.39h-.16c.26.28.52.54.8.79-.58-.5-1.11,1.11-.71.94,1,.35-.32-.41.32-.75.39-.18.49.81.59,1.38l.79-.25c.19.85-.55.08,0,.87.27-.38.53-.78.78-1.17.41,1,.62.68.84.32s.45-.76,1,.12c-.57.76.32.67.44,1.38.62-.26,1.22-.55,1.82-.85.29.2-.22.83,0,.61.59.4.36-.74.55-.8.41.48,1.34-.64,1.91.69,1.67.27-.3-1.91,1.19-1.73.55.71-.79.64.12,1.2l1-.89c.1.43.44,1.38-.09,1.44,3.71-.63,7.5,2.56,9.71,0,.89.71.06.77.11,1.53,1.33-2.31,3.92.49,5.56-.55l-.38-.78c3.67,1.07,5.76-1.91,9-2.4l-.61-.36c0-.94.52-1.34.77-1.93.28.35.58,1.8,1.19,1.06-.31-.18-.8-.28-.91-.71,3.4.71,8-2.48,12.34-3.64,4.8-3.46,11.2-5.13,16-8.51-.73.5-1.48-1.54-.66-1.44,3.41,2.23,2.43-2.12,5.29-.92,2.33-2.71,6.54-1.57,7.83-5.57l.58.84c.65.16.39-.52.76-.86l.14.25c1.2-.28,1.87-1.9,2.7-1.83l-.56-1c.54-.45.77.57,1-.36l.28.5.14-1.36c1,1.77,1.76-.89,2.72-.41.57-.78,1.57-2.43,2.94-2.8.77.75,2.19-.16,3.38-.29a32.55,32.55,0,0,1,6.39-4.37l-.75-1.08.53-.45c.15.25.31.32.3.5,1.27.95,1.09-1.26,2.07-.79-.95-.8-.51.11-.86.3-.82-.21-1.06-1.57-.06-1.45l.15.25.06-.86c.61.83,1.27,1,1.88,1.77,1.78-1.47,2.1-3.8,4.33-4.71.44,1.08,1.25-1.2,2,.71.75-1.43-1.1-1.2-1.35-2.72.34-.2.38-.89.85-.32.12.5.95.82.78,1.15l.7-.67c.16.08.15.42.13.59,1-2,3.58-.87,4.34-2.82-.31-.66-.68.23-1-.43.59-2.19,2,.17,2.74-1.6l.3,1c0-.86-.28-1.69.88-1.53.8.87,0,1.2-.06,1.88.51-.3,1.55-1.41.57-2,.35-.72,1.16,0,1.66,0-.16-.24-1-.26-1-.94,1.16,0,2.35-.89,3.36-1.49.16.24.48.55.48.72C291.34,242.08,292.77,244.26,293.62,243.24Z" transform="translate(-148.64 -92.66)"/><path class="cls-1" d="M340.43,206.89l-.48,0a1.31,1.31,0,0,1,.15.86Z" transform="translate(-148.64 -92.66)"/><path class="cls-1" d="M321.54,216.07a1.45,1.45,0,0,0,0,.35A.37.37,0,0,0,321.54,216.07Z" transform="translate(-148.64 -92.66)"/><path class="cls-1" d="M318.27,220.49c.17-.41-.27-.5-.58-.65A2,2,0,0,0,318.27,220.49Z" transform="translate(-148.64 -92.66)"/><path class="cls-1" d="M350.28,199.13a.76.76,0,0,0,.09.52A1.06,1.06,0,0,0,350.28,199.13Z" transform="translate(-148.64 -92.66)"/><path class="cls-1" d="M382.05,187.53a1.29,1.29,0,0,1-.18-.13A.25.25,0,0,0,382.05,187.53Z" transform="translate(-148.64 -92.66)"/><path class="cls-1" d="M379.76,186.38c-.08,0-.18.09-.29.27C379.64,186.66,379.72,186.53,379.76,186.38Z" transform="translate(-148.64 -92.66)"/><path class="cls-1" d="M342.94,202.81a.62.62,0,0,0-.17.48A.45.45,0,0,0,342.94,202.81Z" transform="translate(-148.64 -92.66)"/><path class="cls-1" d="M379.19,187l-.47,0,.07.22Z" transform="translate(-148.64 -92.66)"/><path class="cls-1" d="M382.63,187.5a1.62,1.62,0,0,1-.58,0C382.36,187.76,382.53,187.72,382.63,187.5Z" transform="translate(-148.64 -92.66)"/><path class="cls-1" d="M361.3,193s0,0,0,0C361.1,193.63,361.24,193.34,361.3,193Z" transform="translate(-148.64 -92.66)"/><path class="cls-1" d="M378,189.57l-.07,0,0,.34Z" transform="translate(-148.64 -92.66)"/><path class="cls-1" d="M384.58,187.36a.32.32,0,0,0-.14.27,1.46,1.46,0,0,0,.27.05A3.09,3.09,0,0,1,384.58,187.36Z" transform="translate(-148.64 -92.66)"/><path class="cls-1" d="M368.66,192a3.61,3.61,0,0,0-.18-.95C368.34,191.09,368.32,191.32,368.66,192Z" transform="translate(-148.64 -92.66)"/><path class="cls-1" d="M166.49,131.18a4.61,4.61,0,0,0-.53,0A2.33,2.33,0,0,0,166.49,131.18Z" transform="translate(-148.64 -92.66)"/><path class="cls-1" d="M164.53,146.24l-.27-.14A.26.26,0,0,0,164.53,146.24Z" transform="translate(-148.64 -92.66)"/><path class="cls-1" d="M167.48,122.24l.12,0,.07-.62Z" transform="translate(-148.64 -92.66)"/><path class="cls-1" d="M164.87,177.44l0-.19C164.83,177.34,164.79,177.4,164.87,177.44Z" transform="translate(-148.64 -92.66)"/><path class="cls-1" d="M164.9,159.05a.65.65,0,0,1,.4.2C165.32,159.13,165.26,159,164.9,159.05Z" transform="translate(-148.64 -92.66)"/><path class="cls-1" d="M178.7,117.51l-.76.24A1,1,0,0,0,178.7,117.51Z" transform="translate(-148.64 -92.66)"/><path class="cls-1" d="M175.82,108.93l-.17,0A.31.31,0,0,0,175.82,108.93Z" transform="translate(-148.64 -92.66)"/><path class="cls-1" d="M172.62,112.19a2,2,0,0,0,.33.26C172.93,112.34,172.93,112.21,172.62,112.19Z" transform="translate(-148.64 -92.66)"/><path class="cls-1" d="M173.14,112.57l-.19-.12C173,112.52,173,112.57,173.14,112.57Z" transform="translate(-148.64 -92.66)"/><path class="cls-1" d="M172.12,287.26c0,.25.54.48,1,.72Z" transform="translate(-148.64 -92.66)"/><path class="cls-1" d="M167.17,204.41l-.32,0A.6.6,0,0,0,167.17,204.41Z" transform="translate(-148.64 -92.66)"/><path class="cls-1" d="M178.74,287.72l-.16.17C178.71,287.83,178.74,287.77,178.74,287.72Z" transform="translate(-148.64 -92.66)"/><path class="cls-1" d="M180.81,121.94c.75.22-.12.74.6.71C181.28,122.4,181.83,122,180.81,121.94Z" transform="translate(-148.64 -92.66)"/><path class="cls-1" d="M195.67,208.51l.05.17A.26.26,0,0,0,195.67,208.51Z" transform="translate(-148.64 -92.66)"/><path class="cls-1" d="M178.74,287.72l.18-.21-.37.06C178.65,287.61,178.73,287.67,178.74,287.72Z" transform="translate(-148.64 -92.66)"/><path class="cls-1" d="M168,232.74h0l-.13,0Z" transform="translate(-148.64 -92.66)"/><path class="cls-1" d="M166.85,234.27l-.24-.32C166.53,234.12,166.66,234.21,166.85,234.27Z" transform="translate(-148.64 -92.66)"/><path class="cls-1" d="M173.13,288l.58.41A1.46,1.46,0,0,0,173.13,288Z" transform="translate(-148.64 -92.66)"/><path class="cls-1" d="M168,250.59a.4.4,0,0,0-.09-.15A.13.13,0,0,0,168,250.59Z" transform="translate(-148.64 -92.66)"/><path class="cls-1" d="M165.17,157.82a.71.71,0,0,0,.15-.15C165.14,157.68,165,157.7,165.17,157.82Z" transform="translate(-148.64 -92.66)"/><path class="cls-1" d="M186.44,166.51Z" transform="translate(-148.64 -92.66)"/><path class="cls-1" d="M185.43,166c-.14.22.43.42,1,.49C186.41,166.31,186.23,166.16,185.43,166Z" transform="translate(-148.64 -92.66)"/><path class="cls-1" d="M186.24,167.87l.08-.09S186.24,167.84,186.24,167.87Z" transform="translate(-148.64 -92.66)"/><path class="cls-1" d="M186,155.47h0Z" transform="translate(-148.64 -92.66)"/><path class="cls-1" d="M186.47,157.85a1,1,0,0,0-.31.22A.71.71,0,0,0,186.47,157.85Z" transform="translate(-148.64 -92.66)"/><path class="cls-1" d="M189.15,173.67h0a0,0,0,0,1,0,0Z" transform="translate(-148.64 -92.66)"/><path class="cls-1" d="M197.2,196.66c-.66-2.36-2.39-5.31-2.23-7.72-1.58-.36-1.71-1.1-2.13-1.81l2-.3-.71-.56c.59-.32.43.45,1.15-.09l-1.29-.1c.73-.13.31-1.67,1.89-.77-.08-.82-.17-1.63-.27-2.45,0-.54-1.73-.12-1.29-.77.57-.19.43.17,1.15,0,1.29-2-4.17-1.61-3.45-3.36l.29.1c-.58-.21-.58-.75-.87-.72-2,.47,1.15.16,0,.81-1.73.17-1-.51-2.32-.31.58-.46-.43-.57-.57-.89,1-.7.13-1.42,1.43-2-.58-.21-2.31-.3-2.46-.89,1.29-.61,1.3-.07,1.73-.72l-1,0c.09-.5.38-.46.85-.5,0-.52-1.43-.24-.87-1l1,.23c-.45-.42-.3-.64-.3-1.31.57-.06.57.21.43.43,1.43-.56-.72-.53-.59-.74-.43.11-.56.59-1.57.5.13-.35-1.45-.51-.3-.9l1,.22c-.86-.57-1.29-.19-1-1a2.35,2.35,0,0,0,.54,0c-1.34-.32-.27-1.11-.28-1.85l.29.1c-.38-.25-1.29-.28-1.24-.45-.52.49-.83.42-1.78.59,1.57-.78-2-.57-1.17-1.6.57-.06,1.29.06.72.39,1.73.07,3.17-.09,4,.34-.43-.28-.72-.65,0-.66l-1.58.11a2,2,0,0,1,0-.53c-1,.05-1.57.64-2.29.25s1.57-.5.86-.49c-.73-.65-1.73-.07-1.31-.85.14.05.43.15.29.24.56-.6-.45-1.21,1.42-1.62.43,0,1,0,.87.17l-.29,0c1.44.36-.44-.41,1.29-.48-1,.18-.88-.56-.74-.91l-1.14.27c-3.61-.59,2.3-.26,1.71-1.25-.88-.56-.29.29-1.16,0,.14-.48,1.15-.8.55-1.39a5.63,5.63,0,0,1,2.3-.92c-.58-.33.41-1.29-.88-1.34-1,.83,1.45.49-.13,1.52l-1.29-.05c0-.56-.74-1.18-.34-1.62a1.77,1.77,0,0,1-.83.17c-.58-.72-1.88-.77-1.6-1.59,1.15-.26,1,.22,1.15.53.86-.62,0-.53.28-1.34,1-.18,0,.52,1,.47l-.43-.8.2,0c-1.71.11.06-.67-.51-1.11-.15-1.23-2.45-1.11-3.89-1.61a2.32,2.32,0,0,1,1.29-.34c-.71.4-.13.27.33.32-.23-.39,1.55-1.12,2.26-1-.58-.59-.86.35-1.44,0v-.91c-.85.21-1,.56-1.72.18-.29-.37-.15-.58-.15-1.1.43,0,1.3-.33,1.29.06.3-.29.29-.68-.57-.72-.72.66-.86-.82-2.15-.24l.72-.66c0,.13.57.08.43.28,1.29-.32-.43-.41-.58-.59.23-.23.28-.75.79-.86-.39-.13-.15-.6.51-.76-.29-.23-.86.08-1.3.06v-.91a16.23,16.23,0,0,1,3-.35c-.72-.26-2.17.13-2.16-.39,1.44.13,1-.8,2.74-.57,1-.41.88-1.23.46-1.64-1.15-.16-.58.56-1.74.66-.55-1.23-3.73-1-3.28-2l-.29.28a2.8,2.8,0,0,0-1.58-.72c1.44,0,3.76-1.08,3.37-2-.72,0-1.31.69-2.46.64l-.28-.62a.91.91,0,0,1,.55.05c-.56-.53,1.75-1.26.07-1.26l2-.78-.87.31c-.71,0-1-.64-1.28-.75-.84-.59-.26-.89.63-1.33-.59.17-1.9.58-2.16.07,2.31-.19.77-1.16,2-1.25,0-.21.65-.64-.31-.58l1.44-.08c-2,.11-2-.66-2.38-1.22,2.74-.07-.26-.63,2.21-1.07-1.88,0-.81-1-2.4-1-.11-.44,1.62-.51,2.21-.66l-.7-.17c.85-.28.94-1.12,1.51-1.65l-1.67-.37.74-.22c-.42,0-.69-.42-1.29-.15l.09-.26c-1.8.08-.52-.32-1.31-.79a1.44,1.44,0,0,1,1,0c0-.25.93-.18,1.53-.35-.46.21-3.25-.76-4,0-.73.08-1.28-.3-1-.56l1.6-.22-1.71-.23c-.25-.39.78-.59.95-.92.11.33,3.13.6,3.06-.22.23.43,1.13.6,1.48.81.05-.17.21-.26.9,0-.52-.62-1-.18-1.22-.8,1.44,0,1.9-.21,2.38-.78l-1,.45a1.44,1.44,0,0,1-.39-.07c-.15.17-.38.22-.93.27,0-.12-1.81-.68-.94-.81-2.23.71-1.78-1.08-3.12-.63-.43-.06-.53-.51.2-.58,1.11.52,1.63-.44,2.64-.37-.41-.19-1.06.44-1.61.18-.1-.31.79-.57,1.24-.75l.27.13.65-.5c-.72-.07-1.22.49-1.6.05.3-.13-.08-.57.5-.57,1,.2,2.31,0,2.56.4-.1-.31-.28-1.31-1.63-.89l0-.38c-.61.24-1.71.93-1.91.16h.29l-1.1-.53.75-.24c-.37,0-.7-.07-.68-.27a5.48,5.48,0,0,1,1.18-.23c-.07-.57-.81-.53-1.23-.6-.1-.32.2-.44,1-.29.19-.44,0-1.2.8-1.49-.64-.59-.31.12-1.28-.24,2.54-.47,1-1.91.73-2.88-2.21.19-.25-.27-2.25-.51.68.22,1.75-.85,2.33,0l-.2-.52c1.23-.29.86.87,2.55.41,0-.55-2.44-1-1.59-1.66,1.55.3-.48-.54,1.22-.29.56.17.38.34.49.54l.31-.1c.52-1.2-1.82-.45-2.86-1.16-.15-.77,1.27-.53,2-.53.31-.09.09-.49-.3-.71.92.52-1,.79-2,.52,1.79-.23.2-1.12-.48-1.38-1.94,1-.14.75-2.21,1.66.55.18,2.15.24,1.46.82-.77-.43-.89,0-1.16.08.93-.07.36.45.73.66-.75.14-2.1-.48-2.51.14l2.16.22c-.34.23-1.58-.17-1.09.38-1.12-.34-1.76,0-2.06-.73-1.89.79.91,1.37,1.68,2.06-.13-.07-.42-.09-.56-.16.56.16.52.42.65.62-.5.43-1-.38-1.57-.28l0,.72h-.15c.29.2.48.38-.06.44-.69-.24-1.41-.34-2-.5l1.49.8c-.71-.1-1.25.6-1.75,0l.27,1.14-1.46.07c.25.28.54.29.72,0-.34.39,2.51,1.73-.35,1.51,1.2.9.73,1.22,1.47,2.29-1.35-.82-1.7,1-2.33.09-.63.53,1,.62,1.19,1a3,3,0,0,1-2.59-.17l.67.48h-.29l.83.41c-.78.46-1.46.12-1.66.59l1.29.07-.75.34a.71.71,0,0,1,1,.47h-.29l.26.4c-.8-.38-.27.38-1.2.22,0,.35,0,.36.22,1l.88-.14c.79.79-1.31.08-1.36.75l1-.08c-1.68,1,1,1.59-.06,2.35-.25-.4-1.42-.24-1.13-.25.38.6.18,1.62,1.44,2.18-1.46.31-1.9.39-2.52,1.09.12.47.26.53,1.12.63-.54.5.35,1.31-.71,1.4.85,0-.15.43.59.63l-.43.08,1-.11c-2.21,1,1.38,1.27-.53,2.24l-.28-.12.42.32a9.34,9.34,0,0,1-1.3,0l-.07,1.63.74-.39c.13.33,1.13.48.54.92-1.57-.51,0,.53-1.17.74l-.43-.31c.13.46.13.46,1.15.33.41.58-1.9.6-.75,1.06v-.4c.58-.18,1.43,0,1.43.3-.15.08-.58.31-.73.12.43.44,0,1.21.4,1.38a1.48,1.48,0,0,1-1.3.16c1,.94-.15.49.83,1.43l-.57,0,.71.28-1.16.63.72-.26c.14.33.57.49.28.92l-.86-.07c.57.9-1.31,1.26,0,2-.15.08-.44,0-.58-.09,1.43.68-1.45.8.27,1.46-.29,0-.63.11-.88.11l.59.32-1.15.1,1.73.12-1.16.37.57.09c-2.15.66-.42,1-2,1.8l1.44-.27c3.18,1-1.3,3.43.31,4.94l-1.15.12,1.44.52c-.86.49-1-.1-1.58.09.72.67,1.73.09,2.17.92-.72.54-.87-.05-1.3-.2.67.74,1.45,1.85.89,2.51a1.52,1.52,0,0,0,.42,0c.59.47.17,1.25.32,1.83-.53.06-.64-.08-.76-.21,0,.22-.37.56.19.67l-1-.09c-.13.49.89,1.24-.26,1.5.43-.12,1.29-.21,1.29.19-1.72.46.88,1,0,1.72-.43,0-.58-.46-.58-.33-.42.38.43.55,1,.75h-.72l1.17,1.33c-1.72.46.45,1.34-.84,1.42,0,.53.71-.55,1,.08-.71.28.44.55-.71.68l-.14-.05.15.44-1.16-.13a3.46,3.46,0,0,0,2.32.4c-.58.46,0,.92-1,1.23l-.29-.1c.58,1-2.86,2.16-.83,2.72-.15.08-.44.11-.44,0v.66l-.86,0,1.44.89-.57.07a6.34,6.34,0,0,0,.6,2.67l-.29-.1c1,.87-.43,1,.3,1.66a.53.53,0,0,1-.25,0l.11.64-.58-.07c1.29.32-1.44,1.57-.43,1.14a6.17,6.17,0,0,0,2,.57c.15.7-.72.27-1.15.76,0,.52,1,.48.58,1.24l-.58.05c.15.31.58.46.72.9l-.29-.1c1.29.58-1.58,1.11,1,1.38-.43.36,0,.9-1.16,1a12,12,0,0,1,1.85,2.33c-1.87.36.14.18-.88.85l1-.16c.27,1.27-2.09,3-1.54,4.33l-1,.14,1.14.17a20.11,20.11,0,0,0-.46,4.73c.56.35,1.84.84,1.52,1.5l-.14-.05a3.56,3.56,0,0,1,.69,3.4c-.43,0-.72.1-1,0,1.15.2.11.7.1.95l.74-.35c1,.27.09.82-.64,1.05l1.13.46a1.68,1.68,0,0,1-.41.12l.54.06-1.32.38a3.6,3.6,0,0,0,2,.94c-.44.08-.76.6-1,.23l-.28,2,.46-.34c1-.1,1.69.45,1.24.79-.84-.35-1.44.06-2.18.27.56.24.88-.29,1.45-.18.7.3,1.09,1,.64,1.19l-.42-.17c.41.43-1.35.75-1.24,1.19.85.36.11.7,1.85.52.39.56-1.17.29-1.33.49.85.22.35,1.07-.53,1.22,2.58.19-.85,1.62,1.31,1.64l-1.2.54c.58,0,1.88,0,2.14.4a7.17,7.17,0,0,1-2.21.49l2.16.15c-2.19,2.22-.58,5-2.39,7.35.49,1,1.52,2.3,1.24,3.52l-.27-.13-.56,1.22,1-.9c.26.26.68.45.66.71-.87,1.35-1.91,3.13-.8,4.75,2.49,1-2.18.74-.36,1.72-.23-.08-.58-.11-.83-.18a11.42,11.42,0,0,0,2.74,2.74c-2.45-.09.07.72-1.22.63l1,.08c-.61.25-.82.83-1.54.75l1.25.48-1,.05c-.08.64.77,2-1.3,2.36,1.56,1.58,1.1,4.09.7,6.09a1.38,1.38,0,0,1,1,1.32l-1.22.48c.38.47,1.91,1,1.13,1.4a1.07,1.07,0,0,1-.32-.06c.25.48-.4.92.72,1.37-.06.52-.71,1-1.85.85,2,.06-.29,1.1-.29,1.1A83.43,83.43,0,0,0,165.36,268c0,7.48,1.34,15.86,6.76,19.26,1,.24,1.62.86,2.82.66.36.48-1.41.65-.41.77.68-.63,2.58.25,3.83-.35l.24.41c.71.1-.8-.57.49-.44l-1.86-.15a2.07,2.07,0,0,1,1.32-.59c-.73-.32-3.25-.57-2.13-1.28l.11.2c-.06-.59,1.21-.34,1.52-.45l0,.13.95-.48c-.64.36.87,1,.76.69.54-.7-.45.18-.67-.36-.09-.33.9-.22,1.48-.19l-.05-.6c.86,0-.06.4.84.17l-.9-.76c2.2-.1-1-.84,1-1.14.5.55.73,0,1.44.07l-.09-1.32c.3-.12.67.36.56.16.61-.24-.53-.42-.51-.55.61-.11,0-1,1.45-.92,1-.87-1.84-.42-1-1.23.89-.09.2.66,1.12.31l-.31-.87c.42.09,1.42.2,1.23.52,1.21-2.31,5.89-3.48,4.74-5.65,1.06-.28.7.23,1.39.46-1.36-1.58,2.35-2.14,2.25-3.47l-.87,0c2.73-1.79,1.15-4.05,2.31-6.12l-.61.24c-.83-.3-.91-.76-1.3-1.11.44-.05,1.85.27,1.5-.34a1.85,1.85,0,0,1-1.06.29c2.28-1.76,1.77-5.57,2.89-8.52-.64-4,1.07-8.37.52-12.32.08.6-2.07.35-1.58-.1,3.62-1.27-.62-2.15,1.85-3.44-1.18-2.29,1.93-4.4-.89-6.51l1-.06c.46-.33-.25-.41-.36-.74h.29c.37-.8-.68-1.75-.2-2.22h-1.16c-.11-.47.89-.27.22-.74h.58l-1.11-.54c2,0,.13-1.34,1-1.74-.37-.61-1.28-1.75-.89-2.69,1-.2,1-1.35,1.48-2.09A14.8,14.8,0,0,1,197,217l-1.31.09-.11-.47c.29,0,.44-.07.58,0,1.48-.43-.5-1.07.4-1.49-1.17.29-.17.34-.19.61-.6.42-1.89.1-1.26-.45h.29l-.71-.33c1-.08,1.48-.43,2.5-.52-.32-1.55-2.12-2.52-1.72-4.15,1.14.11-.36-1.14,1.64-.92-.81-.93-1.6.25-3-.12,0-.27-.55-.52.18-.61.49.1,1.2-.29,1.39-.08l-.19-.63c.15-.07.43.05.57.12-1.23-1.25,1.15-2.42-.07-3.52-.72,0-.18.48-.9.44-1.52-1.09,1.22-1.14.12-2.18l1,.17c-.71-.32-1.57-.41-.82-1.06,1.17-.18,1,.44,1.56.68a1,1,0,0,0-1.39-1c-.42-.46.6-.71.9-1-.29,0-.74.51-1.3.26a4,4,0,0,0,.55-2.54,4.82,4.82,0,0,1,.87-.05C195,197.67,197.61,197.53,197.2,196.66Z" transform="translate(-148.64 -92.66)"/><path class="cls-1" d="M186.16,155.13l-.14.34a2,2,0,0,1,.86,0Z" transform="translate(-148.64 -92.66)"/><path class="cls-1" d="M187.47,170.07a2,2,0,0,0,.33.08A.45.45,0,0,0,187.47,170.07Z" transform="translate(-148.64 -92.66)"/><path class="cls-1" d="M190,173.45c-.28-.23-.56.05-.84.22A2.75,2.75,0,0,0,190,173.45Z" transform="translate(-148.64 -92.66)"/><path class="cls-1" d="M182,147.22a1,1,0,0,0,.51,0A1.13,1.13,0,0,0,182,147.22Z" transform="translate(-148.64 -92.66)"/><path class="cls-1" d="M180.88,124.42c-.06,0-.09.06-.18.1A.29.29,0,0,0,180.88,124.42Z" transform="translate(-148.64 -92.66)"/><path class="cls-1" d="M179.1,125.75c0,.07,0,.15.18.25C179.33,125.89,179.24,125.81,179.1,125.75Z" transform="translate(-148.64 -92.66)"/><path class="cls-1" d="M183.16,152.74c.05.08.15.15.4.19C183.51,152.8,183.34,152.76,183.16,152.74Z" transform="translate(-148.64 -92.66)"/><path class="cls-1" d="M179.55,126.25l-.1.32h.22Z" transform="translate(-148.64 -92.66)"/><path class="cls-1" d="M181,124c0,.13,0,.29-.13.4C181.19,124.25,181.19,124.13,181,124Z" transform="translate(-148.64 -92.66)"/><path class="cls-1" d="M179.61,139s0,0,0,0C180.16,139.2,179.93,139.07,179.61,139Z" transform="translate(-148.64 -92.66)"/><polygon class="cls-1" points="32.99 34.86 32.95 34.91 33.27 34.98 32.99 34.86"/><path class="cls-1" d="M181.41,122.65a.28.28,0,0,0,.22.15.93.93,0,0,0,.12-.18Z" transform="translate(-148.64 -92.66)"/><path class="cls-1" d="M181,134a6.17,6.17,0,0,0-1-.05C180,134.09,180.23,134.14,181,134Z" transform="translate(-148.64 -92.66)"/></svg>