<svg id="Capa_1" data-name="Capa 1" xmlns="http://www.w3.org/2000/svg" viewBox="0 0 1920 195.12"><defs><style>.cls-1{fill:#18181b;}.cls-2{fill:#18181b;}</style></defs><path class="cls-1" d="M0,123V0H1920V124c-6.06,0-4.56,5-4.64,8-.11,3.8-1.58,5.56-5,6.09a40.37,40.37,0,0,1-7.4.8c-4.07-.12-7.65-1.14-8-6.31a5.29,5.29,0,0,0-1.62-3c-2.55-2.57-5-3.83-8.61-.93-2.25,1.83-4.78,5.84-9.43,1.25-.84,3-1.53,5.45-2.06,7.34-6.83.82-3,8-6.53,11l-2-5.64-6.29,1.12-.79-4.54-1.55-.5c-1.82,4.22-3.63,8.43-5,11.67-2.77-3.34-6-7.78-9.75-11.63-3.47-3.5-6.1-2.87-8.93,1.24-.64.93-1.34,2.6-2,2.62-5.56.12-11.24.58-16.65-.37s-10.25-2.3-14.79,2.14c.76,2.73,1.54,5.54,2.35,8.48a15.29,15.29,0,0,1-2.52,1.15c-11.3,2.52-22.71,3.41-34.19,1.66-2.7-.42-6.14-1.28-7.62-3.19-3.14-4.05-7.22-3.74-11.23-3.83a82.37,82.37,0,0,0-10.94.92c-6.09.69-11.9.29-17.32-3.08-1.56-1-4.32-2-5.43-1.25-1.85,1.19-3,3.68-4.12,5.77s-2,4.44-3.06,6.67l-1.62-.33c-.75-3-1.5-5.91-2.31-9.07-1.22.24-3,0-3.58.79-4.59,5.59-9.4,3.95-14.66,1.12s-7.69-1.94-11.82,2.46c-1.09,1.15-2.88,1.65-4.6,2.58.17,1.57.39,3.69.58,5.42l-5.69,1.79c-1.91-9.51-1.91-9.51-4-9.85-.53,2.67-1.07,5.36-1.61,8-4-8.07-12.6,1.07-16.11-5.69-.34,1.91-.58,3.29-.57,3.23-2.75.62-5.08.5-6.53,1.57-8.09,6-8.48,6-15.24-2.34-6.63,4.44-13.45,8.8-20,13.47-6.23,4.43-11.25,3-14-4.12a45.66,45.66,0,0,0-2.71-5.09c-6.15,4.67-10.5,11-18.56,10.44-.91-7.88-1.1-8.2-6.72-7-1.56.33-2.86,1.93-4.27,2.94a49.72,49.72,0,0,0-3.1-4.92,49.9,49.9,0,0,0-4.37-4.32l-2,1.71-4.28-5.84c-1.52,4.3-2.75,7.78-4,11.31L1525,157.3v24.38c-1.68-1.26-2.23-3.54-3.07-3.65-5.85-.77-5.8-4.91-6.22-9.3-.37-3.95-1.63-7.92-7.06-6.72-1.6.35-3,1.64-5,2.79v-7.87c-2.43,2.72-4.07,4.51-5.66,6.35-4.13,4.79-6.9,4.31-9.13-1.49-.37-.94-1.35-2.3-2.06-2.31a5.53,5.53,0,0,0-3.26,1.61,19.49,19.49,0,0,0-2.39,2.92c-2.24-1.85-3.8-3-5.16-4.28a52.31,52.31,0,0,1-3.4-4c-1.16,1.85-3.32,3.71-3.29,5.53.11,6.94,1.13,13.86,1.4,20.8.12,3.29-.69,6.62-1.08,9.93l-1.53,0c-.42-3-.84-6-1.36-9.76l-2.52,3.65-5.21-15-1.62-.11-6.56,10.16c-2.31-5.47-4.17-9.86-6-14.26l-.87.33v8.71l-3-1.06c-.18,1.48-.34,2.84-.58,4.84l-5.07-3.64-4.44,10.92-3-4.18v5c-4.34-2.84-8.9-5.93-13.56-8.84-2-1.27-4.3-2.19-7.12-3.6-.25.89-.66,2.29-1.06,3.69a5.81,5.81,0,0,0-.66.74c-3.33-1.44-6.57-3.71-10-4.07-3.18-.34-7.34-.45-9.1,3.66-1.33-2.83-2.63-5.59-4-8.63l-6.13,3.93-7.3-4,5.11-3.67c.58,1.59,1,2.85,1.54,4.24l6-2.72L1370.62,162c-.47,2.85-.83,5-1.29,7.82l-8.55-10.24,2.62-1.76-5-2.91-2,5.39c-2.22-3.48-3.78-5.92-5.33-8.38-.61-.95-1-2.23-1.81-2.85-2.78-2-5.72-3.78-8.61-5.64l-1.14-1.23-.49.23c.28.58.57,1.15.86,1.73,2.05,5.87,4.1,11.75,6.2,17.74l-11.41-1.09c-.2-.53-.59-1.62-.91-2.5l-4,2c1.09,6.42,2.26,13.33,3.43,20.24l-1.46,1-14.27-10c.22,2.8.36,4.69.51,6.58l.09-.12-5.12-6.66-1.5,5.6c-6.55-.48-9.32-2.86-10.49-8.6a7.71,7.71,0,0,0-1.45-2.27l-2.24,3c-1.5-3.45-2.47-6.06-3.74-8.52-1.65-3.17-4.27-5.27-7.56-2.61-2.67,2.16-4.22,1.57-6.25-.49a66.42,66.42,0,0,0-5.94-5.31c-5.08-4.07-10.22-8.06-15.38-12-.27-.21-.93.08-1.53.15-.12,1.52-.23,3-.34,4.45-1.65-5.4-8.67-6.45-9.16-12.94-.26-3.31-4.75-6.18-7-9.46s-4.75-4.31-8.73-2.65c-3.13,1.3-6.71,1.5-10,2.18-1.83-5,1.59-11.57-5.27-15.06-1,5.14-2,9.94-3,15.17-7.56-1.18-15.32-3.79-21.84,3l3.95,8.23c-15.74,4.64-31.15,6.84-46.85,5.05-4.51-.51-8.8-3.27-13.13-5.15-9.55-4.16-19.46-3.46-29.49-2.76-8.09.57-16.34,1.38-24.31.38-5.67-.72-10.81-5.14-16.51-6.35-12.33-2.62-24.82-5.54-37.32-6-21.44-.73-42.94.5-64.42.64-8.94.07-17.88-.53-27.16-.84l-.52,2.43c-3.85-1.48-4.3-1.37-5.2,2.17-.72,2.78-1.13,5.64-1.67,8.47l-1.18,1.95c-.69-10.95-6.47-6.3-10.93-5.93L915,122l-7.51,9.14,3.23,5.42-1.64,1.31c-.9-1.36-1.56-3-2.76-4a141.81,141.81,0,0,0-12.89-10.11c-3.46-2.29-7.51-2.44-10.18,1.45-1.58,2.3-3,3.66-6,3.81-5.74.28-11.51,2-17.15,1.59-7.39-.58-14.59-2.12-21,4l4.13,7.72c-2.87,1-5.29,2.26-7.82,2.57-12,1.47-24.08,3.06-36.17,3.78-4.61.27-9.43-1.39-14-2.66-5-1.4-9.84-4.56-14.86-4.8-8.73-.43-17.56.58-26.31,1.38-10.5,1-20.68,1.64-30.73-3.28-12.59-6.17-26.47-6.44-41.23-7.47,2.65,4.45,4.53,8.12,6.9,11.44,2,2.87,1.91,5.13-.77,7.23a14.3,14.3,0,0,1-2.73,1.41c3.81,6.45,3.41,8.08-1.88,11.4-1.12.7-2.48,1.06-3.51,1.86-1.85,1.42-3.53,3.06-5.62,4.9v-5.83l-.94-.49-3,7.12c-7.07,1.13-3.63,8.6-7,11.6-.8-2.11-1.59-4.22-2.38-6.29l-7.19,1.19L642.35,172c-2.24,2.73-4.65,4.59-5.49,7-.8,2.25.07,5.08.19,7.4-4.5-4.61-8.66-9.55-13.53-13.65-4.12-3.48-7.37-2.53-10.53,1.82-.56.77-1,2.21-1.65,2.25-6.63.46-13.36,1.51-19.88.78s-12.25-1.65-17.42,3.48c1,2.28,2.21,4.81,3.46,7.54a20.73,20.73,0,0,1-2.84,1.48,107.51,107.51,0,0,1-41.89,4.61c-2.84-.26-5.6-1.82-8.3-3-2.4-1-4.58-3.25-7-3.48-7.21-.66-14.59-1.44-21.73-.64-13.27,1.48-26.46,4.49-38.62-4a5.46,5.46,0,0,0-2.39-.63c-10.7-1.38-21.44-4.12-32.09-3.81-22.26.66-44.47,3.13-66.73,4.46-12,.71-24.28,2.24-34.6-6.5a7.08,7.08,0,0,0-3.61-1.57,59.56,59.56,0,0,0-7.32-.07c-2.94.06-5.89.37-8.82.25-5.6-.23-11.35-1.67-16.74-.79-6.69,1.1-13.08,4.05-19.2,6.06-8.21-3.88-16.4-9.25-25.38-11.65a312.17,312.17,0,0,0-43.57-8.13c-20.14-2.41-40.44-3.55-60.67-5.28-3.61-.31-7.57-.34-7.11-5.87.07-.78-1.19-1.67-2.31-3.12-1.07,3.4-1.91,6-2.9,9.12-6.44-8-15.5-8.26-24.28-8.95-9.31-.73-17.32-3.45-21.77-12.7a19.1,19.1,0,0,0-2.43,2c-4.31,5.15-9.26,5.7-15.46,3.32-7.54-2.88-15.36-5.09-23.15-7.22C24.44,129.18,12.2,126.16,0,123Z"/><path class="cls-2" d="M1339.84,144.16c-.29-.58-.58-1.15-.86-1.73l.49-.23,1.14,1.23Z"/><path class="cls-1" d="M1317.94,178.1l1,.21-.33.67-.59-1Z"/><path class="cls-1" d="M1406.15,178.87l.47.93-1.13-.19A5.81,5.81,0,0,1,1406.15,178.87Z"/></svg>