<svg id="Capa_1" data-name="Capa 1" xmlns="http://www.w3.org/2000/svg" viewBox="0 0 1920 133.36"><defs><style>.cls-1{fill:#18181b;}</style></defs><path class="cls-1" d="M0,103.73c5.66-.74,11.35-1.3,16.94-2.37,1-.19,1.52-2.55,2.39-3.82,1.08-1.57,2-3.45,3.53-4.45s3.54-.78,5.26-1.37c14-4.75,18.54,5.45,20.06,15.85,7.83.38,15.77.52,23.65,1.24,5.07.47,10,2.15,15.08,2.66,8.88.88,17.8,1.63,26.71,1.76,5.94.09,11.91-1,17.86-1.55-.36-5.32,1.49-8.17,6.53-9.21,3.69-.76,7.61-.46,11.22-1.42C155.6,99.36,161.81,97.11,168,95c.56-.19.79-1.29,1.19-2q2.22-3.67,4.46-7.35l1.35.56c-.57-.66-1.7-1.36-1.64-2,.66-6.82-4.57-7.45-9.09-8.8a7.6,7.6,0,0,0-2.94-.51c-12,1.45-22.79-4.25-34.36-6.49,4.81-.25,9.62-.76,14.42-.69,14.3.19,28.6.76,42.9.88a108.89,108.89,0,0,0,17.4-1.19c3.64-.55,7.08-2.4,11.67-4-9.3-6.78-18.5-13.46-27.66-20.19-1.6-1.17-3-2.58-4.54-3.88l1.05-.89c11.43,6.43,22.79,13,34.35,19.19a18.88,18.88,0,0,0,8.87,2.13c13.41-.25,26.49.77,39.23,5.65,4.72,1.82,10.19,1.67,15.32,2.46,1.12.17,3.07.36,3.2.88,1.15,4.85,5.16,3.62,8.29,4.07,16.46,2.36,33.1,3.84,49.34,7.25,10.12,2.12,19.86,5.21,30.32,3.36a1.9,1.9,0,0,1,1.42.2c4.59,4.66,10.21,3.23,15.52,2.34,4.22-.7,7.53-.2,10,4l-3.31,1.31.06,1.13c20.49,1.08,41,2.35,61.49,3.17,15.29.62,30.61.7,45.93.91,4.15.06,8.32-.59,12.45-.38,5.71.3,11.59.37,17,1.87a71.4,71.4,0,0,0,29.13,2.17c1.56-.21,3.25.72,4.91.93A96.53,96.53,0,0,0,578,102.42c3.28,0,6.54-1.21,9.85-1.47,1.48-.12,3,.89,4.58,1.16,2.21.37,4.56,1.07,6.68.7,29-5.1,58-10.37,86.93-15.58,10.14-1.83,20.33-3.43,30.42-5.51a34,34,0,0,0,10-4C748.15,65,770,52.71,794.62,46.37c4.82-1.24,9.59-2.69,14.46-3.65,2.32-.45,4.82,0,7.24.1,6.7.38,13.41.84,20.12,1.21.8,0,2-.74,2.39-.41,6.58,5.48,13.68,1,19.4,1.06l2.88,4.55-3.85,1.44c4.42,1,9.63-1.28,13,4.61L824.76,67.19l0,1a5.86,5.86,0,0,1,1.82.46c.93.6,2.13,1.25,2.46,2.16.19.5-1,1.7-1.82,2.35-1.67,1.38-3.46,2.61-5.21,3.9l.54,1.13h18.48l.33,2-13.19,4,.14.5h5.83c1.43,4.53,6,7.32,11.51,6.81,3.14-.29,6.24-1.28,9.37-1.34,4.45-.09,8.78-3.16,13.55.85,2.08,1.75,6.68.44,10.13.63A6,6,0,0,1,882.24,93L840.72,99.1l.07,1.68c8.07.59,16.13,1.47,24.2,1.72,17.31.53,34.63.6,51.93,1.13,6,.18,10.36-1.65,12.45-7.35l5.49-.35.43-1.46c-2.75-1.11-5.44-2.38-8.25-3.27s-5.52-1.23-8.24-2c-4.14-1.13-4.89-3.26-1.73-6.25,7.59-7.18,15.57-13.15,27.14-12.53,21.58,1.15,43.2,1.53,64.8,2.3a19.52,19.52,0,0,1,6.4,1c17.28,6.87,35.56,7.18,53.6,7,33.28-.4,66.54-2,99.81-3.21a48.48,48.48,0,0,0,5.31-.76l.24-1.47-33.68-9c.07-.46.13-.92.2-1.38l70.7,10.06-12.2-8.59.5-1.19c4.07,1.77,8.3,3.24,12.17,5.37,11.47,6.35,22.84,7.3,34.47.44.93-.55,2.58.18,3.91.26,2.3.14,4.65.61,6.9.31,20.27-2.69,40.46-6.67,60.82-7.9,13.42-.82,27.26,1.28,40.58,3.82,17.92,3.42,35.54,8.44,53.24,13,3.15.81,6.68,1.94,9,4.07,7.48,7,15.68,6.11,24.08,2.94,16.93-6.38,33.65-13.37,50.67-19.49,13.74-4.94,27.68-9.46,41.76-13.3,13.89-3.79,28.08-6.49,42.27-9.7l-10.43-6.14c10.26-.62,18,7.57,27.76,3.53l-12.62-4.72c.06-.41.13-.81.19-1.22,4.09.48,8.37.33,12.22,1.56,16.24,5.16,32.85,4.14,49.47,3.83,18.56-.35,36.56,3,54.3,8.32a260.26,260.26,0,0,0,27.93,6.71c6.94,1.29,14.09,1.42,21.17,2.8l-4.21.33c5.83,5.42,11.91,8.23,19.65,6.12,1.24-.34,2.83.84,4.28.92a31.08,31.08,0,0,0,4.57-.53c1.57-.16,3.27-.73,4.69-.33,20.34,5.71,40.81,11.35,58.22,24,10.76,7.8,23,7.25,35.19,8.66,7,.81,13.81,3,20.66,4.78,9.1,2.33,18.17,4.81,27.25,7.22v59H0Z" transform="translate(0 -36.37)"/><path class="cls-1" d="M181.2,39.36l-2-1,.17-.78,2.84.85Z" transform="translate(0 -36.37)"/></svg>