<svg id="Capa_1" data-name="Capa 1" xmlns="http://www.w3.org/2000/svg" viewBox="0 0 1919.01 182.64"><defs><style>.cls-1{fill:#18181b;}</style></defs><path class="cls-1" d="M1,0H1920V111.9c-.82,2-2.16,4-2.38,6.09-.7,6.76-1.83,8.16-8.55,8.71-2,.16-4.23.57-5.88-.17-2.18-1-4.87-2.64-5.6-4.64-2.7-7.33-5.54-8.39-12.23-4.1-2.18,1.4-4.67,4.6-8.18,0l-2.16,7.26c-7.67.45-3.72,8.37-7.3,11.34l-1.85-6-6.16,1.28c-.3-1.59-.59-3.1-.88-4.6l-1.71-.45-4.92,11.32c-2.66-3.16-6-7.72-9.91-11.6-3.26-3.2-6-2.45-8.53,1.36-.63.94-1.2,2.74-1.82,2.75-5.72.07-11.46,0-17.16-.36-4.93-.33-9.82-1.16-15.61-1.87L1803,141c-14.16,3.34-27.87,5.27-41.78.91-1.19-.37-2.12-1.5-3.24-2.17-3.45-2.07-6.73-5.25-10.44-5.86-6.43-1.06-13.14-.82-19.71-.55-6.89.28-14.09.72-19.43-3.93-7.54-6.57-16.58-9.28-25.75-10.37-15.56-1.84-31.3-2.08-47-3q-15.57-1-31.14-2.1a4.84,4.84,0,0,1-3.06-1.09c-4.7-5.28-9.35-9.23-17.58-8.87-7.49.33-15.1-2.39-22.7-3.42-2.7-.36-6.28-.65-8.15.75-2.92,2.19-4.81.74-6.89-.34a41.06,41.06,0,0,1-5.51-4.06c-3,.44-5.31,5.54-9.53.46-.79,3.21-1.4,5.67-2,8.14-2.34-.34-2.34-.34-5.19,11.59L1521,111l-7.61,1.55-1.72-4.9c-3.89,4.53-8.15,8.17-3.62,14.37a6,6,0,0,1-2.16-1.42c-3.69-3.77-7.06-7.92-11.12-11.22-4.62-3.76-7.16-2.94-10.42,2.09-.49.76-1,1.8-1.79,2a41.73,41.73,0,0,1-21.15,1.12c-4.43-.9-9.19-.16-14.38-.16l4.86,11.9c-12.6,4.33-25,6.77-37.82,5.47-3.66-.37-7.28-1.81-10.75-3.16-4.64-1.8-9-5.3-13.72-5.75-8.14-.77-16.45.16-24.69.51-7.64.32-14.75-.9-21-5.76a20.18,20.18,0,0,0-5.7-2.8c-17.19-6.13-35-7.93-53.17-7.76-1.75,0-3.49,1.18-5.16,1.79-1.69-.56-3.68-1.59-5.76-1.83a41.46,41.46,0,0,0-8.84,0,6.84,6.84,0,0,0-4.39,2c-.53.7.64,2.7,1.08,4.11.24.77.55,1.52,1.16,3.22-2.67-2.44-4.74-4-6.36-5.87-5.86-6.87-13.73-4.54-20.87-4.2-3.83.19-7.56,2.6-11.19,4-2.87-5.52,1.17-12.53-6.21-15.55-.91,5.22-1.75,10.05-2.54,14.55H1192c2.21,4.38,3.94,7.79,5.77,11.43a35.86,35.86,0,0,1-4.55,1.84,130.58,130.58,0,0,1-42.3,3.89c-3.07-.23-6.69-.62-9-2.34-7.85-5.88-16.69-6.72-25.89-6.25-6,.29-11.86,1.08-17.8,1.58-8.69.73-17.17.36-25-4.25a34.49,34.49,0,0,0-7.63-3.33c-17.32-5.12-35.11-6.09-53-5.79q-28.53.48-57.07.89c-5.58.08-11.16,0-17.33,0,0-.32-.13.71-.37,2.08-3.62-2.8-4.65-.34-5.29,2.59-.6,2.67-1,5.37-1.75,9.23l-3.63-7-8.26,2-1.14-4.77c-5.84,3.28-8,7.47-6.21,11.44l-.9,1c-5-4-9.85-8.23-15.14-11.79-3.46-2.33-7.42-2-10,1.86-1.32,2-2.83,2.52-5,3.32-7.34,2.67-14.54,2-22,1.32-5.91-.56-11.92-.11-19-.11l6.44,12c-1.75.66-3.08,1.31-4.49,1.68a144,144,0,0,1-45.19,4.36c-3.2-.16-6.37-1.46-9.5-2.4-5.58-1.68-11.06-4.6-16.72-5-7.82-.51-15.77.74-23.65,1.46-9.72.88-19.49,2.32-28.74-2.18-15.78-7.68-32.77-7.67-50.93-8.62,4.25,7.43,7.91,14,11.71,20.42s3.29,8.59-3.73,11.86c-2.25,1.05-5,1-7.54,1.44l-1.35-1.67c-.79,2.79-1.59,5.57-2.38,8.35l.12.09c-2-3.16-3.35-2-4.18.69-.94,3-1.56,6.14-2.59,10.31-1.15-3.28-1.85-5.26-2.63-7.45l-7.59,1.68c-.19-1.32-.43-3-.88-6.27-2.5,3.12-4.77,5-5.69,7.4-.83,2.13-.18,4.83-.18,7.32-.69-.84-1.54-2-2.49-3-2.92-3.14-5.63-6.52-8.87-9.29-5.41-4.64-9.19-4.06-13.61,1.42a3.76,3.76,0,0,1-1.74,1.43c-7.19,1.65-14.28,2.29-21.75.68-5.07-1.09-10.58-.21-16.52-.21,2,4.43,3.51,7.81,5.11,11.35a14.81,14.81,0,0,1-3,1.44c-17.92,3.59-35.67,9.88-53.66-.82-7.43-4.41-16.38-3.1-24.8-1.86-12.95,1.9-25.94,4.49-37.9-3.72a5.66,5.66,0,0,0-2.34-.75c-10.14-1.35-20.32-4-30.41-3.72-22.29.63-44.53,2.91-66.81,4.23-12.89.76-25.95,2.47-37.4-6.47-2.29-1.8-6.5-1.4-9.85-1.55-2.91-.13-6,1.14-8.77.5-11.79-2.75-22.89-2-33.33,4.66a5.55,5.55,0,0,1-4.56.28c-7-3.38-13.58-7.83-20.83-10.44a116.2,116.2,0,0,0-25.43-6.21c-21.49-2.52-43.1-4.12-64.65-6.2-7.81-.75-15.6-1.78-22.56-2.58-1.21-3.29-2-5.48-2.81-7.68l-1.31.37c-.8,2.56-1.6,5.12-2.56,8.21-6.29-7.72-14.75-8.1-23-8.83-9.79-.87-19.06-2.49-24.26-13.56a42.4,42.4,0,0,1-2.56,3.55c-3.85,4.2-8.07,5-13.69,3-10.23-3.54-20.76-6.24-31.19-9.21S11.42,112.89,1,110Z" transform="translate(-0.99)"/><path class="cls-1" d="M911.57,122.53c.27.85.53,1.7.79,2.55l-1.69-1.55Z" transform="translate(-0.99)"/><path class="cls-1" d="M663.43,159.9l.15-.12a1.38,1.38,0,0,0,0,.2A.83.83,0,0,1,663.43,159.9Z" transform="translate(-0.99)"/></svg>