<?xml version="1.0" encoding="utf-8"?>
<!-- Generator: Adobe Illustrator 26.0.0, SVG Export Plug-In . SVG Version: 6.00 Build 0)  -->
<svg version="1.1" xmlns="http://www.w3.org/2000/svg" xmlns:xlink="http://www.w3.org/1999/xlink" x="0px" y="0px"
	 viewBox="0 0 1920 237" style="enable-background:new 0 0 1920 237;" xml:space="preserve">
<style type="text/css">
	.st0{fill:#18181b;}
	.st1{fill:none;stroke:#2E2E31;stroke-width:7;stroke-miterlimit:10;}
</style>
<g id="Capa_1">
</g>
<g id="Capa_1_copia">
	<g>
		<g>
			<g>
				<g>
					<g>
						<path class="st0" d="M-179.4,352.1c2.4-0.7,5.2-1.7,8-3.1c1.4-0.7,2.9-1.4,4.4-2.2c1.5-0.8,3.1-1.6,4.7-2.5
							c6.4-3.5,13.3-7.5,20.2-11.1C-154,336.4-165.8,342-179.4,352.1z"/>
						<path class="st0" d="M-141.7,333.1c0,0,0.1-0.1,0.2-0.2c-0.2,0.1-0.3,0.2-0.5,0.2C-141.9,333.2-141.8,333.1-141.7,333.1z"/>
						<path class="st0" d="M1807,183.8c-4.2,0.6-9.1,1.2-13.9,1.9C1797.8,185.3,1802.5,184.7,1807,183.8z"/>
						<path class="st0" d="M602.9,321.9l2.9-5.5c2.4,0.1,4.6,0.2,5.8,0.3l-11.3-150.8c-11.2,2-17.5,3.3-21.6,3.7
							c-4.1,0.5-5.8,0.3-7.8,0.1c-1.9-0.1-4-0.1-8.6,1c-4.6,1.2-11.8,3.3-23.4,8.6c-4.5,4.3-12.6,8.9-22.1,14.3
							c-9.5,5.3-20.3,11.5-30.5,18.1L247.4,368l291.6-14.4c14.3-0.7,27.7-1.2,33.6-3.7c-0.1,0.3,4.6,0.1,9.2,0.1
							c4.6,0,9.1,0.3,8.6,1.6c5.4-4.8,19.4-2.7,31.3-4.8c4.2-1.6-3.3-1-6.6-2c9.1-1.3,18.2-2.5,27.3-3.7c10.8,0.5,13.7,2.9,2.1,4.2
							c9-0.5,22.2-1.4,38.6-2.2c8.2-0.4,17.2-0.9,26.9-1.5c9.7-0.5,20.1-0.9,31-1.5c43.6-2,95.8-3.8,148.3-4.8
							c104.9-2.2,210.4-0.3,249.1-0.4c-9.9-3.4-33.8-1.8-42.8-6.9c20.5-2.6,30.1,1.6,39.2-1.3c1.9,1.9,5.7,3.1,10.5,3.8
							c4.8,0.8,10.7,1.2,16.8,1.6c12.2,0.8,25.3,1.6,32.9,5.8l6-4.1l10.1,3c8.8-0.1,16-0.2,20.9-0.3l8.5-162.3
							c-29.1-0.4-30.9-0.3-34.7-0.7c-1.9-0.2-4.3-0.6-10.7-1.3c-6.5-0.7-17.1-1.6-35.5-2.9c-11.8-0.5-22.1-0.6-31.4-0.5
							c-9.2,0.1-17.3,0.4-24.8,0.7c-7.5,0.3-14.3,0.5-20.9,0.4c-6.6,0-13-0.3-19.6-1.2c3.9,0.2,14.3,3.3,1.9,3.9
							c-1-1.9-9.2-1.6-18-1.3c-8.8,0.4-18,0.7-21-1.3c-6.1,0-19-0.3-28.7,0c-9.7,0.3-16.3,1.3-9.7,4.1c-6.6-2.7-42-4.3-20.9-6.2
							c-6-0.2-11.8-0.5-17.3-0.6c-5.5-0.1-10.5,0-14.8,0.6l15.3,1.5c-10.1,0.2-19,0-27.2-0.2c-8.2-0.2-15.6-0.3-22.5-0.5
							c-13.9-0.3-26,0.3-39.2,3l15,1.7c-6.1,0.2-11.9,0.5-17.3,0.6c-2.7,0.1-5.4,0.1-7.9,0.2c-2.5,0.1-5,0.1-7.3,0
							c-9.3-0.1-16.8-1-21.8-3.3l24.9-2.6c-10.1,0.5-19.2,0.8-27.7,1.4c-8.5,0.6-16.4,1.2-24.1,1.9c-1.9,0.2-3.8,0.3-5.7,0.5
							c-1.9,0.2-3.8,0.4-5.7,0.6c-3.8,0.4-7.6,0.9-11.4,1.4c-7.6,1-15.5,2.1-23.8,3.6c4-0.3,8.1-0.7,12.1-1c-2.5,0.5-5.5,1-9.1,1.7
							c-3.6,0.6-7.7,1.3-12.3,2.1c-4.6,0.7-9.6,1.5-15,2.3c-5,0.8-10.4,1.7-16.1,2.6c-10.7,1.7-21.1,2.9-29.8,3.3
							c-4.3,0.1-8.2,0-11.4-0.2c-3.3-0.3-5.9-0.7-8.1-1.3l-22.2-5.6l-9.8,1.3c-4.7,0.6-9.3,1.6-13.8,3.1c-4.8,1.6-9.5,3.6-13.8,6.1
							c-2.2,1.3-4.3,2.6-6.3,4.1c-1,0.7-2,1.5-3,2.3c-1,0.8-1.8,1.5-2.7,2.3c-3.5,3.1-7,6.8-9.5,10.1c-1.3,1.7-2.6,3.5-3.8,5.3
							c-0.6,0.9-1.1,1.7-1.6,2.6c-0.5,0.8-1,1.7-1.4,2.6c-0.9,1.7-1.8,3.5-2.6,5.2c-0.7,1.6-1.3,3.3-1.9,4.9
							c-0.3,0.8-0.6,1.7-0.9,2.5c-0.3,0.8-0.6,1.7-0.8,2.5c-0.4,1.6-0.8,3.2-1.2,4.7c-0.2,0.8-0.3,1.6-0.5,2.4l-0.2,1.2l-0.2,1.1
							c-0.2,1.5-0.4,3-0.6,4.6c-0.3,3.1-0.4,6-0.3,9c0,3,0.3,5.9,0.7,8.8c0.3,2.9,1,5.9,1.7,8.8c0.7,2.9,1.7,5.9,2.7,8.8
							c1,2.9,2.5,6,4,8.9c0.4,0.7,0.8,1.5,1.2,2.2c0.4,0.7,0.9,1.5,1.3,2.2c0.9,1.5,1.9,3,2.9,4.4c0.5,0.7,1,1.4,1.5,2.1
							c0.5,0.7,1.1,1.5,1.7,2.2c1.2,1.4,2.4,2.8,3.7,4.2c0.6,0.7,1.3,1.3,2,2c0.5,0.5,0.9,0.9,1.4,1.3c0.9,0.8,1.8,1.6,2.8,2.4
							l1.4,1.2l1.4,1.1c1,0.7,1.9,1.4,2.9,2.1l1.5,1l1.4,0.9c1,0.6,1.9,1.2,2.9,1.8c1,0.6,1.9,1.1,2.9,1.6c0.9,0.5,1.9,1,2.9,1.5
							c1,0.5,1.9,0.9,2.8,1.3c0.9,0.4,1.8,0.8,2.7,1.2c7.2,2.9,13.4,4.4,18.7,5.3c5.3,0.9,9.8,1.3,13.5,1.5c1,0.1,1.8,0.1,2.7,0.1
							l2.5,0.1l2.2,0l1,0l0.8,0c17.7-0.2,34.6-0.7,49.8-1.6c30.4-1.7,54.2-4.2,64.6-6.3l-18.1-3.3c11.1-1.5,22.2-3,33.2-4.6
							c-2,0.1-5.8,3.5-9.6,6.7c-3.8,3.2-7.6,6.3-9.3,5.7c4.5-0.2,10.2-0.4,16.8-0.8c3.3-0.2,6.9-0.4,10.7-0.5
							c3.8-0.2,7.8-0.4,12.1-0.7c17-1,37.4-2.2,59.9-3.7c22.5-1.4,47-3,72.4-4.3c3.2-0.2,6.4-0.3,9.6-0.5c3.2-0.1,6.4-0.3,9.6-0.4
							c3.2-0.1,6.5-0.3,9.7-0.4c3.2-0.1,6.5-0.2,9.7-0.3c6.5-0.2,13.1-0.5,19.6-0.6c6.6-0.1,13.2-0.3,19.8-0.4
							c52.8-1,105.8-0.2,149.7,1.1c43.9,1.3,78.6,3.1,94.7,4.3c25.9,3.2,4.4,6.5,4.1,7.1c31.7-0.2,13.8-3.7,40.8-2.2
							c7.3,1-1.7,3-5.8,3.4c11.8,0,22.8,1.8,23.8,0c-14.8-2-8.3-6.7-14.4-10.1l34.8,1.8l-1.7,3c7.8,0.4,20-7.7,54.3-4.7
							c57.9,3.4,121.2,4.1,180.2,4.6c-0.9,1.8-13.3,3.1-25.7,4c4,0,8.9,0,13.9,0.1c4.9,0,9.8,0.2,13.4,0.9c-7.1-1.6-0.9-2.2,5.6-2.5
							c6.6-0.3,13.6-0.5,8-1.1c5.4-1,11-1.8,16.7-2.4c2.9-0.3,5.8-0.6,8.7-0.8c2.9-0.3,5.9-0.5,8.9-0.7c6-0.4,12-0.6,18.1-0.8
							c6.1-0.2,12.2-0.4,18.2-0.6c3-0.1,6.1-0.2,9.1-0.2c3-0.1,6-0.2,9-0.4c5.9-0.3,11.8-0.5,17.4-0.9c11.3-0.8,22-2,31.5-3.9
							c0.7-1.8,5.7-10.3,12.7-22.3c3.5-6,7.4-12.8,11.5-20.1c4.1-7.3,8.4-15.1,12.6-22.9c4.2-7.8,8.3-15.5,12.1-22.9
							c3.8-7.4,7.2-14.4,10.1-20.6c5.8-12.3,9.3-21.1,9.1-23.1c11-1.2,21.9-2.4,25.4-2.2c-1.5-0.8-7.7-0.7-15-0.2
							c-3.6,0.3-7.5,0.7-11.2,1.2c-3.7,0.4-7.2,0.9-10,1.5l-1.5,4.5c-6.6,1.1-10.3,1.5-12.6,1.6c-2.3,0.1-3.1-0.2-3.8-0.6
							c-1.6-0.7-3-1.5-16-0.2c-0.8-1.7,4.7-3.3,13.1-4.7c4.2-0.7,9.1-1.4,14.2-2.2c5.1-0.7,10.5-1.4,15.8-2
							c-9.5,0.8-18.9,1.1-27,1.6c-8.1,0.5-14.7,1.4-18.4,3.7c-4.5,0-6.6-0.3-7.7-0.7c-1-0.4-0.9-1-1-1.5c0-1.1-0.6-2.2-11.3-2.1
							c-3.8,0.5-7.9,1.3-12.2,2c-4.3,0.7-8.8,1.4-13.3,2.1c-4.6,0.6-9.2,1.2-13.8,1.5c-4.6,0.3-9.2,0.3-13.7,0l0.3-0.6
							c-10.8-0.4-20.3-0.2-29.2,0.4c-8.8,0.6-17,1.4-25,2.3c-8,0.9-16,1.6-24.4,2c-8.4,0.4-17.4,0.3-27.3-0.6l4.3-1.2
							c-3.5-0.5-7.9-0.7-12.9-0.8c-5-0.1-10.6,0-16.5,0c-11.9,0.1-25.3,0-38-1.2c7.3,0.8,13.6,3.5-1.8,3.7
							c-7.4-0.7-14.1-1.1-20.5-1.4c-6.4-0.3-12.3-0.5-18.1-0.6c-11.4-0.3-21.9-0.8-32.7-2.5l-20.9,2.8c-25.9-1-70.9-2.7-126.1-4.6
							c-55.2-1.9-120.5-3.8-186.6-4.1c-33-0.1-66.2,0.2-98.3,1.1c-4,0.1-8,0.2-12,0.3c-4,0.1-7.9,0.3-11.9,0.4
							c-7.9,0.3-15.6,0.5-23.3,0.9c-7.6,0.4-15.2,0.7-22.5,1.1c-3.7,0.2-7.3,0.4-10.9,0.6c-3.6,0.2-7.1,0.4-10.6,0.6
							c-28,1.7-53.2,3.4-74.6,4.8c-10.6,0.7-20.4,1.3-29.1,1.8c-8.6,0.5-16.3,0.9-22.7,1.3l4-0.7c-24.1,1.4-51.8,2.8-81.9,3.2
							c-3.8,0-7.6,0.1-11.4,0.1c-3.8,0-7.7,0-11.6,0c-7.8,0-15.7-0.1-23.8-0.3c-1,0-1.9,0-2.9-0.1l-1.5,0c-0.1,0-0.3,0-0.3,0l-0.1,0
							l0,0c0,0,0,0,0,0l0,0.5l-0.2,2l-0.2,2.9c-0.2,1.9-0.4,3.9-0.6,5.8l-0.4,2.9l-0.2,2.2c-0.2,1.5-0.4,3-0.6,4.5l-0.3,2.2
							l-0.2,1.8c-0.2,1.2-0.4,2.4-0.6,3.5l-0.3,1.8l-0.3,1.5c-0.2,1-0.4,1.9-0.6,2.9l-0.3,1.4l-0.3,1.2c-0.8,3.3-1.6,5.9-2.3,8.1
							c-1.5,4.3-3,6.7-3.8,7.8c-0.1,0.1-0.2,0.3-0.3,0.4c0,0.1-0.1,0.1-0.1,0.2l-5.2,5.3c0.1-0.1,0.2-0.2,0.3-0.3
							c0.1-0.1,0.2-0.1,0.3-0.2c0.1-0.1,0.3-0.2,0.4-0.3c0.2-0.1,0.6-0.3,0.9-0.5c0.6-0.3,1.2-0.4,1.5-0.5l0.2,0c0,0-0.2,0-0.3,0
							c-0.2,0-0.5,0-0.8-0.1c-0.4,0-0.8-0.1-1.2-0.3c-0.9-0.2-1.9-0.7-2.5-1.2c-0.2-0.1-0.3-0.3-0.5-0.4c-0.1-0.1-0.2-0.2-0.3-0.3
							c-0.1-0.1-0.1-0.1-0.2-0.2l-0.1-0.1l0,0c0,0-0.1-0.1-0.1-0.1c0,0,0-0.1,0-0.1l0,0.1c0,0.1,0,0.1,0,0.1c0,0,0,0.1,0.1,0.2
							c0,0.1,0.1,0.2,0.1,0.3c0,0.2,0.1,0.3,0.1,0.5l-28.3,59.1c16.4,6.5,33.1,10.1,48.6,11.8c15.4,1.6,29.6,1.5,42.6,0.8
							c12.9-0.8,24.6-2.1,35.2-3.3l3.9-0.4l1.9-0.2l1.9-0.2c2.5-0.3,5-0.5,7.5-0.8c5-0.5,10-1,15-1.6c40.1-3.9,80.9-6.2,120.7-7.4
							c39.8-1.2,78.5-1.2,114.4-0.8c35.9,0.4,68.8,1.1,97.1,1.8c12.5,2.3,27.5,3.9,42.7,5c15.2,1.2,30.5,2.2,43.8,3.5
							c-14.7-2.3-9.5-4.5,2-3.6c54.4,3.7,38.2,1.5,47.3,0.8l6.9-131.6c-3.5,0.5-13.6,0.7-41,0.2c-12,0-28.2-0.1-47.6-0.5
							c-9.7-0.1-20.2-0.2-31.3-0.4c-5.6-0.1-11.3-0.2-17.2-0.2c-5.9,0-11.9-0.1-18.1-0.2c-49.2-0.5-106.8-0.6-163.9,0.2
							c-57.2,0.8-114.1,2.4-161.9,4.3c-12,0.4-23.4,1-34.1,1.4c-10.7,0.5-20.7,0.8-29.9,1.3c-18.4,0.8-33.4,1.5-44.1,2
							c-37.9,7-84.1,9.2-124,14.2l43.3,116.5c4.3-3.3,8.6-6.3,12.8-9.3l-2.1,2.6c3.5-2.3,9.5-5.7,17.6-9.2c8.1-3.4,18.3-6.8,30.1-9
							l555.4-103.1L617,176.8c-12.4-0.5-25.7-1.1-39.7-1.7c-14-0.5-28.5-1.1-43.3-1.7c-14.8-0.5-29.9-1-44.9-1.5
							c-15-0.4-29.9-0.8-44.3-1.2c-14.4-0.3-28.4-0.6-41.6-0.9c-13.2-0.2-25.6-0.3-36.8-0.5c-22.4-0.1-40.3-0.1-50.6,0.3l7.5,0.7
							c-48.5,3.2-41.9-2.3-80.2-3.8c5.1,5.6-36.5,9.3-52.3,10l0.6-1.3c-23.9,1.3-77.9,7.4-117.4,9.4l1.4-3.2
							c-16.4,2.2-40.1,3.4-62.6,4.5c-22.5,0.9-43.9,1.7-55.7,2.4c-2.3,0-4.6,0.1-7.1,0.1l29.8,53.6c0.8-0.1,2.5,0.1,4.1,0.7
							c1.6,0.5,3,1.4,3.3,1.8c0.4,0.4-0.1,0-0.7-1c-0.7-1-1.3-2.8-1.4-3.7l-15.6-85.2c-25.7,4.5-53.6,11.2-81,20.7
							c-3.4,1.2-6.8,2.5-10.3,3.7c-3.4,1.2-6.8,2.6-10.2,4c-6.8,2.6-13.4,5.7-20,8.6c-13.1,6.2-25.9,12.8-37.8,20.1
							c-16.5,5.5-32.9,11.7-49.1,18.9l-3,2.4l-2.9,2.5c0,0-0.7,8.5,0.3,20.4c1,12,3.9,27.4,9.9,41.2c3.1,6.9,6.8,13.6,11.4,19.3
							c2.3,2.9,4.8,5.5,7.6,7.9c2.8,2.3,5.7,4.5,8.9,6.2c3.2,1.8,6.5,3.2,10.1,4.3c3.6,1.1,7.4,1.7,11.4,2c4.1,0.3,8.3,0.1,12.9-0.5
							c2.3-0.3,4.7-0.7,7.1-1.2c2.4-0.5,4.9-1.2,7.5-2l0.5,3.3l6.9-4.4l3.4-2.2l3.5-2.1c2.2-1,4.3-2.1,6.1-3.1
							c1.9-1,3.6-1.9,5.2-2.8c3.1-1.7,5.6-3.3,7.6-4.5c3.9-2.3,5.6-3.3,5.7-1.6l-6.1,2.9l-6,3.1c-2,1-4,2-6,3.1l-5.9,3.2
							c8.8-4.5,10.4-4.5,9.1-3c-1.4,1.5-5.5,4.9-8.3,7.5c1.8-0.9,3.6-1.9,5.4-2.8c0.9-0.5,1.8-0.9,2.6-1.3c0.9-0.4,1.8-0.8,2.6-1.2
							c3.5-1.6,6.8-3,9.9-4.1c1.4-1.4,0.7-1.4-0.9-0.9c-1.5,0.5-3.7,1.5-5.2,1.9c2.2-1.5,4.6-3.2,7.1-4.9c2.6-1.7,5.3-3.6,8.1-5.3
							c2.9-1.7,5.8-3.4,8.8-4.9c1.5-0.8,3-1.4,4.6-2c1.5-0.6,3.1-1.2,4.6-1.6c4.6-2,7.2-2.6,8.7-2.7c1.5-0.1,2,0.4,2.6,0.9
							c0.6,0.4,1.3,0.9,3.1,0.6c0.9-0.1,2.2-0.4,3.9-0.9c1.7-0.5,3.9-1.1,6.6-2.1c5.3-2,10.8-3.5,16.2-5.3c2.7-0.8,5.4-1.6,8.2-2.4
							l4.1-1.2c1.4-0.4,2.7-0.7,4.1-1.1c2.7-0.7,5.5-1.4,8.2-2.1c2.7-0.6,5.5-1.3,8.2-1.9l4.1-0.9l4.1-0.8c2.7-0.5,5.5-1.1,8.2-1.6
							l-25.7-149.2c-14,1.9-27.1,6.5-38.4,12.8c-11.4,6.4-21.2,14.4-29.5,23.9c-8.3,9.5-15.1,20.5-20,33.2c-1.2,3.2-2.3,6.5-3.2,9.8
							c-0.9,3.4-1.7,6.9-2.3,10.4c-0.6,3.6-1,7.3-1.3,10.9c-0.2,3.7-0.2,7.5-0.1,11.3l2.3,74.9l77.9-2.2
							c97.8-2.7,194.9-3.9,294.8-5.2c3.3,1.3-0.6,1.2-4.7,1.8c42.9-1.7,81.1-1.2,120.2-2.4c10.9,1.5,13.8,3.4,17,4.7
							c-3.2-1.3,50.8-1.7,106-0.7c13.8,0.3,27.7,0.6,40.8,0.9c13.1,0.4,25.4,0.8,36,1.1C587.5,321.1,602.1,321.7,602.9,321.9z"/>
					</g>
				</g>
			</g>
		</g>
	</g>
	<g>
		<g>
			<g>
				<g>
					<g>
						<path class="st0" d="M1411,337.5c0.7,3.7,3.3,4.8,5.7,6C1415.6,339.9,1413.9,338,1411,337.5z"/>
						<path class="st0" d="M1416.7,343.7C1416.7,343.6,1416.7,343.6,1416.7,343.7C1416.7,343.6,1416.7,343.6,1416.7,343.7
							C1416.7,343.6,1416.7,343.6,1416.7,343.7z"/>
						<path class="st0" d="M1924.6,170.8c-0.6,0.2-1.4,0.4-2.1,0.6C1923.2,171.4,1924,171.3,1924.6,170.8z"/>
						<path class="st0" d="M1541.4,388.2l1.8-5.3c3.9,0.9,4.1,2.5,4.3,4.1c0.2,1.5,0.4,2.9,4.3,3c2.3-3.6,5.4-2.7,8.6-1.5
							c1.6,0.6,3.2,1.3,4.6,1.7c1.4,0.3,2.7,0.3,3.6-0.7c-0.2,0.6,4,1.4,3.4,3.8c1.8-4.1,4.5-0.5,7.4-1.3c1.1-1.1-0.6-1.3-1.2-2.7
							c2.1-0.3,4.3-0.6,6.4-1c2.4,1.5,2.9,4.1,0.1,4.4c4.2,0.7,12.8,1.7,22.8,1.9c5,0.1,10.3,0.1,15.6-0.2c2.7-0.1,5.3-0.3,8-0.5
							c2.6-0.2,5.3-0.4,7.8-0.7c2.6-0.2,5-0.5,7.5-0.8c2.4-0.3,4.7-0.6,6.9-0.9c4.5-0.6,8.5-1.3,12-2c3.5-0.6,6.5-1.3,9-1.9
							c2.5-0.6,4.5-1.2,5.9-1.7c-2.1-2.9-5.2,0-7.5-4.7c2.4-3.4,4.6,0.1,5.4-3.1c2.7,7.2,7,0.4,10.8,7.5l0-4.4l2,2.3
							c12.3-7.1,2.6-2.8,14.5-4.2c6.7-2,8.7-8.5,12.9-7.2c-0.6,0.1-2.6-2.2-1.1-3.6c1.1,3.6,4.1-3.6,5.8,0c1.6-0.8,7.3-1.5,4.4-6.2
							c1.5,2.3,6.7,2.3,4.1,5.1c1.7-0.2,3.5,0.2,4.5-1.1l-2.4-1c5.5-1.9,9.4,1.4,12.2-3.9l-2.5-1.6c3.3-1,6.1-2,8.4,2.8l-3.2,2.2
							c5.6-1.3,8.9-2.3,13.1-5.9l-1.7,0.2c5-6.2,35.4-16.7,39.6-24.1l-3.3-3.4l4.1-4.2c-0.6,0.1,0.3,13.1-0.4,11.9
							c10.1-2.4,62.2-16.2,72.1-15.5c4.2,1.4,1.9,6,2,6.7c4.3-2.4,1.1-4.5,5.1-5c1.2,0.5,0.4,3.1-0.1,3.8c1.6-0.8,3.5,0.2,3.2-1.6
							c-2.4-1-2.5-6-4.1-8.9l5.1-0.6l0.4,3.1c1.1-0.1,1.1-8.9,6.4-8.3c8.6-0.4,17.4-3.3,26-4.3c0.2,1.9-1.3,3.3-2.8,4.7
							c1.1-0.1,2.8-1,4.1,0.1c-2.7-2.8,3.1-2.9,1.2-3.9c4.6-8.7,14-3.5,18.3-9.7c-0.9-6.8-11.8-117.3-13.4-125.2
							c1.7-0.2,3.4-0.4,4.1,0.2c-0.8-1.8-4.3-2-5.8-0.6l0.6,4.3c-3.7,2.3-1.5-2.3-5.4-1.2c-0.9-3.4,2.6-4.9,5.7-5.9
							c-3,0.2-6.4-1.8-6.7,2.3c-3-0.9-0.6-4.3-4.1-5.1c-2.1,1.5-4.5,5.5-7.6,4l-0.1-0.6c-7.2-2.3-8.8,7.3-15.5,5l0.4-1.3
							c-2.5-1.6-6.1,2-10.3,0.6c1.2,0.5,2.7,2.8,0.5,3.7c-4.8-1.3-7.3,1.5-11-0.6l-2.4,4c-15.3,2.4-74,19.5-89.1,23.1l0.5-0.7
							c-22.8,6.4-70.4,15.9-93.4,25.4c-4.4-2.6-9.3-0.8-13.4-0.9c2.4,1,2.2,3.5,0.5,3.7c-11.8,2-0.3,2.5-11.9,6.3
							c-3.3,1.5-9.1,3-16,4.5c-3.5,0.7-7.1,1.4-10.7,2c-3.6,0.6-7.1,1.1-10.5,1.4c-6.7,0.7-12.6,0.7-16.8,0.2
							c-4.3-0.5-7-1.4-8.5-2.1c-1.7,2.5-3.9,2.6-6.1,2.4c-2.2-0.2-4.6-0.8-7.1,0.4l0.7-1.1c-1.3,0.2-3.9-0.2-7.5-1.2
							c-3.6-1-8.3-2.5-13.4-4.3c-5.1-1.8-10.8-3.8-15.6-5.2c-4.8-1.5-8.6-2.5-10.7-2.6l0.9,1c-7.7,1.1-5.3-4-10.2-7.1
							c-0.8,5.7-7.6,7.1-9.9,6.9l0.4-1.2c-3.6,0-12.6,2.6-18.4,1.8l1.1-2.9c-5.5,1.9-13.9-1.9-17.3-2.5
							c-7.3-3.4-17.6-11.9-28.9-10.8l-4.2-10.4l-1.2,0.6c0,0-39.4,99.9-32.1,125.6l-1.1,2.9l2.8,0.4c2.8,2.4,5.2-0.7,4.2,2.2
							l-4.3-1.6c3,1.8,0.3,2.7-1.4,4.1c1.3,0.7,2.5,1.4,3.3,2.6c1-1-0.1-1.4-0.4-2.2c2-0.6,5.2-2.7,6.9-0.7c3.2,1.2-1.1,4.9,2.6,6.3
							c19.6,8,38.3,16.9,58.9,22c0.1,1.4-0.4,1.2-1.2,1.6c6.5,0.4,11.9,2.4,17.9,2.7c1.2,1.8,1.1,3.7,1.2,5.1
							c-0.1-0.7,1.9-0.7,4.9-0.2c3,0.4,7,1.3,11.3,2.4c4.3,1,9,2.2,12.7,3.2C1538.6,387.3,1541.3,388,1541.4,388.2z"/>
					</g>
				</g>
			</g>
		</g>
	</g>
	<g>
		<g>
			<g>
				<g>
					<g>
						<path class="st0" d="M1918.6,297.3c-1-5.2-6.2-9.3-11.6-12.8c0.7,1.3,1.5,2.6,2.3,3.7c0.8,1.1,1.7,2.3,2.6,3.3
							c1,1,1.9,2.1,3.1,3C1916.1,295.5,1917.3,296.5,1918.6,297.3z"/>
						<path class="st0" d="M1906.9,284.4c0,0-0.1,0-0.1,0c0.1,0,0.1,0.1,0.2,0.1C1907,284.5,1906.9,284.5,1906.9,284.4z"/>
						<path class="st0" d="M1252.2,390.1c0.6-0.3,1.2-0.7,1.8-1C1253.3,389.2,1252.6,389.5,1252.2,390.1z"/>
						<path class="st0" d="M1725.2,238.7l-1.4,5.4c-8.1-1.2-1.4-6.7-9.1-6.5c-4.1,7.4-12.4-2.7-15.6,1.1c0.2-0.6-3.5-1.4-2.9-3.8
							c-1.8,4.1-3.9,0.4-6.4,1.2c-1,1.1,0.4,1.4,0.9,2.7l-5.6,0.7c-1.9-1.7-2-4.3,0.3-4.4c-6.9-1.8-26.9-6.2-47.3-9.9
							c-10.2-1.9-20.4-3.6-29.1-4.9c-8.7-1.2-15.8-2-19.6-1.9c1.5,3.5,6.5,1.9,7.6,7.2c-4.4,2.3-5.8-1.7-7.9,1
							c-0.6-7.7-8.6-2.9-10.7-10.9l-1.7,4.1l-1.7-2.9c-18.2,2.3-4.3,1.7-19.9-1.2c-9.2-0.4-14.2,5-19,2.3c0.7,0.1,2.5,3,0,3.8
							c0-3.8-6.6,2-7.3-1.9c-2.4,0.2-9.8-1.1-7.8,4.3c-1-2.7-7.6-4.5-3.4-6.3c-2.3-0.4-4.4-1.4-6.1-0.4l2.8,1.7
							c-7.8,0-11.6-4.4-17.1-0.3l2.7,2.3c-4.7-0.1-8.6-0.1-9.9-5.3l4.9-1.1c-7.7-0.6-12.5-0.7-19.2,1.5l2.3,0.3
							c-4.3,2.2-17.4,3.5-30.5,5.2c-13.1,1.7-26.1,3.9-30.1,7l3.4,4.1l-6.7,3.2c0.8,0.1,3.5-12.8,4.2-11.5
							c-7.2-0.1-29.5,0.3-52.1,1.8c-11.3,0.7-22.6,1.6-32,2.4c-2.4,0.2-4.6,0.4-6.7,0.5c-2.1,0.2-4,0.3-5.8,0.5
							c-1.7,0.1-3.3,0.2-4.7,0.2c-1.3,0-2.5,0.1-3.4,0c-5.9-1.4-1.9-6.1-1.9-6.7c-6.7,2.4-2.4,4.5-8.3,5.1c-1.7-0.5-0.1-3.1,0.7-3.8
							c-2.5,0.9-5.1-0.1-5,1.7c3.4,0.9,2.8,6,4.7,8.9l-7.5,0.7l-0.2-3.1c-1.7,0.2-2.8,9.1-10.3,8.8c-12.5,1-25.5,5.3-37.9,8.1
							c-0.3-1.8,1.9-3.6,4.3-5.4c-1.7,0.4-4.1,1.5-6,0.7c3.9,2.3-4.6,3.6-1.8,4.3c-3.4,5-8.4,6.7-13.4,8.3c-5,1.5-9.9,2.9-12.9,6.8
							c0.4,1.7,2.2,9.7,4.9,20.9c2.7,11.2,6.3,25.6,10.3,39.9c3.9,14.3,8.2,28.5,11.8,39.6c3.6,11.1,6.3,19.1,7.1,21
							c-1.6,0.5-3.2,1.1-3.9,0.7c1.2,1.6,4.6,1.1,5.7-0.6l-1.4-4.1c3.2-3,1.9,2,5.5,0.2c1.5,3.2-1.6,5.2-4.3,6.9
							c2.7-0.8,6.3,0.6,5.9-3.5c3,0.4,1.4,4.1,4.9,4.4c1.7-1.7,3.3-6.1,6.6-5l0.2,0.6c1.8,0.4,3.2,0,4.4-0.7
							c0.6-0.3,1.1-0.8,1.6-1.3c0.5-0.5,1-1,1.5-1.5c1.9-2,3.8-4.1,7.2-3.1l-0.3,1.3c1.3,0.7,2.8,0.1,4.4-0.5
							c1.7-0.6,3.6-1.2,5.8-0.7c-1.2-0.4-2.8-2.7-0.6-3.7c2.4,0.5,4.3,0.1,6-0.2c1.7-0.3,3.3-0.6,5.2,0.5l2.4-4.1
							c3.9-0.7,10.8-2.1,19.3-3.7c8.5-1.6,18.8-3.3,29.3-4.6c21-2.7,43.3-3.9,52.4-3.9l-0.7,0.5c6.9-0.3,15.7-0.3,25.6-0.1
							c9.8,0.2,20.8,0.7,31.8,1.2c11.1,0.5,22.3,1.2,32.7,1.6c5.2,0.2,10.3,0.4,15,0.4c4.7,0.1,9.1,0,13-0.2c4.4,4,11,3.9,15.8,5.5
							c-2.6-1.7-1.4-4,0.8-3.7c15.1,2.2,1.3-2.2,16.8-1.8c9-0.5,30.3,2.3,51.2,6c20.9,3.7,41.5,8.4,49.1,11
							c9.2-3.8,19.1,1.6,27.8-0.3l-1,1.1c4.6-0.3,19.2,2.7,34.1,5.7c14.9,3,29.9,6.2,35.2,6.1l-1.3-0.9c9.5-1.7,7.4,3.6,14.2,6.4
							c0-5.8,8.2-7.7,11.2-7.6l-0.3,1.2c4.6-0.2,15.5-3.5,23-3l-0.8,3c6.7-2.3,18,0.9,22.5,1.3c2.5,0.7,5.2,1.8,8.2,2.9
							c1.5,0.6,3,1.1,4.6,1.7c0.8,0.3,1.6,0.6,2.4,0.8c0.6,0.2,1.2,0.5,1.8,0.7c2.2,0.9,3.8,1.6,4.4,1.7c0.1,0,0.8,0.1,1.4,0.1
							c0.3,0,0.6-0.1,0.9-0.1c0.3-0.1,0.6-0.2,1-0.3c-0.3,3.1-1,6.2-2,9.2l0.6-0.5c0,0,0.9-1.4,2.4-3.8c1.5-2.4,3.7-5.8,6.5-9.9
							c5.5-8.2,13.1-18.9,21.1-30.1c1-1.4,2.1-2.9,3.1-4.3c1-1.5,2.1-3,3.1-4.5c2.2-3.2,4.3-6.4,6.3-9.5c2.1-3.2,4-6.3,5.9-9.5
							c1.9-3.1,3.6-6.3,5.2-9.4c1.6-3.1,3-6.2,4.1-9.3c0.6-1.5,1.1-3,1.5-4.5c0.4-1.5,0.8-2.9,1-4.4c0.5-2.9,0.8-5.7,0.6-8.3
							c-0.1-1.3-0.3-2.6-0.6-3.9c-0.3-1.2-0.7-2.4-1.2-3.6l1.9-2.5l-1.4-0.8l-1.4-0.7c-1-0.5-1.9-1-2.9-1.4
							c-3.1-2.5-5.9-3.2-7.6-3.6c-1.8-0.4-2.5-0.6-1.7-1.9c1.6,0.7,3.2,1.5,4.8,2.3c1.6,0.8,3.1,1.7,4.7,2.5c-3.2-2.2-3.6-3-2.6-3.4
							c1-0.4,3.2-0.1,5-0.2c-1.4-0.9-2.8-1.8-4.1-2.7c-1.3-0.9-2.5-1.8-3.6-2.8c-1.9,0.5,0.6,1.6,1.5,2.8c-1.1-0.2-2.3-0.3-3.6-0.4
							c-1.3-0.1-2.6-0.2-4-0.3c-2.7-0.3-5.4-0.8-7.6-2.3c-4.2-1.4-4-2.6-4-3.9c0-0.6,0-1.3-0.6-2c-0.3-0.3-0.8-0.7-1.4-1
							c-0.3-0.2-0.7-0.3-1.2-0.5c-0.2-0.1-0.5-0.2-0.7-0.3c-0.2-0.1-0.5-0.1-0.8-0.2l-4.2-1.2l-3.9-1c-2.2-0.6-4.5-1.1-6.7-1.6
							c-3.3-0.9-6.5-1.7-9.8-2.6c-6.5-1.7-13-3.5-19.6-5.1c-13.1-3.2-26.3-6.1-40-8c-0.4-1.4,0.3-1.2,1.2-1.6
							c-8.4,0-15.6-1.6-23.4-1.5c-1.9-1.7-2.1-3.7-2.5-5C1768.6,245.9,1725.8,239.4,1725.2,238.7z"/>
					</g>
				</g>
			</g>
		</g>
	</g>
	<g>
		<g>
			<g>
				<g>
					<g>
						<path class="st0" d="M1548.7,389.1c0.7-1.9,0.5-3.6-0.1-5.3c-0.3-0.8-0.7-1.7-1.1-2.5c-0.4-0.8-0.9-1.5-1.4-2.3
							C1545.4,383.1,1546.1,386.3,1548.7,389.1z"/>
						<path class="st0" d="M1546.1,378.9C1546.1,378.9,1546,378.9,1546.1,378.9C1546,378.9,1546,379,1546.1,378.9
							C1546.1,379,1546.1,378.9,1546.1,378.9z"/>
						<path class="st0" d="M1082.2,351.6c0.7,0.8,1.5,1.8,2.2,2.7C1083.8,353.3,1083.1,352.3,1082.2,351.6z"/>
						<path class="st0" d="M1423.3,305.7l-1.3,5.4c-5.6-0.8-0.6-6.6-6-6.1c-3.2,7.5-8.3-2-10.5,1.9c0.1-0.6-2.2-1.2-1.8-3.6
							c-1.3,4.2-2.5,0.7-4.1,1.6c-0.7,1.1,0.2,1.3,0.5,2.7l-3.5,1.1c-1.1-1.5-1.1-4.1,0.3-4.4c-1-0.3-2.6-0.7-4.5-1.2
							c-1.9-0.5-4.1-1-6.6-1.5c-4.8-1.1-10.5-2.3-15.7-3.3c-5.2-1-10.1-2-14.1-2.6c-3.8-0.6-6.9-1-8.7-0.7c0.4,3.3,2.7,1.5,2.8,6.7
							c-2.2,2.6-2.5-1.4-3.7,1.5c0.2-3.8-0.6-4.4-1.6-5c-1-0.6-2.1-1.3-2.1-5.2l-1.2,4.1l-0.4-2.7c-4.3,1.5-4.9,1.9-5.2,1.7
							c-0.3-0.2-0.4-1-3.8-2.2c-4.2-0.2-7.5,5.2-9.3,2.5c0.3,0.1,0.7,2.9-0.6,3.7c0.6-3.7-3.5,2-3.2-1.8c-1.2,0.2-4.6-1.1-4.6,4.2
							c0-2.7-2.9-4.4-0.5-6.2c-1-0.4-1.9-1.4-2.9-0.5l1,1.7c-3.8-0.2-4.8-4.5-8.3-0.6l0.8,2.3c-2.3-0.2-4.2-0.4-3.8-5.5l2.6-0.9
							c-1.8-0.4-3.3-0.7-4.8-0.6c-1.5,0-3,0.4-4.9,1.3l1,0.4c-2.6,1.9-9.3,2.5-16.2,3.1c-6.9,0.6-13.9,1.3-16.7,3.7l0.6,4.3
							l-4.2,2.2c0.4,0.2,5.3-11.8,5.2-10.5c-3.5-0.8-14.5-3.3-25.6-6.3c-5.4-1.4-10.3-2.8-14-4.2c-1.9-0.7-3.4-1.3-4.7-2
							c-1.2-0.6-2.1-1.2-2.6-1.8c-1.2-2.8,1.9-6,2.2-6.6c-1.4,0.3-2,1.1-2.5,1.8c-0.5,0.7-0.9,1.2-1.7,0.6c-0.2-0.9,1.3-2.8,1.8-3.3
							c-1,0.1-1.2-1.4-1.9,0.2c0.4,1.7-1.9,6.1-2.6,9.2c-0.8-0.5-1.6-0.9-2.2-1.4l1.3-2.8c-0.2-0.2-1.4,1.7-2.7,3.2
							c-1.3,1.5-2.9,2.8-3.5,1.5c-3-2.9-6.7-3.7-8.4-5.9c1.1-1.5,2.2-2.1,3.2-2.7c-0.2-0.3-0.9-0.2-0.4-1.4
							c-0.7,1.5-1.2,1.8-1.6,1.9c-0.4,0.1-0.6,0-0.9,0.7c-2.8,2.6-4,2-4.4,1.3c-0.7-0.7-0.7-1.5-3-0.1c-1.2,1.2-7.3,6.8-16,14.1
							c-8.7,7.4-20.3,16.5-32.4,25.1c-6,4.3-12.2,8.4-18.1,12.3c-5.9,3.8-11.6,7.3-16.6,10.2c-10,6-17.5,10-19.1,11.2
							c-1.5-2.3-2.9-4.5-2.8-5.6c-1.2,1.6,1.2,6.5,3.8,8.1l3.7-2.3c2.5,2.1,2.3,2.6,1.9,3.4c-0.4,0.8-0.9,1.6,1.2,3.9
							c-2.4,2.6-6.9-1.2-10.2-5.3c2.4,4.1,3.5,9.3,7.7,8.1c0.9,2.1,0,2.8-0.8,3.5c-0.8,0.7-1.6,1.5-0.3,4.1c3.4,2,9.2,2.9,10.7,7.2
							l-0.5,0.4c1.2,2.3,2.8,3.8,4.5,4.9c0.9,0.5,1.7,1,2.7,1.4c0.9,0.4,1.8,0.6,2.7,0.9c1.8,0.5,3.5,1,5.1,1.8
							c0.8,0.4,1.6,0.9,2.3,1.6c0.7,0.6,1.3,1.3,1.9,2.3l-1.4,0.5c0.6,1.6,2.5,2.7,4.6,3.9c0.5,0.3,1.1,0.6,1.6,0.9
							c0.5,0.3,1,0.6,1.5,1c1,0.7,2,1.5,2.7,2.6c-0.8-1.3-0.5-4.1,2.2-3c0.9,1.2,1.9,2.1,2.8,2.8c0.9,0.7,1.9,1.2,2.7,1.7
							c1.8,1,3.4,2,4.4,4.1c1.6-0.5,3.1-1,4.7-1.6c0.9,0.5,2.1,1.1,3.4,1.7c1.3,0.6,2.7,1.2,4.2,1.8c0.8,0.3,1.6,0.7,2.4,1
							c0.4,0.2,0.9,0.3,1.3,0.5c0.4,0.2,0.8,0.3,1.3,0.5c1.7,0.6,3.6,1.3,5.5,2c7.6,2.6,16,4.9,23.6,6.7l2.9,0.7
							c0.9,0.2,1.8,0.4,2.7,0.6c1.8,0.4,3.5,0.8,5.2,1.1c3.3,0.7,6.5,1.4,9.4,2c3,0.6,5.6,1.2,8,1.7c2.3,0.5,4.2,1,5.7,1.3l-0.6,0.4
							c8.7,1.7,22,5.3,35.9,8.4c7,1.5,14.1,2.9,20.8,3.8c3.4,0.4,6.6,0.8,9.6,1c3.1,0.2,5.9,0.3,8.4,0.3c2.3,4,6.7,4.1,9.7,5.6
							c-1.5-1.7-0.4-4,0.9-3.6c4.8,1.1,5.1,0.6,5.4-0.2c0.3-0.8,0.7-1.8,5.8-1.6c3-0.3,8,0.1,13.9,1c6,0.8,12.6,1.8,19,3
							c12.8,2.3,23.7,5,27.5,7c1.3-1.1,2.5-1.7,3.7-2c1.2-0.3,2.4-0.2,3.6-0.1c1.2,0.1,2.3,0.3,3.4,0.3c1.1,0,2.2-0.2,3.3-0.9
							l-0.6,1.1c2.3-0.6,9,1.1,14.9,3.1c1.4,0.5,3,1,4.2,1.5c0.6,0.2,1.3,0.5,1.9,0.7c0.6,0.2,1.2,0.4,1.7,0.6
							c1.1,0.4,2.1,0.7,2.9,0.9c0.8,0.2,1.5,0.3,2,0.2l-0.2-0.8c2-1,2.4-0.2,2.6,1.1c0.2,1.3,0,3.2,0.7,4.4c1.7-5.4,5.4-7.5,6.4-7.5
							l-0.5,1.1c0.9-0.1,2.6-1,4.4-1.8c0.9-0.4,1.9-0.7,2.7-0.9c0.8-0.2,1.6-0.3,2.3-0.2l-1.6,2.7c0.4-0.3,0.8-0.4,1.2-0.6
							c0.4-0.1,0.7-0.1,1.1-0.1c0.7,0,1.3,0.2,1.9,0.5c1.1,0.6,1.9,1.4,2.5,1.6c0.4,0.7,0.7,1.6,0.9,2.5c0.2,1,0.4,2,0.7,2.8
							c0.5,1.8,1.2,2.8,3.5,2.4c-1.9,2.4-3.8,4.6-5.9,6.7l0.8-0.4c0,0,5.3-4.1,13.7-10.2c8.4-6.1,20-14.2,32.1-22.6
							c6.1-4.2,12.2-8.6,18.2-13c5.9-4.4,11.7-8.7,16.7-13c10.1-8.6,17.4-17,19-24.2l2.6-1.7c-0.9-0.9-1.8-1.7-2.6-2.5
							c-1.7-4.3-5.7-3.3-3.2-5.2c1.2,1.6,2.5,3.1,3.7,4.7c-2.2-3.9,1-2.7,3.5-2.5c-1-1.6-1.9-3.2-2.2-5c-1.5,0.1-0.5,1.4-0.5,2.3
							c-1.2-0.5-2.9-0.9-4.4-1.5c-1.5-0.6-2.8-1.4-3.3-2.9c-1.5-1.7-0.6-2.6,0.1-3.6c0.8-1,1.5-2.2-0.3-4
							c-9.3-10.2-19.1-19-29.2-26.3c-10.2-7.2-20.8-12.9-31.7-16.7c0-1.4,0.5-1.1,1.4-1.4c-3.6-0.7-6.7-1.5-9.8-2.3
							c-3.1-0.8-6-1.5-9.2-1.7c-1.2-1.8-1.2-3.8-1.3-5.1c0.1,0.7-2,0.6-5.1,0.2c-3.1-0.4-7.3-1.2-11.2-1.9c-2-0.4-3.9-0.7-5.8-1.1
							c-1.8-0.4-3.5-0.7-5-1C1425.4,306.3,1423.4,305.9,1423.3,305.7z"/>
					</g>
				</g>
			</g>
		</g>
	</g>
	<g>
		<g>
			<g>
				<g>
					<g>
						<path class="st0" d="M1317.4,346.9c1.3-3.3,0-4.9-1.2-6.7C1315.2,343.6,1315.5,345.7,1317.4,346.9z"/>
						<path class="st0" d="M1316.2,340.1C1316.2,340.1,1316.2,340.1,1316.2,340.1C1316.2,340.1,1316.2,340.2,1316.2,340.1
							C1316.2,340.2,1316.2,340.1,1316.2,340.1z"/>
						<path class="st0" d="M991.5,398c0.4,0,0.8-0.1,1.2-0.1C992.3,397.7,991.9,397.7,991.5,398z"/>
						<path class="st0" d="M1241.5,282.2l-2.5,5c-4.1-1.7,1.4-6.4-3-6.8c-2.3,3.3-3.8,2.5-5.1,1.2c-1.3-1.3-2.4-2.9-3.8-1.2
							c0.3-0.6-1.5-1.5-0.5-3.8c-2.2,3.8-2.3,0.1-3.9,0.7c-0.9,1-0.2,1.3-0.3,2.6l-3.2,0.4c-0.5-1.7,0.1-4.1,1.4-4.2
							c-3.2-2.1-13-7.2-23-11.3c-5-2.1-10.1-3.9-14.5-5.3c-4.3-1.3-7.9-2.1-10-2.1c0.2,3.4,3.1,1.9,2.7,7.1
							c-2.7,2.2-2.7-1.7-4.3,0.9c0.6-3.8-0.4-4.5-1.5-5.3c-1.1-0.7-2.2-1.5-2.1-5.4l-1.6,4l-0.4-2.8c-4.9,1.1-5.5,1.5-5.9,1.3
							c-0.3-0.2-0.4-1.1-4.2-2.4c-4.6-0.3-7.9,5-10,2.4c0.4,0.1,0.8,2.9-0.5,3.7c0.5-3.7-3.6,2.1-3.4-1.8c-1.2,0.3-4.7-0.9-4.5,4.4
							c-0.1-2.7-3.1-4.3-0.8-6.1c-1.1-0.3-2-1.3-3-0.3l1.1,1.7c-3.8,0.1-5.1-4.2-8.2,0l1,2.3c-2.2-0.1-4.1,0.1-4.1-5.1l2.5-1.2
							c-3.6-0.4-5.9-0.5-9.3,1.8l1,0.3c-2.3,2.2-8.5,3.7-14.6,5.4c-3,0.9-6.1,1.8-8.6,2.8c-2.5,1.1-4.5,2.3-5.5,3.8l1.1,4.1l-3.3,3
							c0.3,0.1,2.8-12.6,3-11.3c-3.1-0.2-12.9-0.4-22.4-0.7c-4.8-0.2-9.4-0.4-13.3-0.8c-3.8-0.4-6.8-0.9-8.2-1.7
							c-2.1-2.4,0-6.3,0.1-6.9c-2.9,1.3-1.5,4.1-3.8,3.6c-0.6-0.8,0.3-3.1,0.7-3.6c-1.1,0.4-1.9-1-2.1,0.8c1.2,1.5,0.3,6.4,0.6,9.6
							l-2.9-0.6l0.3-3.1c-0.7-0.1-2.3,8.4-5,6.5c-4.8-1.6-10.2-0.9-15-1.9c0.2-1.9,1.3-2.9,2.4-3.9c-0.7-0.1-1.7,0.3-2.2-1.1
							c1,3.4-2.2,2.1-1.3,3.5c-4,7.4-8.2,0.2-11.6,5.2c-0.7,6.8-13,116.7-13.4,124.8c-0.9-0.2-1.9-0.4-2.1-1.1c0.1,1.9,2,2.9,3,1.9
							l0.4-4.3c2.4-1.4,0.4,2.6,2.7,2.4c-0.1,3.6-2.2,4.2-4,4.5c1.6,0.5,3.1,3.2,4-0.7c1.5,1.6-0.4,4.3,1.4,6c1.4-1,3.3-4.4,4.7-2.2
							l-0.1,0.6c3.4,3.9,5.9-5.1,9-1.3l-0.4,1.2c1,2.1,3.5-0.5,5.5,1.8c-0.6-0.8-0.9-3.4,0.4-3.7c2.3,2.4,4,0.2,5.6,3.1l1.9-3.4
							c4.1,0.6,14.4,0.2,24.4-0.2c10-0.4,19.9-0.8,23.8-0.6l-0.4,0.5c6.1-0.2,15,0.5,24,1.1c8.9,0.6,17.7,1.1,23.9-0.1
							c1.1,3.7,3.6,3.5,5.2,4.8c-0.7-1.6,0.2-3.9,0.9-3.6c5.4,1.7,0.9-2.2,6.8-2.3c3.6-0.8,11.3,1.3,18.5,4.4
							c1.8,0.8,3.5,1.6,5.2,2.5c1.6,0.9,3.2,1.8,4.6,2.6c2.8,1.7,4.9,3.3,5.9,4.5c4.6-3.7,6.6,1.3,10.6-0.6l-0.7,1
							c0.9-0.2,2.5,0.5,4.4,1.5c0.9,0.5,2,1.1,3,1.7c1.1,0.6,2.1,1.4,3.2,2.1c1.1,0.7,2.2,1.4,3.2,2.1c1,0.7,2,1.4,2.9,1.9
							c1.8,1.1,3.4,1.9,4.3,1.9l-0.1-0.9c4.1-1.2,1.1,3.4,2.2,6c1.3-2.5,2.9-4.2,4.3-5.2c1.4-1,2.7-1.3,3.2-1.2l-0.7,1
							c0.9,0,2.7-0.6,4.6-1.1c2-0.5,4-0.9,5.2-0.5l-1.8,2.5c1.8-0.8,3.3-0.4,4.6,0.3c1.3,0.7,2.1,1.7,2.9,2c1,1.5,1.8,4.1,2.9,6.3
							c1.1,2.2,2.8,3.8,5.7,3.7c-1.2,2.9-2.4,5.7-3.7,8.5l0.9-0.4c0,0,4.7-4.9,11.8-12.4c7.2-7.5,16.9-17.7,27-28.5
							c10.1-10.8,20.5-22.3,28.9-32.5c8.4-10.2,14.6-19.3,16.4-25.3l2.2-2.2l-1.8-1c-0.9-2.8-4-0.7-1.9-3l2.3,2.5
							c-1.3-2.3,1.1-2.4,2.9-3.1c-0.6-0.9-1.1-1.9-1.2-3.1c-1.1,0.6-0.5,1.2-0.7,2c-1.7,0-5,1-5.3-1.1c-1.8-1.8,3-4,0.9-6.1
							c-2.7-2.9-5.4-5.9-8.1-8.7c-2.7-2.8-5.5-5.7-8.4-8.2c-5.8-5.3-12-10-18.9-13.6c0.3-1.3,0.7-1,1.4-1.3
							c-2.4-0.6-4.4-1.5-6.4-2.4c-1-0.4-2-0.9-3-1.2c-1-0.3-2.1-0.6-3.1-0.8c-0.4-1.8,0.2-3.6,0.5-4.9c-0.1,0.7-1.6,0.4-3.7-0.2
							c-1.1-0.3-2.3-0.8-3.6-1.3c-1.3-0.5-2.7-1-4-1.6c-2.7-1.1-5.5-2.4-7.5-3.4C1242.9,283.1,1241.6,282.4,1241.5,282.2z"/>
					</g>
				</g>
			</g>
		</g>
	</g>
	<g>
		<g>
			<g>
				<g>
					<g>
						<path class="st0" d="M1171.4,332.6c-0.1-3.5-1.8-4.3-3.3-5.3C1168.6,330.8,1169.6,332.5,1171.4,332.6z"/>
						<path class="st0" d="M1168.1,327.2C1168.1,327.2,1168.1,327.3,1168.1,327.2C1168.1,327.3,1168.1,327.3,1168.1,327.2
							C1168.1,327.3,1168.1,327.3,1168.1,327.2z"/>
						<path class="st0" d="M789.9,342.5c0.4,0.2,1,0.3,1.5,0.5C791,342.7,790.5,342.4,789.9,342.5z"/>
						<path class="st0" d="M1091.7,294.2l-2,5.2c-3.9-1.2,0.9-6.5-3.1-6.3c-3.9,7.1-5.6-2.7-8.2,0.8c0.2-0.6-1.4-1.4-0.5-3.7
							c-1.9,3.9-2.1,0.4-3.6,1c-0.8,1-0.1,1.3-0.2,2.6l-3,0.6c-0.5-1.6,0-4.1,1.3-4.2c-1.5-0.9-4.5-2.6-8.3-4.5
							c-3.8-1.9-8.3-4.1-12.9-6.3c-4.6-2.2-9.2-4.2-13.2-5.8c-4-1.6-7.2-2.7-9.2-2.8c-0.2,3.4,2.7,2.1,1.7,7.2c-2.8,2-2.4-2-4.2,0.5
							c2-7.4-3.4-3.2-2.1-10.9l-2.1,3.8l0-2.8c-9.7,1.1-2.6,1.4-9.4-2.3c-4.4-1-8.5,3.8-10,0.8c0.3,0.2,0.3,3-1.2,3.6
							c1.2-3.6-3.9,1.4-3-2.4c-1.2,0-4.5-1.8-5.2,3.5c0.4-2.6-2.3-4.8,0.4-6.2c-1-0.6-1.7-1.7-2.8-0.9l0.8,1.9
							c-3.7-0.7-4.1-5.2-8.1-1.8l0.5,2.4c-2.2-0.5-4.1-0.9-2.9-5.9l2.7-0.6c-3.5-1.3-5.7-1.8-9.5-0.4l1,0.5
							c-2.8,1.6-9.3,1.4-15.9,1.3c-3.3,0-6.6,0-9.5,0.2c-2.9,0.3-5.2,0.8-6.7,1.9l0,4.3l-4.2,1.8c0.3,0.2,6.5-11.2,6.3-9.9
							c-1.6-0.6-4.8-1.7-8.9-3.2c-2-0.7-4.3-1.5-6.6-2.4c-2.3-0.9-4.7-1.8-7.1-2.8c-4.8-1.9-9.6-3.9-13.4-5.8
							c-3.8-1.9-6.7-3.6-7.8-4.9c-1.3-3.1,2.3-5.9,2.6-6.4c-3.4,0-3,3.2-5.2,1.8c-0.3-0.9,1.5-2.7,2.1-3.1c-1.2-0.1-1.6-1.7-2.5-0.1
							c0.7,1.9-2,6.1-2.8,9.2l-2.8-1.8l1.5-2.7c-0.6-0.4-5.4,6.9-7.6,3.9c-4.4-3.6-10.3-5.3-15-8.4c0.9-1.6,2.4-2.1,4-2.6
							c-0.6-0.4-1.9-0.5-1.9-2c-0.2,3.5-3.1,0.9-2.7,2.6c-7,5-8.7-3.6-14.2-0.6c-1.7,3-16.6,28.3-31.7,53.7
							c-15.1,25.4-30.3,50.9-32.2,54.5c-1-0.7-2-1.3-2-2.1c-0.6,1.8,1.1,3.7,2.7,3.3l2.2-3.8c3.3-0.1-0.6,2.6,2.1,3.6
							c-1.5,3.2-4.1,2.7-6.4,2c1.7,1.3,2.3,4.5,4.9,1.4c1.1,2.2-2.2,3.8-0.7,6.2c2-0.2,5.5-2.3,6.3,0.4l-0.3,0.5
							c2.5,5.4,8.8-1.6,11,3.5l-0.9,0.9c0.4,2.5,4.3,1.3,5.8,4.5c-0.4-1,0.1-3.6,1.8-3.3c1.8,3.4,4.7,2.3,5.6,5.8l3.5-2.2
							c2.4,1.4,6.7,3.2,12.1,5.3c5.3,2.1,11.7,4.5,18.1,6.7c6.4,2.2,12.8,4.4,18.2,6.3c5.5,1.8,9.9,3.3,12.5,4.3l-0.6,0.3
							c2,0.6,4.2,1.4,6.6,2.3c2.4,0.9,5,1.8,7.7,2.8c5.5,2,11.4,4.2,17.4,6.3c6,2.1,12.1,4,17.8,5.6c5.7,1.5,11,2.6,15.4,3.1
							c1.2,4.2,4.9,4.7,7.1,6.6c-0.9-1.9,0.4-4,1.5-3.4c7.7,3.3,1.4-2,9.8-0.4c2.6,0.1,6.6,1.2,11.3,2.9c4.7,1.7,10.1,3.9,15.5,6.3
							c2.7,1.2,5.3,2.4,7.8,3.7c2.5,1.2,4.9,2.4,7.1,3.5c4.4,2.3,7.9,4.3,9.7,5.7c6-3.2,10.3,2.2,15.7,0.6l-0.8,1
							c1.3-0.1,3.9,0.7,7,1.9c1.6,0.6,3.3,1.3,5.1,2.1c1.8,0.7,3.7,1.5,5.7,2.3c7.7,3.2,15.4,6.4,18.4,6.4l-0.5-0.9
							c5.7-1.6,3.4,3.5,6.7,6.3c1.2-5.6,6.2-7.4,7.8-7.4l-0.4,1.2c2.6-0.2,9.3-3.3,13.4-3l-1,2.9c4.2-2.3,9.8,0.8,12.2,1.2
							c4.9,2.8,11.7,10.2,19.9,8.2l2.3,9.8l0.9-0.7c0,0,8.8-25.3,17.1-53.7c8.3-28.4,16.1-59.8,14.7-72l0.9-3l-1.8-0.1
							c-1.7-2-3.6,1.2-2.6-1.8l2.7,1.1c-1.8-1.4,0-2.6,1.3-4.1c-0.8-0.5-1.5-1.1-2-2.2c-0.7,1,0,1.3,0.1,2.1
							c-1.4,0.7-3.7,3.1-4.7,1.4c-2-0.9,1.2-4.9-1.2-5.9c-6.2-2.9-12.2-6.2-18.3-9.1c-6.1-2.9-12.3-5.5-18.9-7.2
							c0.1-1.3,0.4-1.2,1-1.6c-4.3,0.1-7.7-1.4-11.6-1.2c-0.6-1.6-0.3-3.5-0.2-4.9C1112.1,301.2,1091.8,295.1,1091.7,294.2z"/>
					</g>
				</g>
			</g>
		</g>
	</g>
	<g>
		<g>
			<path class="st1" d="M1010.8-613.7"/>
		</g>
	</g>
</g>
</svg>
